<svg xmlns="http://www.w3.org/2000/svg" width="275" height="252" fill="none" viewBox="0 0 260 252">
    <path fill="#C4DD60"
        d="M59.632 179.376c55.711 72.15 123.425 50.076 142.448 26.306 65.148-81.402-1.105-180.33-42.027-163.318-44.5 18.5-58.107 2.322-83.886 5.487C47.552 51.365.553 102.865 59.632 179.376Z"></path>
    <mask id="mask0_300_3326" width="196" height="195" x="57" y="30" maskUnits="userSpaceOnUse"
        style="mask-type: alpha;">
        <circle cx="155.035" cy="127.581" r="97.337" fill="#D9D9D9"></circle>
    </mask>
    <g mask="url(#mask0_300_3326)">
        <path fill="#fff"
            d="M208.397 207.941c-.447.319-.957.638-1.404.958-.511.319-.958.638-1.468.893-.447.255-.83.511-1.277.766-.064.064-.128.064-.191.128-1.468.893-3 1.723-4.532 2.489-.447.255-.958.511-1.404.702 0 0-.064.064-.128.064l-1.532.766c-1.021.511-2.106.957-3.127 1.404-.511.255-1.086.447-1.596.638-.511.192-1.085.447-1.596.639-.51.191-1.085.446-1.596.638h-.063c-.511.191-1.085.383-1.596.574-1.149.383-2.362.766-3.511 1.149-.383.128-.829.256-1.212.383a38.453 38.453 0 0 1-3.639.958c-.446.127-.893.191-1.404.319-1.149.255-2.361.51-3.51.766-.256.064-.447.064-.702.127-.383.064-.83.128-1.213.192-.575.064-1.085.191-1.66.255-.255.064-.51.064-.766.128a5.604 5.604 0 0 1-1.085.128c-1.021.127-2.106.255-3.127.383-.319.063-.702.063-1.022.127h-.063c-.447.064-.894.064-1.341.128-.447.064-.893.064-1.34.064-.255 0-.575.063-.83.063-.511 0-.957.064-1.404.064-.638 0-1.213.064-1.851.064h-3.192c-26.935-.383-51.126-11.808-68.423-29.935 0 0 0-.064-.064-.064-1.915-1.723-.255-10.915 7.468-16.723 9.702-7.34 32.935-11.936 32.935-11.936s9-1.468 42.382 5.489c19.531 4.085 34.403 10.021 42.701 26.106 1.723 3.319 3.447 8.425-2.617 11.106Z"></path>
        <path fill="#000"
            d="M168.504 170.027c12.255 2.49 25.34 5.17 35.425 13.276 3.383 2.745 5.617 6.766 7.468 10.66.893 1.915 1.787 3.893 2.489 6 .383 1.404.957 3 .638 4.659-.064.447-.447 1.021-.766 1.34-1.468 1.468-3.063 2.362-4.659 3.511-9.383 6.51-20.17 11.106-31.34 13.532-24.893 5.425-51.828 1.212-73.721-11.872-7.276-4.405-13.978-9.766-19.723-16.085-.638-.766-.638-2.043-.638-2.872.064-1.915.574-3.766 1.212-5.49 1.532-3.957 3.511-7.914 6.894-10.659 2.425-1.659 5.042-3.064 7.723-4.213 8.425-3.574 17.298-6.063 26.425-7.084.766-.064.894 1.021.128 1.148-8.745 1.788-17.425 4.468-25.532 8.107-2.936 1.468-6.063 2.744-8.425 5.042-2.234 2.425-3.83 5.425-5.106 8.489-.83 1.851-1.404 4.787-1.15 6.255 4.022 4.787 8.745 9 13.852 12.638 27.956 19.532 70.402 20.808 100.146 4.532 2.681-1.468 5.298-3.128 7.787-4.851 1.213-.83 2.489-1.532 3.447-2.489.063-.064 0 0 0 .064 0 .063-.064.127-.064.127.064-.766-.192-1.787-.511-2.808-1.149-3.702-3-7.596-4.978-10.979-3.128-5.042-8.426-8.233-13.787-10.787-3.702-1.723-7.596-3.063-11.553-4.34-3.958-1.276-7.979-2.361-12-3.319-1.021-.255-.702-1.723.319-1.532Z"></path>
        <path fill="#fff" stroke="#000" stroke-linecap="round" stroke-linejoin="round"
            stroke-miterlimit="10" stroke-width="0.518"
            d="M192.568 183.431s-10.021-10.404-19.787-12.638c0 0 1.277 17.553-10.34 16.34-18.766-1.978-36.446-21.893-36.446-21.893s-11.298-1.404-21.255 6.192c0 0 .256 24.446 22.723 34.148 22.404 9.701 53.616 4.914 61.02-1.341 7.34-6.255 5.872-18.701 4.085-20.808Z"></path>
        <path fill="#fff" stroke="#000" stroke-linecap="round" stroke-linejoin="round"
            stroke-miterlimit="10" stroke-width="0.518"
            d="M91.975 177.176s-3.32 1.979-6.064 7.723c-2.298 4.979-3.255 12.958-5.362 22.276-4.595 20.489-8.106 48.127-8.106 48.127H218.1s1.851-53.935-11.425-69.764c-1.404-1.724-6.83-4.404-7.085-4.149-4.277 3.957-5.043 24.765-27.319 25.914-28.275 1.404-62.296-7.532-63.125-12.765-.766-5.298-17.17-17.362-17.17-17.362Z"></path>
        <path fill="#000"
            d="M205.525 256.451c-40.084 18.51-106.082 1.787-106.082 1.787s-1.34-16.276 3.51-45.573c.192-1.341.383-2.681.511-3.894 1.404-13.276-8.106-25.786-11.553-31.531 0-1.468 1.277-2.808 3.255-3.957 7.915-4.596 19.213-7.277 19.723-6.894.894 1.277 1.979 4.915 2.745 6.256 7.149 13.212 9.638 27.382 24.51 29.424 14.68 2.043 28.85 1.724 38.999-.51 9.765-2.17 3.064-19.468-1.213-27.446-.191-.319-.574-1.341-.702-1.468 1.468-.958 20.106 5.68 21.382 10.531 2.809 7.021 2.49 20.744 3.319 27.574 2.809 22.276 1.596 45.701 1.596 45.701Z"></path>
        <path fill="#000"
            d="M206.865 257.408c-1.149.766-2.553 1.404-3.83 1.915-24.51 9.51-51.636 8.425-77.295 5.361-9-1.212-17.872-2.744-26.68-4.85-.703-.192-1.213-.766-1.213-1.469-.638-14.169.893-28.212 2.936-42.19.255-1.851.957-5.936 1.085-7.723.702-7.596-2.17-14.936-5.808-21.51-1.66-3-3.575-5.872-5.49-8.936-.83-1.787.703-3.766 1.915-4.851 2.809-2.234 6-3.447 9.191-4.851 3.128-1.213 6.319-2.298 9.639-3.128 1.212-.255 2.425-.638 3.765-.574.32 0 .958.319 1.213.702 1.404 2.234 1.851 4.723 3.064 6.957 5.553 9.958 8.234 24.702 20.68 27.957 4.723 1.021 9.702 1.404 14.489 1.723 7.34.447 14.744.383 22.021-.638 1.213-.191 2.425-.383 3.638-.638 1.085-.192 2.234-.447 3.064-1.149 4.787-4.149.638-15.127-1.341-20.17-.766-1.787-1.532-3.51-2.425-5.234-.192-.383-.383-.893-.575-1.276 0-.064-.063-.128 0-.064l.064-.83c.511-.574.958-.638 1.596-.766 1.723 0 3.447.702 5.106 1.213 4.021 1.34 7.851 2.936 11.489 5.106 1.404.894 2.873 1.851 3.958 3.192.383.51.766 1.085 1.021 1.851l-.064-.192c1.213 3.128 1.723 6.255 2.106 9.383.958 7.596.894 15.446 1.979 22.978 1.34 13.468 1.596 26.999 1.021 40.531v.893c0 .511-.127.958-.319 1.277Zm-2.681-1.851a1.036 1.036 0 0 0-.255.447v.127c.064-1.085.128-3.127.128-4.276.319-13.723-.064-27.574-1.66-41.169-.638-6.191-.638-12.255-1.34-18.383-.383-3-.83-5.999-1.851-8.553-.064-.319-.192-.51-.511-.893-2.234-2.426-5.425-3.83-8.425-5.234-3.383-1.404-6.894-2.936-10.532-3.447h.064c.128-.064.255-.064.383-.191l.255-2.553c.064.063.064.127.128.127.191.192.319.511.447.766.191.383.319.83.51 1.149 3.639 6.894 11.617 25.021 1.213 29.233-1.851.639-3.83.894-5.808 1.213-9.957 1.468-20.042 1.341-30.063.319-2.553-.319-5.043-.51-7.596-1.085-10.914-2.489-15.51-13.595-19.595-22.659-1.468-3.446-3.447-6.638-4.787-10.148-.383-.958-.83-2.234-1.34-3l.319.383c.191.191.51.255.766.319h-.064l-.319.064c-3.83.51-20.234 5.744-20.745 9.255l-.255-.83c5.68 8.872 11.872 18.638 11.872 29.616-.064 3.192-.766 7.532-1.276 10.659-1.022 6.894-1.915 13.787-2.426 20.745-.51 6.829-.83 13.914-.51 20.744l-1.213-1.468c8.617 2.042 17.489 3.574 26.297 4.787 25.148 3 51.701 4.149 75.636-5.107.766-.446 1.851-1.021 2.553-.957Z"></path>
        <path fill="#fff"
            d="M117.889 201.048a3.511 3.511 0 1 0 0-7.022 3.511 3.511 0 0 0 0 7.022ZM194.099 202.452a2.808 2.808 0 1 0 .002-5.616 2.808 2.808 0 0 0-.002 5.616ZM146.548 207.75c7.595.574 15.191.893 22.787.702a92.977 92.977 0 0 0 8.489-.575c2.936-.446 6.063.064 8.616 1.66 3.447 2.042 5.745 5.808 6.128 9.83.191 1.914.319 3.829.511 5.744.319 3.83.446 7.723.383 11.553-.064 1.979-.192 4.021-.511 6-.766 3.319-3.511 5.68-6.383 7.212-11.744 6.128-30.701 5.936-43.339 2.553-4.915-1.468-11.681-4.021-12-10.148-.064-.447-.127-1.66-.191-2.107-.192-2.872-.702-8.552-.894-11.361-.128-1.723-.447-4.213-.319-5.936.191-8.553 8.17-15.829 16.723-15.127Zm-.192 2.681c-7.659-.447-14.425 6.063-13.85 13.786.319 4.66.957 10.979 1.34 15.638l.128 1.405.064.702c.063 2.744 2.425 4.34 4.851 5.553 10.978 4.851 26.744 4.595 38.36 2.042 4.532-1.149 10.915-3 12.574-7.787 1.085-5.489 1.405-11.106 1.532-16.723-.064-3.638.383-7.595-1.659-10.851-1.851-3.191-5.362-5.233-9-5.361-1.851-.064-3.702.447-5.617.638-1.915.255-3.83.447-5.744.575-7.596.702-15.319.702-22.979.383ZM164.994 187.133s-11.68 14.17-15.255 13.085c-3.574-1.085-25.786-14.17-29.297-34.403 0 0 2.745-3.192 5.17-4.532 0 0 6.894-1.213 7.341-.574.446.702-4.851 4.276-3.958 5.489 3 4.085 7.787 9.51 15.447 13.978 11.553 6.766 20.552 6.957 20.552 6.957Z"></path>
        <path fill="#000"
            d="M166.526 186.495c.447.447-.255 1.979-.255 1.723-.064.128-.256.256-.383.383-4.021 3.83-7.723 7.851-12.319 11.043-1.277.829-3 1.851-4.532 1.085-3.893-1.787-7.34-4.341-10.723-6.958-8.744-7.084-16.404-16.467-18.638-27.765-.064-.255 0-.447.192-.638.702-1.021 1.468-1.915 2.234-2.872.83-.894 1.787-1.979 3-2.681 1.276-.319 2.617-.383 3.957-.511 1.404-.063 2.745-.319 4.149 0 .191.064.383.064.766.383 1.212 1.149.191 2.49-.702 3.319-1.022 1.022-2.17 1.851-2.936 2.936-.192.256 0 .128-.128-.255 0-.128-.192-.255-.064-.128.064.128.319.447.383.575 2.426 3.702 5.425 6.957 8.808 9.766 7.149 5.616 16.149 9.701 25.404 9.701.638-.191 1.468.256 1.787.894Zm-3 1.34c.128.447.83.958 1.277.958h-.128l-.255-.064c-13.851-2.936-26.808-10.34-35.935-21.127-.256-.383-.511-.511-.766-1.085-.32-1.213.319-2.043.957-2.809.957-1.212 2.17-2.106 3-3.255-.255.319-.064 1.085.319 1.404.255.192.319.192.383.192h-.128c-2.106.064-4.212.511-6.255.894l.511-.192c-1.915.766-3.766 2.234-5.362 3.638l.192-.638c2.17 14.553 15.446 27.638 28.276 33.765 2.234 1.085 7.595-5.106 9.127-6.766 1.787-2.042 3.511-4.212 5.042-6.446l.064-.064c-.064-.383-.766 1.149-.319 1.595Z"></path>
        <path fill="#fff"
            d="M164.994 187.133s9.064 10.596 12.064 10.724c3 .127 4.276-18.511-4.724-27.957 0 0-6.446-5.362-1.978.511 0 0 4.468 13.595-5.362 16.722Z"></path>
        <path fill="#000"
            d="M166.59 187.58c.255-.447-.192-1.468-.319-1.468v.064c-.064.574.127 1.021.319 1.404 2.106 2.681 4.596 5.106 7.149 7.149 1.021.766 2.17 1.787 3.319 2.042h-.192c.511-.574.702-1.595.894-2.553 1.085-7.914-.894-17.552-6.383-23.488l.128.127c-.83-.702-1.915-1.532-2.745-2.042 0 0 0 .064.447 0 .383-.064.766-.511.766-.894v-.319c.255.766.893 1.532 1.276 2.298.064 3.574 1.277 6.638.639 10.276-.319 3.383-2.617 6.702-5.809 8.17h-.063c.382 0 .574-.383.574-.766Zm-3.128-.893c.256-.511.894-1.022 1.468-1.213a7.963 7.963 0 0 0 1.596-.575c3.575-1.659 4.404-6.063 4.213-9.701-.064-1.596-.256-3.319-1.341-4.532l.128.319c-.319-1.085-.957-1.979-1.085-3.128.191-1.34 1.979.575 2.425.83l1.405 1.213c5.872 6.255 9.063 17.808 7.148 26.297-.319 1.277-1.276 3.128-2.936 2.681-1.723-.447-2.872-1.532-4.085-2.617-1.468-1.341-2.808-2.809-4.149-4.213l-2.042-2.106c-.447-.447-.83-.958-1.34-1.277-.383-.191-.766-.383-1.149-.446-.064 0-.511-1.086-.256-1.532Z"></path>
        <path fill="#fff"
            d="M164.101 188.218s-1.787 1.979-1.149 6.319c.638 4.277.511 8.553.511 8.553"></path>
        <path fill="#000"
            d="M165.377 189.304c0-.064 0-.064 0 0-.191.063-.319.191-.447.319-1.34 1.595-1.34 3.829-1.149 5.808.256 2.681.256 5.106 1.341 7.659.893 2.171-2.298 3.511-3.255 1.405-.192-.511-.128-1.022 0-1.468.255-1.213.383-2.426.383-3.702.063-3.32-1.213-6.575-.32-9.894.192-.83.511-1.595 1.022-2.298 1.404-1.595 3.766.511 2.425 2.171ZM167.42 197.793a1.468 1.468 0 1 0 0-2.937 1.468 1.468 0 0 0 0 2.937ZM125.484 159.688c.638.829 1.085.893 1.596.829l1.468-.127c7.978-.447 15.957-1.149 23.935-.192a31.046 31.046 0 0 1 14.17 5.362c1.66 1.276 3.383 2.68 4.085 4.723.064.191-.064.447-.319.511-.255.063-.447-.064-.51-.256-.958-1.532-2.681-2.617-4.213-3.51-3.319-1.851-6.957-3.319-10.723-4.149-7.66-1.596-15.574-1.787-23.425-1.34-1.404.063-3 .255-4.404.382-.511 0-.958.128-1.341 1.086-2.106.127-2.489-3-.319-3.319Z"></path>
        <path fill="#fff"
            d="M174.503 187.006c-1.34 6.574-10.021 10.531-24.637 4.595-15.191-6.127-21.766-20.744-23.425-25.084 9-16.851 2.745-28.531 2.745-28.531 20.744-1.787 38.871 22.467 38.871 22.467l2.808 12c.256 1.021.766 1.915 1.532 2.553 1.341 2.362 2.936 7.787 2.106 12Z"></path>
        <path fill="#000"
            d="M126.122 166.708c1.213-1.851 1.979-4.021 2.49-6.127.957-4.404 1.276-8.872 1.34-13.34v-1.66c-.191-1.659-.766-3.383-1.404-4.915-.83-2.042 2.17-3.319 3.127-1.276.128.255.128.702.128.957.192 8.681.575 19.851-4.915 27.063-.383.383-1.149-.191-.766-.702ZM168.759 160.326c.958.574 1.277 1.34 1.404 2.106.383 1.532.256 3.191.639 4.787.319 1.532 1.276 3 1.531 4.596.32 1.659 1.277 5.17 1.66 6.893a.697.697 0 0 1-.574.894c-.256.064-.447 0-.639-.128-.83-.702-1.212-1.404-1.723-2.298-.83-1.532-1.404-2.936-1.915-4.659-.447-1.532-.255-3.192-.638-4.787-.319-1.532-1.213-3-1.532-4.596-.192-.766-.255-1.596.319-2.553.383-.383 1.021-.511 1.468-.255Z"></path>
        <path fill="#000"
            d="M173.355 177.176c-12.191-.638-22.148-4.468-31.85-21.765 8.17 7.212 17.808 9.957 27.957 11.234l1.34 5.872c.255 1.021 1.787 4.021 2.553 4.659Z"></path>
        <path fill="#000"
            d="M172.845 174.814c2.17 4.085 3.446 9.192 2.106 13.723-1.021 3.192-3.957 5.553-7.149 6.447-7.404 1.979-15.957-1.149-22.531-4.659-8.106-4.532-14.106-12.128-17.936-20.425-.255-.639.638-1.149 1.021-.511 1.341 2.681 2.873 5.298 4.596 7.659a39.07 39.07 0 0 0 5.936 6.639c6.511 5.872 15.319 9.51 24.127 9.51 9.064-.255 12.51-5.043 10.404-13.851-.319-1.404-.83-2.872-1.532-4.085-.383-.51.575-1.085.958-.447Z"></path>
        <path fill="#fff"
            d="M197.546 98.157c1.149 5.361 1.723 9.702-1.404 23.999-3.064 14.234 4.404 17.17-13.276 39.957-7.213 9.319-24.702 6.702-38.872-2.936-4.787-3.256-6.829-11.617-10.404-17.553-2.808-4.66-4.085.191-7.787-3.83-5.042-5.489-11.106-16.531-8.106-36.063 4.851-31.658 29.935-35.36 48.509-31.85 18.702 3.575 28.276 14.17 31.34 28.276Z"></path>
        <path fill="#000"
            d="M128.994 143.475c-1.468-2.489-3.383-4.66-5.17-6.957-1.723-2.362-3.127-4.979-4.276-7.66-7.596-18.638-4.66-44.87 13.978-55.85 7.723-4.467 17.042-5.552 25.723-4.85 18.574 1.34 35.616 9.893 39.637 29.552 2.17 8.681-.766 17.617-2.425 26.106-.766 4.213-.128 8.553-.192 12.893-.064 4.404-1.276 8.808-2.936 12.893-1.021 2.809-2.808 5.298-4.659 7.596-3.064 3.702-6.128 7.468-10.021 10.34-.894.638-2.49.958-3.575 1.085-3 .447-5.936.575-8.936.383-11.744-.51-24.318-6.191-29.041-17.553-.192-.446.446-.766.702-.383 6.127 9.702 17.361 14.489 28.531 15.128 3.446.191 6.957.127 10.34-.575 1.659-.83 3.127-2.298 4.532-3.638 3.446-3.447 6.957-7.149 9.446-11.361 3-5.681 4.66-11.872 4.149-18.319-.128-2.872-.191-5.872.383-8.744.511-2.873 1.149-5.617 1.532-8.553.383-2.809.574-5.681.574-8.49-.319-8.233-3-16.722-8.233-23.105-11.553-14.362-38.872-18.127-54.254-8.298-9.702 6-14.234 17.234-15.702 28.148-2.234 13.085-1.596 25.978 8.808 35.489l3.064 3.191c1.213 1.404-.957 3.064-1.979 1.532Z"></path>
        <path fill="#fff"
            d="M136.526 123.178s-1.979-9.575-11.298-8.426c-8.042 1.021-10.851 20.298 7.404 25.659"></path>
        <path fill="#000"
            d="M131.803 132.05c-1.468-.83-2.489-2.234-2.553-3.958.064-1.276.255-2.744-.064-4.021-.192-1.212-1.468-1.532-2.426-1.468-1.021.192-1.659 1.468-1.851 2.489 0 .064-.063.256-.063.32-.064.319-.575.319-.703 0-.829-2.49 1.022-5.234 3.702-4.915 3.766.255 4.277 4.213 3.575 7.212-.383 1.277.128 2.426.83 3.511l.127.191c.319.383-.191.894-.574.639ZM182.865 116.412c.957 4.532 2.745 8.744 4.979 12.701 1.978 4.851-3.128 9.447-7.66 9.256-.51 0-.574-.703-.127-.83 2.872-.894 5.489-2.809 5.936-5.745.191-.893-.064-1.659-.511-2.425-2.106-3.958-3.383-8.489-3.064-12.957 0-.319.447-.319.447 0Z"></path>
        <path fill="#000"
            d="M136.207 123.241c-1.468-3.765-4.66-7.34-8.936-7.276-.383-.064-1.021.064-1.404.064-1.085.064-1.979.447-2.809 1.213-4.085 4.085-3.383 11.297-.063 15.829 1.148 1.596 2.616 3 4.276 4.149 1.66 1.149 3.511 2.042 5.489 2.808.447.128.256.83-.191.766-4.277-.893-8.362-3-11.17-6.51-4.341-5.234-5.234-13.979-.064-19.085 1.149-1.021 2.745-1.787 4.34-1.787.511 0 1.277-.128 1.787 0 2.681.128 5.234 1.468 6.894 3.574 1.468 1.788 2.298 3.958 2.553 6.128 0 .383-.574.51-.702.127ZM178.015 144.688c-1.979 1.595-4.724 1.659-7.085 1.085-.766-.192-1.66-.319-2.106-1.149-.447-.702-.001-1.596.829-1.723.83-.192 1.341.191 2.043.383 1.851.638 3.893 1.021 5.808.383.511-.128 1.021.638.511 1.021Z"></path>
        <path fill="#000"
            d="M170.993 140.603c1.341 2.361-.574 5.17-2.872 6.063-.511.256-2.936.766-2.872-.191 0-.128.127-.256.255-.319 2.298-1.022 3.957-3.128 4.34-5.553.064-.511.766-.639 1.022-.192l.127.192ZM159.058 122.922c-1.532-.064-2.681-1.34-2.553-2.872l.064-1.787c.063-1.532 1.34-2.681 2.872-2.553 1.532.063 2.681 1.34 2.553 2.872l-.064 1.787c-.064 1.468-1.34 2.617-2.872 2.553ZM185.929 123.88c-1.404-.064-2.489-1.277-2.425-2.681l.063-1.66c.064-1.404 1.277-2.489 2.681-2.425 1.404.064 2.49 1.277 2.426 2.681l-.064 1.659c-.064 1.405-1.277 2.49-2.681 2.426Z"></path>
        <path fill="#000"
            d="M164.802 119.476c-2.106-1.405-4.404-2.362-6.957-1.851-.83.127-1.659.383-2.17.957-.192.255-.638.192-.638-.191.063-1.277 1.149-2.107 2.17-2.617 1.978-1.022 4.723-.83 6.51.51.639.383 2.809 2.745 1.66 3.255-.256.128-.383.064-.575-.063ZM183.057 119.795c0-2.681 3.319-3.639 5.362-2.681 1.149.51 1.978 1.532 2.297 2.744.128.383-.446.703-.702.383-1.085-1.276-2.936-1.914-4.404-1.149-.447.256-.51.447-.638.703 0 1.276-1.851 1.212-1.915 0ZM167.866 108.944c1.341.447 2.681-.766 2.426-2.234-.128-.766-.447-1.532-1.085-2.106-1.915-1.724-9.83-3.256-14.617-1.022-4.213 2.043 7.149 3.319 13.276 5.362ZM186.951 109.965c-1.085.383-2.234-.766-2.043-2.106.064-.702.319-1.404.83-1.915 1.532-1.532 6.766-2.745 10.085-.383 2.872 1.979-3.894 2.553-8.872 4.404Z"></path>
        <path fill="#000"
            d="M202.654 108.816c2.872-9.83-2.106-16.659-5.681-19.978-1.659-4.468-4.468-8.872-8.936-12.255a19.372 19.372 0 0 0-2.936-1.915c-.893-.51-1.851-.957-2.808-1.404-8.426-3.638-21.893-7.915-35.233-5.617a38.59 38.59 0 0 0-15 5.808c-.064 0-.064.064-.064.064-.383.255-.766.51-1.085.766-.893-1.085-1.915-2.042-3.064-2.936-7.978-6-16.659-4.978-22.659 3.064-6 7.978-7.02 19.914.958 25.914 2.489 1.851 5.298 3 8.17 3.447-.064.319-.064.702-.128 1.021-3.51 31.467 20.553 45.637 18.702 35.744-.511-.192-.766-.383-.766-.511-17.68-5.617-14.872-24.51-6.893-25.531 2.872-.383 4.978.319 6.638 1.34l1.787 1.787c1.532 1.915 2.872 4.341 2.872 5.298.064-.766.128-1.659.319-2.553 7.723 5.745 14.681 3.702 27.319-16.468 8.361-13.34 13.34-15.957 16.084-15.574 1.085.383 2.107 1.213 3.064 2.617.255.383.511.766.702 1.15 5.617-.128 8.234 3.127 9.574 6.51v.064c1.085 2.872 1.213 5.808 1.341 6.574 0 .127 0 .191.064.191-.128 2.553-.447 6.894-.511 12.511 0 2.553.255 7.659.064 10.595-.064.894-.128 1.787-.192 2.617-.064.447-.064.894-.127 1.276-.064.383-.064.83-.128 1.277-.064.511-.128.957-.128 1.468 1.277 1.532 3.128 1.787 4.66 2.809.383-4.341-.766-7.979-1.213-12.894.383 1.66.894 3.256 1.66 4.915 2.553 5.489 1.148 9.51 1.148 9.51l4.213.256c.447-1.213.83-3.447-.511-6.383-2.042-4.532-2.17-6.638-2.17-6.638s1.085 3.702 3.128 6.191c1.596 2.043 2.234 4.787 1.596 6.957l1.532.128c4.595-6.893-9.639-16.723-5.362-31.212Zm-52.084 5.553c-4.851 3.511-8.936 2.809-11.425 1.724.064 0 .128-.064.128-.064 1.532-.128 3.063-.447 4.531-1.022 7.022-2.489 13.532-8.935 19.277-14.872-4.851 6-9.511 12.064-12.511 14.234Z"></path>
        <path fill="#000"
            d="M148.317 135.316c1.787-.957 3.51-1.978 5.489-2.489.192 0 .319-.064.702.064 1.341 1.021-2.553 3.574-3.255 4.212.191-.255.128-.702-.192-.829-.063 0-.063-.064-.127-.064h-.128c1.596-.575 3.192-1.213 4.723-1.979.894-.383 2.107-1.213 3.064-1.276.383 0 .83.383.766.766-.064.51-.191.702-.319 1.021-.128.255-.383.638-.447.893 0 .064-.064-.063-.064-.063 0 .063.383.063.447 0 1.021-.128 2.106-.511 3.128-.894.191-.064.319.191.127.319-1.085.702-2.234 1.468-3.638 1.596-.893.064-1.34-.766-1.021-1.532.128-.447.447-.957.574-1.34 0 .127.128.319.256.383.127.063.191 0 .127.063-.638.192-1.914.894-2.489 1.149-1.659.766-3.255 1.468-5.042 1.979-.128 0-.128.064-.32 0-.51-.064-.638-.702-.255-1.021.766-.639 1.66-1.149 2.362-1.787.383-.32.83-.766 1.085-1.149 0 .063.064.191.128.255-.575.064-1.724.383-2.426.702-1.021.383-2.106.83-3.127 1.277-.128.127-.32-.192-.128-.256ZM189.677 135.316c.575-.638 3-3.702 3.639-2.106v.319c-.256 1.277-1.086 2.362-1.724 3.447.128-.319-.127-.766-.447-.83h-.255c-.064 0 0 0 .064-.064 1.276-.83 2.234-1.851 3.51-2.744.256-.128.575-.32.894-.128.319.255.255.638.128.894-.128.319-.256.574-.383.893-.064.064-.128.128-.256.064-.063 0-.063-.064-.063-.128v-1.085c-.064-.127 0-.064 0 0s.127.192.255.192h.191c-1.085 1.276-2.361 2.489-3.829 3.319-.447.191-.958-.192-.894-.702 0-.064.064-.192.128-.256.447-.638.957-1.276 1.34-1.915.192-.319.447-.765.511-1.085 0 .128.255.32.319.256-1.021.383-1.915 1.212-2.809 1.851-.255.191-.446-.064-.319-.192Z"></path>
    </g>
</svg>