<svg xmlns="http://www.w3.org/2000/svg" width="275" height="267" fill="none" viewBox="0 0 276 267">
    <path fill="#0067D1"
        d="M140.069 44.836C48.984 48.42 20.817 104.167 26.033 134.162c17.861 102.721 131.365 114.358 144.162 84.155 15.611-36.843 43.6-56.024 57.485-74.001 13.885-17.977 26.246-103.96-87.611-99.48Z"></path>
    <mask id="mask0_228_597" width="195" height="195" x="41" y="43" maskUnits="userSpaceOnUse"
        style="mask-type: alpha;">
        <circle cx="138.481" cy="140.518" r="97.337" fill="#D9D9D9"></circle>
    </mask>
    <g mask="url(#mask0_228_597)">
        <path fill="#fff"
            d="M191.842 220.879c-.447.319-.957.638-1.404.958-.511.319-.957.638-1.468.893-.447.255-.83.511-1.277.766-.063.064-.127.064-.191.128-1.468.893-3 1.723-4.532 2.489-.447.255-.957.511-1.404.702 0 0-.064.064-.128.064l-1.532.766c-1.021.511-2.106.957-3.127 1.404-.511.255-1.085.447-1.596.638-.51.192-1.085.447-1.596.639-.51.191-1.085.446-1.595.638h-.064c-.511.191-1.085.383-1.596.574-1.149.383-2.361.766-3.51 1.149-.383.128-.83.256-1.213.383a38.514 38.514 0 0 1-3.638.958c-.447.127-.894.191-1.404.319-1.149.255-2.362.51-3.511.766-.255.064-.447.064-.702.127-.383.064-.83.128-1.213.192-.574.064-1.085.191-1.659.255-.256.064-.511.064-.766.128a5.604 5.604 0 0 1-1.085.128c-1.022.127-2.107.255-3.128.383-.319.063-.702.063-1.021.127h-.064c-.447.064-.894.064-1.34.128-.447.064-.894.064-1.341.064-.255 0-.574.063-.83.063-.51 0-.957.064-1.404.064-.638 0-1.213.064-1.851.064h-3.191c-26.936-.383-51.127-11.808-68.424-29.935 0 0 0-.064-.064-.064-1.915-1.723-.255-10.915 7.468-16.723 9.702-7.34 32.935-11.936 32.935-11.936s9-1.468 42.382 5.489c19.532 4.085 34.404 10.021 42.701 26.106 1.724 3.319 3.447 8.425-2.617 11.106Z"></path>
        <path fill="#000"
            d="M151.95 182.965c12.255 2.489 25.339 5.17 35.424 13.276 3.383 2.745 5.617 6.766 7.468 10.66.894 1.914 1.787 3.893 2.489 5.999.383 1.405.958 3 .639 4.66-.064.447-.447 1.021-.766 1.34-1.468 1.468-3.064 2.362-4.66 3.511-9.383 6.51-20.169 11.106-31.339 13.531-24.893 5.426-51.829 1.213-73.722-11.872-7.276-4.404-13.978-9.765-19.723-16.084-.638-.766-.638-2.043-.638-2.873.064-1.915.575-3.766 1.213-5.489 1.532-3.957 3.51-7.915 6.893-10.659 2.426-1.66 5.043-3.064 7.723-4.213 8.426-3.574 17.298-6.063 26.425-7.085.766-.064.894 1.022.128 1.149-8.745 1.787-17.425 4.468-25.531 8.106-2.936 1.468-6.064 2.745-8.426 5.043-2.234 2.425-3.83 5.425-5.106 8.489-.83 1.851-1.404 4.787-1.149 6.255 4.021 4.787 8.745 9 13.85 12.638 27.958 19.531 70.403 20.808 100.147 4.532 2.681-1.468 5.298-3.128 7.787-4.851 1.213-.83 2.489-1.532 3.447-2.489.064-.064 0 0 0 .063 0 .064-.064.128-.064.128.064-.766-.191-1.787-.511-2.808-1.148-3.702-2.999-7.596-4.978-10.979-3.128-5.042-8.425-8.234-13.787-10.787-3.702-1.723-7.596-3.064-11.553-4.34-3.957-1.277-7.978-2.362-12-3.319-1.021-.255-.702-1.723.32-1.532Z"></path>
        <path fill="#fff"
            d="M200.587 229.942c-1.213-9.446-6.574-25.339-9.829-29.616-3.575-4.659-5.043-6.127-16.979-10.149-.638-3.191-3-11.233-5.808-14.616-4.277-6.447-15.957-7.915-19.468-7.149 0 0-18.893-6.638-40.658-6.638-6.894 1.532-14.872 4.659-19.212 11.234-2.936 4.34.383 5.744-1.085 9.702-.383 1.021-9.32 6.127-12.957 9.191-1.66 1.34-3.511 4.723-4.788 9.127-2.553 9 .192 21.446-3 32.297-6.127 20.936-18.573 27.191-18.573 27.191H213.16c-.127-.064-9.957-10.659-12.574-30.574Z"></path>
        <path fill="#000"
            d="M199.629 230.07c-1.276-8.361-3.829-16.659-7.084-24.446-1.596-3.766-4.022-7.404-7.405-9.638-1.723-1.085-3.638-1.915-5.616-2.745-1.979-.765-4.022-1.468-6-2.17-.319-.127-.575-.383-.639-.702a40.671 40.671 0 0 0-.957-3.766c-1.659-5.17-3.447-10.914-8.298-13.914-3.702-2.234-8.106-3.319-12.382-3.511-.83 0-1.724 0-2.49.128h-.255c-.064 0-.191 0-.255-.064-3.064-1.468-6.447-2.362-9.766-3.255-9.957-2.298-20.361-3.255-30.574-3.319-6.255 1.468-15 4.915-18.829 11.297-.638 1.022-.957 2.043-.83 3.192.128 1.276.575 2.681.256 4.021-.128.574-.255 1.213-.51 1.723-.511.702-1.341 1.149-1.98 1.596-3.319 2.17-6.701 4.085-9.893 6.319-1.085.766-2.106 1.468-2.872 2.553-2.234 3.192-3.575 7.021-4.149 10.851-1.021 7.787 0 15.702-1.021 23.489-1.15 7.787-4.149 15.318-8.362 21.956-2.936 4.468-6.51 8.617-11.042 11.49l-.447-1.788h164.932l-.702 1.596c-1.915-2.17-3.447-4.532-4.851-7.021-4.34-7.276-6.893-15.51-7.979-23.872Zm1.915-.255c.702 5.425 2.043 10.787 4.085 15.893 2.043 5.043 4.596 9.957 8.17 14.106.511.575.064 1.66-.702 1.596H48.165a.982.982 0 0 1-.957-.958c0-.383.192-.702.51-.829 1.022-.575 2.043-1.405 3-2.234 8.362-7.532 13.596-18.702 15.32-29.808 1.467-10.404-1.277-21.638 3.382-31.531 1.085-2.298 2.426-4.723 4.596-6.191 3.957-2.937 8.297-5.107 12.191-7.979.064 0 .064-.064.064-.064a.486.486 0 0 0-.128.256c.383-.894.51-1.66.383-2.681-.191-1.277-.51-3-.064-4.341.192-.765.575-1.468.958-2.042 4.595-6.893 12.701-9.957 20.425-11.681 2.17.064 4.404-.319 6.574-.319 3 0 6.064.447 9.064.83 8.616 1.34 16.914 3.638 25.403 5.489l-.574-.064c1.978-.383 3.829-.191 5.744.064 12.255 1.851 16.404 7.213 19.723 18.638a69.141 69.141 0 0 1 1.021 3.894l-.638-.766c6.128 2.17 13.021 4.148 16.914 9.829 1.405 1.724 2.426 3.766 3.32 5.809 3.255 8.17 5.808 16.403 7.148 25.084Z"></path>
        <path fill="#000"
            d="M99.994 187.944c4.723 10.085 12.064 18.638 20.808 25.404.319.255 0 .766-.383.574-7.787-3.702-14.361-10.021-18.255-17.68-1.276-2.553-2.361-5.298-2.744-8.17-.128-.319.383-.447.574-.128ZM174.737 190.05c.191 10.659-4.149 21.574-12.447 28.467-.191.192-.447.128-.638-.064-.192-.191-.128-.446.064-.638 1.851-1.787 3.702-3.638 5.106-5.808 2.936-4.213 4.723-9.191 5.553-14.234.383-2.489.638-5.17.447-7.659-.064-1.213 1.851-1.341 1.915-.064ZM137.142 215.39c-1.468 5.17-2.681 10.787-1.979 16.149.192 1.212-1.659 1.531-1.914.255-.32-2.936.063-5.809.574-8.617.574-2.808 1.277-5.489 2.234-8.17.255-.638 1.34-.319 1.085.383ZM157.439 214.433c2.107 4.531 3.575 9.255 4.723 14.042a.951.951 0 1 1-1.851.447c-.638-3.575-1.468-7.149-2.616-10.66-.383-1.149-.766-2.298-1.213-3.446-.256-.575.638-1.022.957-.383Z"></path>
        <path fill="#000"
            d="M88.888 182.454c2.361 12.894 11.425 23.808 22.34 30.765a72.906 72.906 0 0 0 11.744 6.064c.255.128.383.383.255.638-.064.256-.383.383-.574.256-4.213-1.532-8.298-3.447-12.127-5.745-7.787-4.595-14.617-10.978-19.213-18.765-2.361-4.021-4.212-8.234-5.106-12.83a1.378 1.378 0 0 1 1.149-1.595c.702-.192 1.468.383 1.532 1.212ZM133.312 232.942c-1.787-.191-3.063-1.851-2.68-3.638l.702-3.383c.255-1.34 1.532-2.298 2.872-2.106a2.7 2.7 0 0 1 2.425 2.681v3.446c.064 1.788-1.468 3.192-3.319 3ZM162.737 230.581c-1.724.638-3.575-.383-4.021-2.17l-.83-3.383c-.319-1.341.383-2.681 1.723-3.192 1.277-.446 2.745.128 3.319 1.341l1.532 3.127c.766 1.724 0 3.702-1.723 4.277Z"></path>
        <path stroke="#000" stroke-linecap="round" stroke-linejoin="round" stroke-miterlimit="10"
            stroke-width="0.884" d="M192.226 228.666s3.574 20.042 2.17 31.786"></path>
        <path fill="#000"
            d="M108.866 180.157c-.894-2.553-1.277-5.17-1.085-7.851 0-.255.191-.383.446-.383.192 0 .383.191.383.383.192 2.425.894 4.915 2.043 7.021.574 1.276-1.341 2.106-1.787.83ZM152.013 183.539c-1.787-4.021-6.191-6.063-10.085-7.467-2.425-.766-5.106-1.341-7.659-1.724-6.192-.957-14.936-2.425-21.127-3.064-.064 0-.064-.127 0-.127 1.787-.192 3.574-.192 5.361-.192 5.362.128 10.723.702 16.021 1.532 5.298.83 10.978 2.426 15 6.255 1.276 1.341 2.425 2.873 2.744 4.724.064.191-.191.255-.255.063Z"></path>
        <path fill="#fff"
            d="M157.949 199.943c-1.34 6.574-10.021 10.532-24.637 4.596-15.191-6.128-21.766-20.744-23.425-25.085 8.999-16.85 2.744-28.531 2.744-28.531 20.744-1.787 38.872 22.468 38.872 22.468l2.808 11.999c.255 1.022.766 1.915 1.532 2.554 1.34 2.361 2.936 7.787 2.106 11.999Z"></path>
        <path fill="#000"
            d="M109.568 179.646c1.213-1.851 1.979-4.021 2.49-6.127.957-4.405 1.276-8.873 1.34-13.341v-1.659c-.192-1.66-.766-3.383-1.404-4.915-.83-2.042 2.17-3.319 3.127-1.276.128.255.128.702.128.957.191 8.681.574 19.851-4.915 27.063-.383.383-1.149-.191-.766-.702ZM152.204 173.263c.958.575 1.277 1.341 1.405 2.107.383 1.531.255 3.191.638 4.787.319 1.532 1.276 3 1.532 4.595.319 1.66 1.276 5.17 1.659 6.894a.695.695 0 0 1-.574.893c-.255.064-.447 0-.638-.127-.83-.702-1.213-1.405-1.724-2.298-.83-1.532-1.404-2.936-1.915-4.66-.446-1.532-.255-3.191-.638-4.787-.319-1.532-1.213-3-1.532-4.595-.191-.766-.255-1.596.319-2.553.383-.383 1.022-.511 1.468-.256Z"></path>
        <path fill="#000"
            d="M156.801 190.114c-12.191-.639-22.148-4.468-31.85-21.766 8.17 7.213 17.808 9.957 27.957 11.234l1.34 5.872c.256 1.021 1.787 4.021 2.553 4.66Z"></path>
        <path fill="#000"
            d="M156.29 187.752c2.17 4.085 3.447 9.191 2.106 13.723-1.021 3.191-3.957 5.553-7.148 6.447-7.405 1.978-15.958-1.149-22.532-4.66-8.106-4.532-14.106-12.127-17.935-20.425-.256-.638.638-1.149 1.021-.51 1.34 2.68 2.872 5.297 4.595 7.659a39.145 39.145 0 0 0 5.936 6.638c6.511 5.872 15.319 9.51 24.127 9.51 9.064-.255 12.511-5.042 10.404-13.85-.319-1.405-.829-2.873-1.532-4.085-.382-.511.575-1.085.958-.447Z"></path>
        <path fill="#fff"
            d="M180.992 111.095c1.149 5.361 1.723 9.702-1.404 23.999-3.064 14.234 4.404 17.17-13.277 39.956-7.212 9.319-24.701 6.702-38.871-2.936-4.787-3.255-6.83-11.616-10.404-17.552-2.808-4.66-4.085.191-7.787-3.83-5.042-5.489-11.106-16.532-8.106-36.063 4.851-31.659 29.935-35.36 48.509-31.85 18.702 3.574 28.276 14.17 31.34 28.276Z"></path>
        <path fill="#000"
            d="M112.44 156.413c-1.468-2.49-3.383-4.66-5.17-6.958-1.724-2.361-3.128-4.978-4.277-7.659-7.595-18.638-4.66-44.871 13.978-55.85 7.724-4.468 17.043-5.553 25.723-4.85 18.574 1.34 35.616 9.893 39.637 29.552 2.171 8.681-.766 17.616-2.425 26.106-.766 4.212-.128 8.553-.192 12.893-.063 4.404-1.276 8.808-2.936 12.893-1.021 2.809-2.808 5.298-4.659 7.596-3.064 3.702-6.128 7.468-10.021 10.34-.894.638-2.489.957-3.574 1.085-3 .447-5.936.574-8.936.383-11.745-.511-24.319-6.191-29.042-17.553-.192-.447.447-.766.702-.383 6.127 9.702 17.361 14.489 28.531 15.127 3.447.192 6.957.128 10.34-.574 1.66-.83 3.128-2.298 4.532-3.638 3.447-3.447 6.957-7.149 9.447-11.362 3-5.68 4.659-11.872 4.148-18.318-.127-2.873-.191-5.872.383-8.745.511-2.872 1.149-5.617 1.532-8.553a63.21 63.21 0 0 0 .575-8.489c-.319-8.234-3-16.723-8.234-23.106-11.553-14.36-38.871-18.127-54.254-8.297-9.702 6-14.234 17.233-15.702 28.148-2.234 13.085-1.595 25.978 8.809 35.488l3.063 3.192c1.213 1.404-.957 3.064-1.978 1.532Z"></path>
        <path fill="#fff"
            d="M119.971 136.115s-1.979-9.574-11.297-8.425c-8.043 1.021-10.851 20.297 7.404 25.659"></path>
        <path fill="#000"
            d="M115.248 144.987c-1.468-.829-2.489-2.233-2.553-3.957.064-1.276.255-2.744-.064-4.021-.191-1.213-1.468-1.532-2.425-1.468-1.022.191-1.66 1.468-1.851 2.489 0 .064-.064.256-.064.319-.064.32-.575.32-.702 0-.83-2.489 1.021-5.234 3.702-4.914 3.766.255 4.276 4.212 3.574 7.212-.383 1.277.128 2.426.83 3.511l.128.191c.319.383-.192.894-.575.638ZM166.31 129.35c.958 4.531 2.745 8.744 4.979 12.701 1.979 4.851-3.128 9.447-7.659 9.256-.511 0-.575-.703-.128-.83 2.872-.894 5.489-2.809 5.936-5.745.191-.893-.064-1.659-.511-2.425-2.106-3.958-3.383-8.489-3.063-12.957 0-.319.446-.319.446 0Z"></path>
        <path fill="#000"
            d="M119.653 136.179c-1.468-3.766-4.66-7.34-8.936-7.276-.383-.064-1.021.064-1.404.064-1.086.063-1.979.446-2.809 1.212-4.085 4.085-3.383 11.298-.064 15.83 1.149 1.595 2.617 3 4.277 4.149 1.659 1.148 3.51 2.042 5.489 2.808.447.128.255.83-.191.766-4.277-.894-8.362-3-11.17-6.511-4.341-5.233-5.234-13.978-.064-19.084 1.149-1.021 2.744-1.787 4.34-1.787.511 0 1.277-.128 1.787 0 2.681.127 5.234 1.468 6.894 3.574 1.468 1.787 2.298 3.957 2.553 6.128 0 .383-.575.51-.702.127ZM159.993 157.434c.063 1.021-.703 2.808-2.107 4.085-7.212-4.404-10.468-2.107-10.468-2.107-2.553-3.893-1.978-9.191 4.213-5.17 4.277 2.809 6.957 3.256 8.362 3.192Z"></path>
        <path fill="#fff"
            d="M157.822 161.582c-1.532 1.341-3.829 2.171-6.957.894-1.468-.574-2.617-1.723-3.511-3 .064 0 3.256-2.298 10.468 2.106Z"></path>
        <path stroke="#000" stroke-linecap="round" stroke-linejoin="round" stroke-miterlimit="10"
            stroke-width="0.518"
            d="M161.205 157.242s-2.681 1.468-9.574-2.936c-8.234-5.297-6.575 5.809-.766 8.17 6.063 2.49 9.191-2.936 9.127-4.978"></path>
        <path stroke="#000" stroke-linecap="round" stroke-linejoin="round" stroke-miterlimit="10"
            stroke-width="0.518" d="M147.418 159.476s3.255-2.298 10.468 2.106"></path>
        <path fill="#000"
            d="M142.504 135.86c-1.532-.064-2.681-1.34-2.553-2.872l.064-1.787c.064-1.532 1.34-2.681 2.872-2.554 1.532.064 2.681 1.341 2.553 2.873l-.064 1.787c-.063 1.468-1.34 2.617-2.872 2.553ZM169.375 136.817c-1.404-.064-2.489-1.276-2.425-2.68l.064-1.66c.064-1.404 1.276-2.489 2.681-2.425 1.404.063 2.489 1.276 2.425 2.68l-.064 1.66c-.064 1.404-1.276 2.489-2.681 2.425Z"></path>
        <path fill="#000"
            d="M148.248 132.413c-2.106-1.404-4.404-2.361-6.957-1.851-.83.128-1.66.383-2.17.958-.192.255-.639.191-.639-.192.064-1.276 1.149-2.106 2.171-2.617 1.978-1.021 4.723-.829 6.51.511.638.383 2.808 2.745 1.66 3.255-.256.128-.383.064-.575-.064ZM166.503 132.732c0-2.68 3.319-3.638 5.361-2.68 1.149.51 1.979 1.531 2.298 2.744.128.383-.446.702-.702.383-1.085-1.276-2.936-1.915-4.404-1.149-.447.256-.511.447-.638.702 0 1.277-1.851 1.213-1.915 0ZM151.312 121.882c1.34.447 2.681-.766 2.425-2.234-.127-.766-.446-1.532-1.085-2.107-1.914-1.723-9.829-3.255-14.616-1.021-4.213 2.043 7.149 3.319 13.276 5.362ZM170.397 122.903c-1.086.383-2.234-.766-2.043-2.107.064-.702.319-1.404.83-1.914 1.532-1.532 6.766-2.745 10.085-.383 2.872 1.978-3.894 2.553-8.872 4.404Z"></path>
        <path fill="#000"
            d="M182.97 81.798c-15.318-4.34-16.978 3.574-32.297-4.851-15.318-8.49-43.083-2.809-48.254 16.914 0 0-8.552 5.234-9.127 23.297-.383 12.128 5.936 23.234 10.085 29.17 2.808 4.595 5.744 7.978 7.468 11.042 2.744 4.915 4.085 10.276 4.085 10.276.638-6.127 2.106-11.744 1.212-14.233l-2.106-.702c-15.957-6.128-13.085-23.936-5.298-24.957 8.17-1.021 10.724 6.255 11.17 8.042 1.085-1.34.702-5.361.447-10.148 12.766 6.318 25.531-8.043 29.808-19.149 5.298-13.723 16.978-3 16.978-3s11.553 21.638 23.808 12c10.851-8.681 8.681-29.042-7.979-33.701ZM170.014 144.094s.766 4.34 5.808 6.51c1.277.511 2.617-.319 2.617-1.723-.064 0-8.106-4.277-8.425-4.787Z"></path>
        <path fill="#000"
            d="M130.568 144.094s2.362 5.361 9.447 6.638c7.085 1.34 13.531-3.766 16.531-12.319 0 0-2.425 7.915-12.127 9.383-9.574 1.596-13.851-3.702-13.851-3.702Z"></path>
        <path stroke="#000" stroke-linecap="round" stroke-linejoin="round" stroke-miterlimit="10"
            stroke-width="0.518"
            d="M157.951 132.158c-.192 9.127-7.532 16.468-16.404 16.468s-15.957-7.341-15.957-16.468c.064-9.191 7.404-16.723 16.404-16.723 8.999 0 16.212 7.532 15.957 16.723ZM166.695 130.052c1.022-8.234 6.383-14.681 12.702-14.681 6.83 0 12.064 7.532 11.681 16.723-.383 9.127-6.128 16.468-12.83 16.468-2.489 0-4.723-.958-6.574-2.681M125.781 130.371h-9.063M158.015 130.371s7.595-2.936 8.553 0"></path>
    </g>
</svg>