<svg xmlns="http://www.w3.org/2000/svg" width="90" height="77" fill="none" viewBox="0 0 90 77"
    class="-mb-8 -ml-[46px] max-sm:-ml-[60px] max-sm:scale-50">
    <path fill="#000" stroke="#fff"
        d="m54.19 3.758-.007.003c-3.164 1.391-5.873 3.204-8.118 5.442a25.324 25.324 0 0 0-5.462 8.091c-1.403 3.078-2.103 6.387-2.103 9.92 0 2.792.466 5.448 1.401 7.967a24.492 24.492 0 0 0 3.642 7.115 25.153 25.153 0 0 0 5.746 5.586 26.63 26.63 0 0 0 6.867 3.491c-.412 2.21-1.487 4.36-3.252 6.454-2 2.355-3.946 4.293-5.839 5.82l-.595.48.679.353 19.78 10.266.304.158.257-.226c3.144-2.766 6.054-6.034 8.73-9.803a75.945 75.945 0 0 0 7.05-11.847l.002-.004a70.766 70.766 0 0 0 4.565-12.82c1.108-4.418 1.663-8.748 1.663-12.99 0-3.53-.653-6.837-1.963-9.914a25.422 25.422 0 0 0-13.59-13.542C70.86 2.453 67.543 1.802 64 1.802c-3.453 0-6.724.652-9.81 1.956Z"></path>
    <path fill="#000" stroke="#fff" stroke-width="2"
        d="m16.995 3.298-.006.002-.007.003c-3.216 1.414-5.977 3.26-8.27 5.546a25.823 25.823 0 0 0-5.567 8.244C1.713 20.237 1 23.615 1 27.215c0 2.844.475 5.556 1.429 8.13a24.989 24.989 0 0 0 3.713 7.249A25.653 25.653 0 0 0 12 48.29a27.12 27.12 0 0 0 6.577 3.412c-.446 1.965-1.45 3.898-3.055 5.803-1.983 2.335-3.908 4.25-5.77 5.753l-1.192.96 1.358.706 19.78 10.266.608.315.514-.452c3.176-2.793 6.11-6.09 8.805-9.886a76.436 76.436 0 0 0 7.095-11.923l.004-.008a71.274 71.274 0 0 0 4.598-12.91C52.439 35.87 53 31.5 53 27.214c0-3.594-.665-6.968-2.003-10.11A25.922 25.922 0 0 0 37.142 3.298C33.99 1.965 30.605 1.302 27 1.302c-3.518 0-6.855.664-10.005 1.996Z"></path>
</svg>