<svg xmlns="http://www.w3.org/2000/svg" width="141" height="147" fill="none" viewBox="0 0 141 147"
    class="z-10 mx-auto shrink-0 -mb-6 h-[80px] sm:-mb-8 sm:h-[100px] lg:-mb-20 lg:h-[150px]">
    <path fill="#000"
        d="M84.202 17.222c-4.87-1.623-7.442 2.368-8.118 4.567l-4.567 2.03-3.044 87.274c2.03 9.336 9.133 25.708 13.7 29.429 20.803 11.163 58.352 3.552 50.233-5.581-6.495-7.307-18.605-30.783-23.848-41.608-5.074-9.133 4.059-28.414 5.581-30.444 1.523-2.03 6.089-12.178-.507-14.715-5.277-2.03-11.332 7.273-13.7 12.178-2.03-2.03-1.015-30.394-1.015-32.981 0-2.538 0-7.104-4.567-7.612-3.653-.406-6.596 2.537-7.103 4.06.566-1.7.735-5.337-3.045-6.597Z"></path>
    <path fill="#000" stroke="#fff" stroke-linejoin="round"
        d="M8.714 134.629a.468.468 0 0 0-.057.089c-.72 1.44-.743 2.788-.142 4.001.587 1.183 1.734 2.17 3.217 2.998 2.967 1.657 7.505 2.795 12.51 3.512 10.02 1.435 22.19 1.212 28.105-.16.526-.122.943-.348 1.28-.705.326-.345.55-.785.746-1.287.17-.437.331-.96.515-1.554l.08-.259c.22-.71.482-1.536.842-2.499 1.435-3.841 4.445-9.927 12.53-19.225 10.26-11.8 14.074-29.954 15.344-46.4.952-12.33.478-23.802.18-30.992-.099-2.402-.178-4.326-.178-5.644 0-4.374-1.394-7.103-3.214-8.709a7.804 7.804 0 0 0-4.837-1.946c.134-1.21.121-2.255.017-3.11-.119-.979-.361-1.747-.67-2.233-.936-1.47-2.058-2.4-3.257-2.904-1.197-.503-2.438-.569-3.595-.364-1.636.288-3.143 1.125-4.177 2.092a6.284 6.284 0 0 0-.962-2.634c-.903-1.39-2.446-2.51-4.669-2.51-2.241 0-3.816 1.172-4.853 2.619a9.725 9.725 0 0 0-1.252 2.464c-.756-2.125-1.955-3.319-3.298-3.858-1.672-.673-3.432-.273-4.545.363-.715.408-1.394 1.224-1.9 2.383-.508 1.167-.857 2.714-.888 4.639l-.017 1.052c-.082 5.194-.332 21.074-.873 30.452-1.42-2.827-3.17-5.238-5.085-6.77-1.157-.926-2.397-1.548-3.678-1.722-1.291-.176-2.587.11-3.825.936-1.996 1.33-2.603 3.202-2.544 4.961.059 1.729.756 3.36 1.382 4.344 8.03 13.253 7.695 27.275 6.536 32.597-5.254 18.575-18.698 38.395-24.768 45.983Z"></path>
    <path stroke="#fff"
        d="M52.233 20.774c-.676 7.104-1.826 24.863-1.014 39.07M63.397 20.774c-1.015.508-3.044 8.728-3.044 37.549M76.082 25.849c-2.537 0-6.089 2.881-6.089 12.349s-.676 20.068-1.014 24.184M41.07 56.293c0 5.581-.913 17.455-4.566 20.296M99.932 60.352c-2.199 2.367-6.698 8.118-7.104 12.177M87.247 23.818c-.676 7.442-1.826 24.559-1.015 33.49"></path>
    <path stroke="#0067D1" stroke-linecap="round" stroke-linejoin="round" stroke-width="3"
        d="m2 50.204 6.596 1.015M7.582 72.022l5.582-2.03M11.64 84.707l5.075-3.044M121.24 2.508l-7.611 6.089M133.418 17.222l-9.133 3.552M139 49.696h-7.104M125.3 74.56l7.104 5.074M23.818 2l5.074 8.118M8.596 25.34l7.61 4.06"></path>
</svg>