<svg xmlns="http://www.w3.org/2000/svg" width="64" height="64" fill="none" viewBox="0 0 64 64"
    class="shrink-0 max-sm:h-[36px] max-sm:w-[36px] sm:h-[56px] sm:w-[56px]">
    <g clip-path="url(#clip0_849_2718)">
        <rect width="56" height="56" x="4" y="4" fill="url(#paint0_linear_849_2718)" rx="28"
            shape-rendering="crispEdges"></rect>
        <path fill="#000"
            d="M53.97 35.684c0 .866 0 1.298-.139 1.673-.122.332-.321.63-.581.87-.294.27-.694.435-1.494.765l-9.874 4.07c-2.389.986-3.584 1.478-3.754 1.937-.146.395-.058.838.227 1.147.333.36 1.625.36 4.209.36h7.828c1.253 0 1.879 0 2.357.243.421.214.763.556.977.977.244.479.244 1.105.244 2.357v6.804c0 1.252 0 1.879-.244 2.357-.214.42-.556.763-.977.977-.478.244-1.104.244-2.357.244H.578c-1.253 0-1.879 0-2.357-.244a2.235 2.235 0 0 1-.977-.977C-3 58.766-3 58.139-3 56.887V39.714c0-3.605.831-6.686 2.494-9.243 1.61-2.558 3.836-4.465 6.68-5.723 2.789-1.3 5.954-1.949 9.494-1.949 3.809 0 7.189.839 10.139 2.515 2.404 1.332 4.256 3.152 5.556 5.458.352.624.528.936.733 1.082.196.138.378.198.618.204.251.006.542-.123 1.125-.382l20.131-8.94v12.948Z"></path>
        <path fill="#fff"
            d="M16.795 46.293a4.828 4.828 0 0 0 4.828-4.828v-.705c0-1.342-.376-2.348-1.127-3.019-.804-.67-2.038-1.006-3.701-1.006-1.502 0-2.682.357-3.54 1.07-.86.67-1.288 1.655-1.288 2.955v.705a4.828 4.828 0 0 0 4.828 4.828Z"></path>
        <path fill="#000" d="M53.97 23.49a5.66 5.66 0 1 1-11.319.001 5.66 5.66 0 0 1 11.319 0Z"></path>
        <path fill="#fff" d="M50.197 23.49a1.886 1.886 0 1 1-3.773 0 1.886 1.886 0 0 1 3.773 0Z"></path>
        <path fill="#000"
            d="M16.175 40.143c.86 0 1.398.932.968 1.677l-2.328 4.033a1.118 1.118 0 0 1-1.937 0L10.55 41.82a1.118 1.118 0 0 1 .968-1.677h4.657ZM52.308 50.75c.86 0 1.398-.93.968-1.676l-2.328-4.033a1.118 1.118 0 0 0-1.937 0l-2.328 4.033c-.43.745.108 1.677.969 1.677h4.656Z"></path>
        <path fill="#000"
            d="M45.873 50.75c.86 0 1.398-.93.968-1.676l-2.328-4.033a1.118 1.118 0 0 0-1.936 0l-2.329 4.033c-.43.745.108 1.677.969 1.677h4.656Z"></path>
    </g>
    <rect width="55" height="55" x="4.5" y="4.5" stroke="#DEE6F2" rx="27.5"
        shape-rendering="crispEdges"></rect>
    <defs>
        <linearGradient id="paint0_linear_849_2718" x1="32" x2="32" y1="4" y2="60"
            gradientUnits="userSpaceOnUse">
            <stop stop-color="#45E8B7"></stop>
            <stop offset="1" stop-color="#45E8B7" stop-opacity="0"></stop>
        </linearGradient>
        <clipPath id="clip0_849_2718">
            <rect width="56" height="56" x="4" y="4" fill="#fff" rx="28"></rect>
        </clipPath>
    </defs>
</svg>