<svg xmlns="http://www.w3.org/2000/svg" width="32" height="33" fill="#888" viewBox="0 0 32 33">
    <path 
        d="M16 3.167c7.364 0 13.333 5.969 13.333 13.333S23.364 29.833 16 29.833 2.667 23.864 2.667 16.5 8.637 3.167 16 3.167Zm0 2.666a10.667 10.667 0 1 0 0 21.334 10.667 10.667 0 0 0 0-21.334Zm3.733 13.143A1.332 1.332 0 1 1 21.6 20.88a7.979 7.979 0 0 1-5.6 2.287 7.979 7.979 0 0 1-5.6-2.287 1.333 1.333 0 0 1 1.867-1.904A5.312 5.312 0 0 0 16 20.5c1.453 0 2.77-.58 3.733-1.524Zm-8.4-7.81a2 2 0 1 1 0 4 2 2 0 0 1 0-4Zm9.334 0a2 2 0 1 1 0 4 2 2 0 0 1 0-4Z">
    </path>
</svg>