<svg xmlns="http://www.w3.org/2000/svg" width="99" height="99" fill="#0067D1" viewBox="0 0 99 99">
    <path
        d="M70.125 26.524C61.875 20.13 51.398 19.76 41.25 22.4a26.647 26.647 0 0 0-21.202 19.883c-1.857 6.765-2.393 17.036 2.433 22.935a27.225 27.225 0 0 0 11.963 7.507c4.867 1.238 2.062-2.062 2.722 7.26.061 2.045.628 4.044 1.65 5.816.95 1.444 3.507 1.733 5.198 1.815a10.353 10.353 0 0 0 .412 7.92 1.402 1.402 0 1 0 2.764 0 10.684 10.684 0 0 0 .619-6.228l-.578-1.65c2.71.067 5.401-.469 7.88-1.568 2.144-2.021 1.938-10.477 1.855-13.736 21.41-1.155 29.247-33.041 13.16-45.829ZM74.25 50.78a22.565 22.565 0 0 1-3.176 9.158c-8.25 12.375-15.51 8.002-16.5 10.683-1.031.578-.413.743-1.444 7.384s.413 4.496-3.424 4.785c-9.075.743-8.25.743-9.322-3.341 0-.619-.454 0 4.537 0a23.552 23.552 0 0 0 6.93-1.485c.27.078.556.078.825 0a1.733 1.733 0 0 0-1.32-2.723 14.231 14.231 0 0 0-10.56 1.238c-.412.206-.742.289-.825.371 0-1.732-.288-3.3-.33-4.125a1.196 1.196 0 0 0 0-1.361c-.7-1.031-2.02-.206-4.826-.99a25.74 25.74 0 0 1-9.199-5.734c-1.83-1.907-3-4.35-3.34-6.971a33 33 0 0 1 1.32-14.149c2.64-8.25 7.672-13.736 18.52-16.5 19.76-5.074 35.104 4.084 32.134 23.76Z"
        clip-rule="evenodd"></path>
    <path
        d="M61.009 40.714c-4.125-2.929-8.539.248-9.983 4.538a25.657 25.657 0 0 0-1.36 9.075 12.006 12.006 0 0 1-3.878 1.154c.199-2.838.06-5.69-.413-8.497A7.883 7.883 0 0 0 29.7 48.675c0 5.899 6.724 10.602 12.623 11.427l-.454 8.25a1.212 1.212 0 0 0 2.23.814 1.21 1.21 0 0 0 .163-.443l.866-8.25a15.632 15.632 0 0 0 4.909-1.073l.66 7.797a1.403 1.403 0 0 0 2.763 0l-.33-9.447c6.188-4.125 13.778-12.705 7.879-17.036Zm-26.73 7.961c0-6.393 6.765-5.28 7.755-.99.548 2.533.77 5.125.66 7.714-3.465-.578-8.374-3.547-8.415-6.724ZM53.048 52.1c.24-1.933.712-3.83 1.402-5.651.66-1.691 2.599-3.713 4.125-2.517 1.526 1.197-3.382 6.477-5.527 8.168ZM14.066 49.871a18.522 18.522 0 0 0-8.786 0A25.907 25.907 0 0 0 .29 51.728c-.619.783 0 1.32.371 1.773 2.793.69 5.696.816 8.539.372 1.691-.33 3.217-1.032 4.867-1.32a1.402 1.402 0 0 0 0-2.682ZM16.046 24.75c-3.3-1.691-11.962-6.765-12.375-3.712-.454 3.712 7.673 5.774 11.426 6.352a1.403 1.403 0 0 0 .95-2.64ZM43.106 15.304c.454.536.866.866 1.361.784a1.403 1.403 0 0 0 1.362-1.403c0-2.64 0-10.89-2.434-12.375-2.434-1.485-1.856 11.303-.289 12.994ZM87.945 13.613a1.402 1.402 0 0 0-1.32-1.238c-1.485-.248-8.25 6.765-9.694 10.189-.619.948 0 2.516 2.021 1.402a19.223 19.223 0 0 0 8.993-10.354ZM98.34 48.51a38.767 38.767 0 0 0-7.095-.289c-1.08.201-2.143.491-3.176.867-4.827 1.526-4.125 1.237-4.373 1.98-.247.742 0 1.196 1.031 1.608 2.391.389 4.829.389 7.22 0 .33 0 7.507-1.567 7.012-3.34.04-.125.04-.62-.62-.826Z"
        clip-rule="evenodd"></path>
</svg>