<svg xmlns="http://www.w3.org/2000/svg" width="91" height="91" fill="#0067D1" viewBox="0 0 91 91"
    class="hidden sm:block sm:h-[64px] lg:h-[78px] text-[#0067D] opacity-20">
    <path
        d="M12.133 26.049a1.478 1.478 0 0 0-.455-2.01c-1.365-1.1-2.692-2.123-3.791-3.299a17.172 17.172 0 0 1-2.048-2.35l-.455-.493 3.11-2.465c2.199-1.82 4.246-3.792 6.256-5.763a1.327 1.327 0 0 0 .19-1.82 1.25 1.25 0 0 0-1.783 0c-2.768 1.706-5.725 3.071-8.493 4.853-1.327.569-2.465 1.479-3.602 2.465a2.843 2.843 0 0 0-.872 3.26A12.437 12.437 0 0 0 2.313 21.5a20.285 20.285 0 0 0 3.071 2.389c1.517.985 3.11 1.82 4.74 2.692a1.479 1.479 0 0 0 2.01-.531ZM21.309 29.386a1.516 1.516 0 0 0 1.858-.948c1.251-2.92 2.578-5.764 3.792-8.759.492-1.251.985-2.502 1.402-3.792.418-1.289.835-2.578 1.176-3.791.796-3.072 1.365-6.143 2.123-9.252a1.252 1.252 0 0 0-.796-1.706 1.251 1.251 0 0 0-1.63.758c-1.441 2.844-2.92 5.65-4.171 8.645-.531 1.251-.986 2.54-1.403 3.792-.417 1.251-.759 2.578-1.1 3.791-.796 3.072-1.403 6.18-2.161 9.252a1.518 1.518 0 0 0 .91 2.01ZM35.3 26.921c2.882-1.365 9.745-4.095 12.589-5.611.557-.299 1.09-.641 1.592-1.024a2.502 2.502 0 0 0 .834-2.237 5.725 5.725 0 0 0-2.426-3.11 60.938 60.938 0 0 0-7.963-4.474L37.12 9.404a1.25 1.25 0 0 0-1.668.644 1.25 1.25 0 0 0 .607 1.668l2.426 1.517c.417.266 3.489 2.768 5.65 4.702-3.033 1.896-8 4.967-10.276 6.484a1.441 1.441 0 0 0-.53 2.123 1.44 1.44 0 0 0 1.971.38ZM87.208 84.554c-12.247.38-22.75-.19-34.125 0-2.805 0-5.687 0-8.645.304-6.025.307-12.061.307-18.086 0a82.771 82.771 0 0 1-10.162-1.062c0-2.427-.227-6.446-.227-6.825-.38-7.09-1.175-18.958-1.555-29.272V35.225a1.25 1.25 0 0 0-1.289-1.1 1.213 1.213 0 0 0-1.365 1.176c-.379 4.208-.379 10.2-.379 16.759V85.35a3.336 3.336 0 0 0 2.047 2.957 75.15 75.15 0 0 0 12.589 1.555c6.21.189 12.426.024 18.617-.493 4.436-.417 8.645-.645 12.74-.796 9.896-.38 19.262-.38 29.992-1.1a1.44 1.44 0 0 0 1.365-1.517 1.479 1.479 0 0 0-1.517-1.403Z"
        clip-rule="evenodd"></path>
    <path
        d="M90.317 35.831a43.646 43.646 0 0 0-1.137-10.844 12.361 12.361 0 0 0-4.664-6.9 10.275 10.275 0 0 0-4.891-1.631 50.519 50.519 0 0 0-6.37 0c-4.133 0-8.114 0-12.171.265a69.174 69.174 0 0 0-8.228.759 1.29 1.29 0 0 0-1.062 1.479 1.25 1.25 0 0 0 1.44 1.061 68.817 68.817 0 0 1 7.888-.265c4.019 0 8 .493 12.133.644a43.112 43.112 0 0 1 5.801.228c.985.12 1.924.484 2.73 1.062A7.849 7.849 0 0 1 84.44 26.2c.154.713.268 1.435.342 2.16H70.184c-3.792 0-7.584 0-11.375.266-7.28.38-14.105 1.1-18.731 1.327a1.29 1.29 0 1 0 0 2.54c4.133.342 10.086.797 16.531.949h7.09c2.39 0 4.74-.228 7.053-.38a215.165 215.165 0 0 0 14.37-1.592v4.436c.608 10.01 1.442 20.134 1.972 30.334.228 4.322.418 8.607.456 12.93a1.44 1.44 0 0 0 1.44 1.44 1.403 1.403 0 0 0 1.48-1.403c.227-5.763.264-11.602 0-17.404.53-8.72 0-17.366-.153-25.973ZM24.722 43.111h-.38a1.289 1.289 0 0 0-1.137 1.403c0 4.02-.303 7.963-.303 11.982 0 2.389 0 4.74.303 7.128 0 3.564.493 7.128.569 10.693a1.44 1.44 0 0 0 1.289 1.516 1.401 1.401 0 0 0 .986.57l5.99.302a21.085 21.085 0 0 0 7.318-1.364 6.522 6.522 0 0 0 3.148-2.768c.176-.427.303-.872.379-1.327.05-1.011.05-2.023 0-3.034.19-1.592.265-3.147.303-4.74v-6.9c0-2.313 0-3.792-.19-5.65a23.252 23.252 0 0 0-.644-4.057 11.985 11.985 0 0 0-.796-2.54 4.134 4.134 0 0 0-1.138-1.555 3.11 3.11 0 0 0-1.82-.569c-.91 0-2.427.19-2.806.19l-10.465.645c-.227-.152-.417 0-.606.075Zm13.308 3.261v1.29c.153 1.118.229 2.245.228 3.374v5.574l.265 11.147v2.882a4.095 4.095 0 0 1-2.54 1.668c-1.39.46-2.827.766-4.285.91h-5.08c.454-3.185.872-6.37 1.023-9.593v-4.55a45.838 45.838 0 0 0-.303-4.588c-.114-2.92-.796-5.953-1.365-8.986l9.706.455c.73.22 1.48.359 2.238.417h.113Z"
        clip-rule="evenodd"></path>
    <path
        d="m81.52 48.192-.416-2.692-.455-1.44a4.436 4.436 0 0 0-3.261-2.769c-1.7-.21-3.42-.21-5.119 0l-7.81.417-13.006.834a1.138 1.138 0 0 0-1.214 1.024c-.133.165-.225.36-.265.569-.19 1.479-.417 2.882-.53 4.323a26.21 26.21 0 0 0 0 2.995c.005.845.172 1.682.492 2.464.215.506.554.95.986 1.29.243.192.53.322.834.379.593.046 1.19.046 1.782 0l5.005.455c1.593 0 3.147 0 4.74.227h6.977a31.62 31.62 0 0 0 6.256-.682c1.499-.335 2.925-.939 4.209-1.782.49-.363.84-.886.985-1.479a20.4 20.4 0 0 0-.19-4.133Zm-6.559 3.792a27.72 27.72 0 0 1-5.005.569c-2.275 0-4.512.265-6.787.34h-4.436l-4.93-.227h-.682a1.664 1.664 0 0 0 0-.19 5.991 5.991 0 0 1-.265-1.288c-.057-.91-.057-1.821 0-2.73v-4.02H72.42c1.099-.055 2.2-.055 3.298 0 .304 0 .342.266.493.645l.266 1.062.227 2.313c0 2.085 2.162 2.578-1.744 3.564v-.038ZM81.52 68.668l-.416-2.882-.455-1.327a4.55 4.55 0 0 0-3.261-2.806 19.298 19.298 0 0 0-5.119 0l-7.81.417-13.006.796c-.683 0-1.251.493-1.214 1.024a.987.987 0 0 0-.265.569c-.19 1.44-.417 2.881-.53 4.284a26.303 26.303 0 0 0 0 2.996c.005.845.172 1.682.492 2.464.215.506.554.95.986 1.29.248.191.532.333.834.416.594.03 1.189.03 1.782 0l5.005.456c1.593 0 3.147 0 4.74.227h6.977a31.547 31.547 0 0 0 6.256-.644 12.78 12.78 0 0 0 4.209-1.82c.49-.347.84-.858.985-1.441.07-1.343.007-2.69-.19-4.02Zm-6.559 3.791a24.76 24.76 0 0 1-5.005.607c-2.275 0-4.512.265-6.787.303h-4.436l-4.93-.19h-.682v-.189a5.99 5.99 0 0 1-.265-1.29 21.903 21.903 0 0 1 0-2.691v-4.057h22.863c.304 0 .342.303.494.644l.265 1.062.227 2.313c0 2.01 2.162 2.502-1.744 3.488Z"
        clip-rule="evenodd"></path>
</svg>