<svg xmlns="http://www.w3.org/2000/svg" width="32" height="33" fill="#888"
    viewBox="0 0 32 33">
    <path fill-rule="evenodd"
        d="M16 3.167a12 12 0 0 1 12 12c0 4.098-2.235 7.453-4.59 9.86a27.255 27.255 0 0 1-3.834 3.221l-.568.387-.267.177-.502.32-.448.273-.555.323a2.499 2.499 0 0 1-2.472 0l-.555-.323-.693-.426-.256-.167-.547-.364a27.512 27.512 0 0 1-4.124-3.421C6.235 22.617 4 19.265 4 15.167a12 12 0 0 1 12-12Zm0 2.666a9.333 9.333 0 0 0-9.333 9.334c0 3.096 1.696 5.813 3.828 7.994.917.928 1.907 1.78 2.962 2.547l.611.435c.197.137.387.265.57.384l.52.333.457.279.385.225.607-.359.489-.306c.26-.166.54-.351.836-.556l.61-.435a24.042 24.042 0 0 0 2.963-2.547c2.132-2.18 3.828-4.898 3.828-7.994A9.333 9.333 0 0 0 16 5.833Zm0 4A5.333 5.333 0 1 1 16 20.5a5.333 5.333 0 0 1 0-10.667Zm0 2.667a2.667 2.667 0 1 0 0 5.333 2.667 2.667 0 0 0 0-5.333Z"
        clip-rule="evenodd"></path>
</svg>