<svg xmlns="http://www.w3.org/2000/svg" width="306" height="442" fill="none"
viewBox="0 0 306 442">
<path fill="#fff"
     d="M1 329.501c-2 18.4 14.166 82 22.5 111.5l195.5.499c5.167 1 18.2-1.6 29-20 13.5-23 26-32 44-45.5s5-64 5-73.5c0-7.6 6-20.5 9-26-9.5-24.333-29.2-77.7-32-96.5-2.8-18.8-16.5-23.5-23-23.5 21.5-18-30-62.5-32.5-84.5-2-17.6-21.167-44-30.5-55-17.833-14.333-59.7-32.3-84.5 10.5C78.7 70.3 64.833 138.668 61 167.502c-11.6.8-20.167 7.333-23 10.5-23.6 59.6-19.5 108.166-14.5 125-6.667 1.166-20.5 8.1-22.5 26.5Z">
</path>
<path fill="#007EFF" fill-opacity="0.33"
     d="M188.438 117.528c-.639-1.986-1.272-3.979-1.911-5.965 2.02.655 2.027-.742 1.824-1.978-.305-1.906-.909-3.769-1.257-5.667-2.166-11.857-3.053-23.976-7.21-35.44-.226-.625.021-1.44.959-1.964.923 1.033 1.737 2.255 2.827 3.113 1.694 1.332 3.918 1.754 5.749.859 2.137-1.048.684-3.085.204-4.51-1.308-3.9-2.936-7.682-4.376-11.537-.559-1.491-1.62-2.932-1.053-4.772 1.86.371 2.98 1.63 3.83 2.822 5.393 7.587 11.193 14.89 15.932 22.95 4.208 7.151 6.003 15.298 9.645 22.667 4.935 9.973 8.99 20.331 13.133 30.639.327.822 1.388 1.971.298 2.568-1.374.756-1.672-.932-2.246-1.724-4.426-6.045-8.794-12.134-13.257-18.157-.647-.88-1.192-2.568-2.638-1.92-1.09.487-.531 1.964-.451 3.004.654 8.7 1.112 17.407.8 26.129-.364 9.922-2.203 19.437-7.973 27.846-1.294 1.884-2.29 3.986-3.271 6.059-.596 1.258-1.032 2.706 1.286 2.691-2.798 4.074-6.417 7.456-9.521 11.29-6.294 7.769-10.779 16.578-15.816 25.089-4.789 8.096-9.579 16.177-15.037 23.874-3.903 5.499-7.08 11.515-10.597 17.29-.48.786-.807 2.132-1.956 1.761-1.38-.444-.843-1.819-.632-2.83 2.798-13.486 5.539-26.987 8.482-40.437 1.774-8.096 2.144-16.287 2.348-24.514.356.051.843.276 1.046.116 4.499-3.404 9.791-5.579 13.89-9.704 1.751-1.76 2.282-3.579 2.631-5.543.276-1.585-.262-3.244-2.747-1.898-1.977 1.069-3.838 2.589-6.287 2.575 1.599-1.513 3.205-3.026 4.804-4.539.639-.357 1.286-.713 1.926-1.07 1.105-.458 2.348-.727 3.292-1.411 5.749-4.139 11.448-8.365 17.146-12.584 2.885-2.139 4.23-4.794 4.23-8.62-.007-5.739-2.079-10.831-3.758-16.09.226-1.164.531-2.314.655-3.485.407-3.586-1.36-6.03-4.943-6.983Zm-13.46 50.388-.16.226.261.036-.101-.262ZM280.533 294.334c-1.577 6.794 3.365 11.741 4.971 17.633 1.243 4.575 1.301 9.209 1.432 13.944.182 6.605-1.126 12.956-1.722 19.43-.625 6.852-3.918 12.657-7.269 18.396-1.359 2.335-3.605 3.884-6.316 4.605-4.491 1.193-7.609 4.219-10.902 7.383-9.935 9.551-16.92 21.459-25.998 31.664-1.839 2.066-3.176 4.525-5.051 6.62-6.782 7.594-15.54 8.656-24.901 7.82-1.672-.153-2.624-1.361-3.576-2.75-4.521-6.619-9.5-12.919-16.477-17.109-3.918-2.349-8.082-4.284-11.956-6.743-1.832-1.164-2.13-2.022-1.279-4.023 4.295-10.111 11.941-13.362 24.123-10.227 5.64 1.447 11.367 2.379 17.196.953 3.176-.779 5.575-2.35 6.062-5.885.254-1.833 1.214-2.815 3.111-2.866 7.362-.211 14.609-1.862 22.044-1.549 6.672.283 11.026-5.791 9.325-12.461-1.73-6.787-6.956-10.548-12.385-13.974-3.038-1.92-6.585-2.975-9.042-5.877-2.943-3.47-2.551-7.049 1.294-9.501 1.018-.647 2.101-1.192 3.191-1.723 4.31-2.095 5.415-1.448 6.723 3.229.807 2.895 1.919 5.674 2.391 8.693.393 2.539 2.675 3.695 4.921 4.35 5.901 1.717 11.861 3.237 17.778 4.925 3.074.88 4.44.32 5.64-3.208 2.442-7.187 3.576-14.534 4.63-21.954.683-4.808.399-5.165-4.427-5.557.814-1.157 2.115-1.513 3.322-1.994 4.739-1.898 5.146-3.084 3.379-7.841-1.751-4.721-1.708-9.573-.232-14.403Z">
</path>
<path fill="#0067D1"
     d="M199.297 175.248c-2.319.015-1.89-1.433-1.287-2.691.982-2.074 1.977-4.176 3.271-6.06 5.778-8.409 7.617-17.923 7.973-27.845.32-8.722-.145-17.429-.799-26.129-.08-1.04-.632-2.517.45-3.005 1.447-.647 1.985 1.048 2.639 1.921 4.455 6.023 8.831 12.111 13.257 18.156.581.793.879 2.481 2.246 1.724 1.083-.596.029-1.753-.298-2.568-4.15-10.314-8.199-20.666-13.134-30.639-3.648-7.368-5.436-15.508-9.645-22.666-4.738-8.06-10.538-15.363-15.931-22.95-.851-1.2-1.97-2.451-3.831-2.822-.567 1.84.494 3.273 1.054 4.772 1.439 3.855 3.067 7.645 4.376 11.536.479 1.426 1.933 3.47-.204 4.51-1.832.895-4.056.473-5.749-.858-1.098-.866-1.912-2.08-2.827-3.113-.945.53-1.185 1.345-.96 1.964 4.158 11.457 5.044 23.575 7.21 35.44.349 1.905.952 3.76 1.258 5.666.196 1.23.189 2.633-1.825 1.979-.24-.582-.479-1.171-.719-1.753-.044-.931-.218-1.804-.931-2.481l.08-.16-.145-.116c.095-.575-.087-1.026-.603-1.324-3.736-12.432-10.074-23.663-16.136-35.025-1.875-3.521-4.201-6.867-5.552-10.577-2.828-7.74-7.93-13.028-15.271-16.512-.988-.473-3.561-.328-2.733-2.874l3.104.066a.624.624 0 0 0 .625.16c.291.08.581.16.872.233l1.512.37c.254.539.69.779 1.279.779.356.196.705.393 1.061.59.247.545.676.8 1.265.821.276.211.559.422.836.633.21.16.429.313.639.473a.816.816 0 0 0 .596.37c.865 1.245 2.203 1.746 3.547 2.241l.182-.014-.255-.008c.72-2.858-.697-4.895-2.587-6.75l-.567-.786c-.058-.61-.327-1.062-.93-1.28-.218-.255-.436-.517-.662-.771l-.654-.895.073.102c-.036-.618-.247-1.142-.821-1.455l.014.022-.632-1.848.051-.174-.146-.117c.255-1.658.509-3.324.763-4.982.219-.27.437-.546.655-.815.378-.19.755-.371 1.133-.56l.255-.102c.429-.175.865-.35 1.301-.524l.145-.029c1.926-.102 3.852-.196 5.786-.298.312.123.632.247.945.364 1.991 1.192 4.208 1.229 6.984 1.716-.974-2-2.1-2.895-3.554-3.477l-.828-.676c-.204-.626-.662-.895-1.294-.902l.058.029c-.363-.575-.916-.764-1.563-.735l-.232-.13c-1.534-1.528-3.474-2.14-5.546-2.46l-1.454-.24c-3.91-1.04-7.82-1.047-11.723 0-2.406.75-4.586 2.226-7.21 2.285-.676-.248-1.141.043-1.49.603l.043-.022c-.377.219-.763.43-1.141.648-.16-.051-.269 0-.312.167-2.835 1.004-4.31 3.426-5.924 5.696l.066-.044-.807.808.08-.08c-.262.269-.531.538-.792.807l.051-.073c-3.111 3.47-6.2 6.954-9.333 10.402-2.398 2.641-5.487 4.663-7.115 7.995l-.08.116c-.56.226-.894.618-.931 1.237l-1.482 1.898-.676 1.004.022-.036c-.669.313-.996.873-1.098 1.578a.678.678 0 0 0-.334.611c-2.014 1.819-3.009 4.278-4.165 6.627-4.39 8.911-7.16 18.404-9.521 27.984-2.907 11.806-7.61 23.045-10.517 34.836-2.784 11.29-3.83 22.87-5.822 34.298-.48 2.771.422 4.735 2.617 6.605 2.798 2.379 6.061 3.957 9.005 6.059.668.473 1.562 1.084 1.257 2.008-.4 1.215-1.468.466-2.18.342-2.966-.509-6.011-.611-8.853-1.739l.015.008c-.524-1.099-1.418-1.652-2.595-1.819l-.037-.036c-4.63-5.187-4.273-11.115-2.587-17.247.625-2.285 1.54-4.547.785-6.991l.087-1.353c2.13-1.746 1.44-4.43 2.13-6.641 6.098-19.401 10.066-39.375 15.684-58.907.059-.247.124-.494.182-.742 1.643-4.284 3.365-8.518 4.688-12.948 1.585-5.288 4.717-9.95 7.806-14.54l-.007.014c2.427-2.56 3.968-5.725 5.873-8.642l.545-.917c1.235-1.273 2.5-2.517 3.009-4.299l-.015.022c3.656-4.35 7.312-8.693 10.968-13.042l-.022.021c1.933-1.469 3.867-2.946 5.807-4.415l-.036.022c9.47-2.67 18.904-5.761 28.935-2.932l-.03-.014c1.549 1.033 3.278 1.396 5.103 1.44h.007c.814.72 1.781.895 2.827.757l.109.043c.226.095.451.19.676.277 12.647 9.703 25.722 18.869 31.573 34.901 2.922 8.01 4.419 16.505 8.439 24.129 3.641 6.91 7.493 13.733 10.677 20.855 6.214 13.886 11.083 28.275 14.5 43.114.705 3.077.726 6.343-.03 9.376-1.09 4.379-5.276 5.863-8.634 8.024-.785.509-1.788.684-2.697 1.011-.479.08-.959.167-1.439.247-.596.16-1.192.32-1.788.473 1.076-2.248 1.97-3.07 5.524-4.99-5.931 1.047-9.994 4.561-13.686 8.671-1.01.465-1.795 1.2-2.391 2.131-1.665.735-2.784 2.059-3.78 3.514l.073-.044c-.48.051-.77.305-.843.786l.095-.11-.873.852c-1.395.683-2.594 1.578-3.452 2.88Z">
</path>
<path fill="#007EFF" fill-opacity="0.33"
     d="M78.1 172.281c2.842 1.127 5.887 1.236 8.853 1.738.72.124 1.788.873 2.18-.342.305-.931-.589-1.535-1.257-2.007-2.944-2.103-6.207-3.681-9.005-6.06-2.203-1.869-3.097-3.833-2.617-6.605 1.984-11.42 3.038-23.008 5.822-34.298 2.907-11.791 7.61-23.03 10.517-34.836 2.362-9.58 5.131-19.073 9.521-27.983 1.156-2.35 2.159-4.809 4.165-6.627-.138 3.462-2.639 5.892-3.845 8.874-.647 1.6-2.355 3.695-.981 4.968 1.388 1.288 2.863-1.003 4.244-1.782 1.672-.945 3.184-2.167 4.805-3.215 1.177-.764 2.522-1.105 3.728-.218 1.098.807.574 1.993.233 3.004-3.147 9.398-4.383 19.233-6.607 28.835-1.25 5.39-3.14 10.635-4.354 16.025-.945 4.205-1.7 8.489-2.318 12.737-.96 6.525-4.368 12.301-5.233 18.702-.807 5.987-.233 12.054 3.11 17.436 1.498 2.408 3.489 4.314 6.229 5.303.313 3.805.56 7.609.967 11.406.254 2.408-.545 2.866-2.602 1.782a30.728 30.728 0 0 0-3.598-1.593c-.64-.232-1.49-.465-1.81.48-.247.721.473 1.012.916 1.368 1.381 1.106 3.307 1.448 4.347 3.055-1.941.408-3.46-.596-5.074-1.433-5.37-2.779-10.982-4.888-16.92-6.117-1.534-.299-3.227-.51-3.416-2.597ZM44.252 318.579c3.264.531 6.193 2.815 8.366 6.22 1.999 3.135 1.831 6.139-.48 9.063-2.318 2.939-4.383 6.111-6.94 8.831-2.923 3.106-4.536 6.583-4.21 10.773 1.127 14.578-.268 29.264 2.036 43.791.407 2.56-.036 4.932-2.711 6.11-2.515 1.106-4.325 1.055-5.626-2.189-2.892-7.187-4.688-14.745-7.784-21.874-1.352-3.106-.88-6.816-1.89-10.227-2.398-8.104-4.513-16.28-8.067-23.998-2.58-5.594-.393-10.693 2.442-15.327 1.897-3.077 20.372-11.1 24.864-11.173ZM61.652 196.03c.64 2.764 2.384 2.073 4.187 1.39 1.075-.408 2.434-1.528 3.292-.306.923 1.317-.625 2.153-1.526 2.815-4.776 3.485-5.793 7.122-3.518 13.21 4.005 10.708 7.166 21.837 8.148 33.374.174 2.073 3.03 4.11.9 5.9-1.351 1.134-3.917.749-5.88 1.258-5.24 1.353-10.414 2.641-14.797 6.307-4.768 3.993-6.469 9.594-8.475 14.919-1.766 4.67-5.48 7.951-7.435 12.381-.24.538-.756 1.033-1.454.669-.763-.4-.734-1.208-.727-1.913.03-4.474.008-8.955.175-13.421.29-7.66 3.3-14.694 5.095-22.019 1.235-5.041 3.794-9.66 4.375-14.89.175-1.557.066-2.597-1.475-3.179 1.192-6.627 5.044-12.235 7.115-18.527.378-1.143.647-2.968 2.34-2.765 1.476.175 1.672 1.855 2.138 3.077.988 2.59 1.104 5.521 3.241 8.693-.356-7.216-.647-13.486-.988-19.757-.262-4.386.785-5.863 5.27-7.216Z">
</path>
<path fill="#0067D1"
     d="M254.513 236.432c-.218.96-.429 1.92-.647 2.88-1.148 2.975.08 6.641-2.645 9.82-.465-2.247-.8-3.855-1.134-5.463l-.153-1.404c.037-.72.153-1.447.095-2.16-.829-9.005-1.134-18.084-1.396-27.082-.29-10.082 1.439-20.244 3.249-30.246.393-2.168.146-3.535-1.664-4.99-4.485-3.623-9.434-6.321-14.893-7.994-5.24-1.601-9.95-5.972-16.077-3.332 3.685-4.277 7.842-5.245 13.09-2.604 7.653 3.855 15.765 6.656 23.869 9.413 2.049.698 3.314 1.76 3.249 4.124-.059 1.957.617 3.768 1.381 5.572 3.663 8.642 4.099 18.084 6.664 27.002 1.069 3.703 1.367 7.602 2.944 11.166.058.487.124.975.182 1.462-.16.982-.073 1.928.363 2.83-.356 5.186 1.81 9.878 3.046 14.73.494 1.957-.022 4.495 2.238 5.827.153.465.313.931.465 1.403.407 3.929.72 7.878 1.825 11.697.298 1.026.959 2.372-.24 2.91-1.272.575-1.788-.938-2.282-1.811-4.398-7.762-8.73-15.552-13.09-23.336-2.145-3.819-2.864-8.329-5.866-12.526-1.294 4.386-2.166 8.191-2.573 12.112Z">
</path>
<path fill="#007EFF" fill-opacity="0.33"
     d="M214.763 240.81c-2.042.16-3.401-1.564-4.281-3.644-2.907-6.86-7.828-12.475-11.484-18.862-1.795-3.143-3.481-6.358-4.971-9.653-1.025-2.262-.022-4.321 1.694-5.87 2.783-2.51 5.698-4.874 8.54-7.318 1.097-.938 2.398-1.622 3.612-.669 2.66 2.08 5.829 3.644 7.82 6.401 1.352 1.869 2.973 3.07 4.95 4.059 8.569 4.306 9.405 7.238 5.371 16.185-2.122 4.706-4.448 9.369-5.131 14.65-.378 2.924-2.297 4.75-6.12 4.721Z">
</path>
<path fill="#007EFF" fill-opacity="0.33"
     d="M219.248 166.461c6.127-2.641 10.837 1.724 16.077 3.331 5.458 1.673 10.408 4.372 14.892 7.994 1.81 1.463 2.057 2.823 1.665 4.991-1.81 10.002-3.54 20.171-3.249 30.246.262 8.998.567 18.076 1.395 27.081.066.713-.058 1.441-.094 2.161-1.781-1.164-1.265-3.012-1.301-4.634-.262-10.758-1.061-21.48-2.137-32.188-.298-2.953-1.548-5.128-3.765-7.121-7.9-7.1-16.041-14.003-21.986-22.98-1.345-2.029-2.798-2.466-4.826-1.054a167.57 167.57 0 0 1-6.65 4.415c-.851.531-1.847 1.899-2.799.917-1.09-1.128.306-2.234.967-3.114 3.176-4.226 7.45-7.194 11.811-10.045Z">
</path>
<path fill="#0067D1"
     d="M61.652 196.03c-4.477 1.353-5.524 2.83-5.284 7.202.349 6.27.632 12.54.988 19.756-2.144-3.171-2.26-6.103-3.241-8.692-.465-1.222-.662-2.903-2.137-3.077-1.694-.204-1.97 1.615-2.34 2.764-2.072 6.292-5.924 11.901-7.116 18.527-.08.197-.153.386-.233.582-.77.408-.98 1.077-.886 1.892l.029.116c-.502.349-.669.837-.56 1.426 0 0-.029.203-.036.203-2.435 4.19-4.15 8.649-5.204 13.378-.45.094-.887.203-.298.734-1.352-2.989 1.075-5.724.581-8.663.102-.422.211-.844.313-1.266.48-.451.647-.996.465-1.637l.153-.109-.088-.16c1.432-5.092 3.598-9.98 4.114-15.312.102-.48.196-.967.298-1.447 1.744-3.79 2.399-7.857 3.067-11.923l.153-.145-.087-.189c.96-1.193 1.41-2.568 1.395-4.096l.087-.24c.582-.502.77-1.12.59-1.862.094-.284.18-.56.275-.844 1.607-1.564 2.057-3.542 1.534-5.594-.814-3.179.785-4.99 3.198-6.488.8-.495 1.592-.997 2.391-1.492 0 0 .153-.08.16-.08.596.03 1.047-.181 1.308-.742 1.047.073 1.817-.501 2.559-1.127 1.897-.102 3.481-.895 4.826-2.211.945.065 1.7-.27 2.26-1.033 1.512.051 2.944-.088 3.874-1.521l.102-.036c1.214.051 2.253-.327 3.074-1.244.93.146 1.716-.138 2.333-.851.582.095 1.076-.029 1.389-.582.312.298.545.167.748-.138.603.138 1.105-.007 1.483-.524l2.457.568c.269.567.741.807 1.352.814l.021-.043c.226.596.662.916 1.287.967.37.786 1.046 1.062 1.86 1.12 1.44 1.717 1.469 2.983-.93 3.907-2.667 1.025-5.284 2.218-7.85 3.491-3.394 1.695-7.406 1.644-10.611 3.841l-.095.007c-1.737-.211-2.783.793-3.677 2.073h-.051Z">
</path>
<path fill="#007EFF" fill-opacity="0.33"
     d="M243.386 285.133c-2.224-.175-4.855.182-7.457.771-1.999.451-3.22-.262-3.867-2.233-1.723-5.274-3.932-10.366-2.478-16.229.654-2.626.312-5.55.159-8.322-.298-5.506 2.217-10.089 4.732-14.621 1.374-2.473 2.609-2.008 4.492.211 3.699 4.364 3.009 10.075 5.029 14.963 1.832 4.445 3.954 8.751 5.779 13.195.138.335.37.626.545.946 3.714 6.954 1.228 11.297-6.934 11.319Z">
</path>
<path fill="#0067D1"
     d="M280.533 294.334c-1.483 4.823-1.519 9.675.233 14.396 1.773 4.757 1.366 5.943-3.38 7.842-1.206.48-2.507.843-3.322 1.993-.218.094-.428.189-.646.283-.415-.109-.64.059-.705.473-.269.167-.538.342-.814.509-.655.015-1.178.248-1.454.895l.022-.014c-1.112.174-2.028.661-2.682 1.6-.327.174-.654.356-.981.531-1.091.036-1.919.531-2.508 1.44h-.196l-.087.175c-1.33.233-2.224 1.025-2.835 2.189-.283.233-.56.466-.843.699-.247.232-.502.458-.749.691l-2.18 2.138c-.255.255-.516.509-.771.757-.225.24-.45.48-.676.713-.29.225-.581.458-.872.683-.843.204-1.628.262-2.042-.734 2.696-4.83 4.543-10.053 7.174-14.934 5.494-10.199 10.858-20.499 15.75-30.996 3.365-7.216 6.963-14.635 4.455-23.11-.218-.734.276-1.389.989-1.76 3.118 3.615 4.775 7.98 6.134 12.439 1.061 3.491.036 6.605-2.486 9.216-1.555.99-1.308 2.634-1.482 4.117l-.008.022c-.676.568-.785 1.331-.748 2.146l-.008.007c-.545.35-.661.873-.581 1.477a.487.487 0 0 0-.196.524c-.887.858-1.367 1.884-1.367 3.128-.152.123-.203.276-.138.465ZM103.495 182.442c-1.032-1.607-2.958-1.942-4.346-3.055-.444-.356-1.163-.647-.916-1.367.32-.939 1.17-.713 1.81-.48 1.228.451 2.442.982 3.597 1.593 2.065 1.083 2.857.625 2.602-1.783-.399-3.789-.646-7.601-.966-11.405-.64-16.273 2.769-32.291 2.994-48.512.037-2.379-.661-4.757.211-7.158.72-1.978 1.25-4.117 3.612-4.575 2.304-.444 3.867 1.062 5.132 2.757.894 1.2 1.991 2.371 2.049 4.146-5.058-2.131-6.04-1.397-7.137 4.117-3.474 17.495-5.393 35.12-4.855 52.971.073 2.087.778 4.051.857 6.212.131 3.622 1.672 6.481 5.837 7.987 4.572 1.658 8.656 4.692 12.043 8.322.829.887 3.3 2.022.807 3.848-3.649-5.245-9.514-6.947-15.736-10.075 6.266 19.793 7.523 39.419 8.475 59.445-1.744-2.081-1.911-2.423-2.289-6.263-1.301-13.094-3.242-26.1-5.234-39.106-.755-4.925-2.616-9.552-3.866-14.338-.225-.866-.502-1.964-1.824-1.884-.676-1.011-1.643-1.411-2.821-1.389l-.036-.008Z">
</path>
<path fill="#007EFF" fill-opacity="0.33"
     d="M281.427 260.8c-.712.371-1.207 1.026-.989 1.76 2.508 8.475-1.09 15.894-4.455 23.11-4.891 10.497-10.255 20.797-15.75 30.996-2.631 4.881-4.477 10.111-7.174 14.934-.996-2.183-.4-4.51.473-6.3 2.166-4.415 4.157-8.911 6.563-13.239 5.669-10.22 12.421-19.909 16.237-31.112.799-2.356.363-4.444-.545-6.67-4.826-11.748-10.743-22.972-16.223-34.4-.981-2.051-1.962-4.372-5.051-3.455.407-3.921 1.279-7.725 2.573-12.112 3.009 4.198 3.728 8.708 5.865 12.527 4.361 7.776 8.7 15.574 13.09 23.335.494.873 1.01 2.386 2.282 1.812 1.192-.539.531-1.884.24-2.91-1.105-3.819-1.417-7.769-1.824-11.697 1.643 1.491 1.875 3.644 2.209 5.565.487 2.771 1.512 5.288 2.479 7.856ZM89.242 335.688c.683 4.4 1.694 8.779 1.97 13.209.327 5.209.974 10.388 2.435 15.32 2.013 6.772 2.078 13.828 3.692 20.629.574 2.437-.007 4.409-2.246 5.987-3.053 2.153-5.88 4.612-8.81 6.932-.762.597-1.598 1.339-2.608.844-1.17-.574-1.083-1.746-.93-2.873 1.562-11.246 2.318-22.594 3.633-33.84 1.032-8.721.066-17.596 2.864-26.208ZM174.178 354.739c-4.695.116-5.473-.786-3.845-5.332 1.774-4.954 3.133-10.046 6.97-14.134 2.697-2.874 3.336-7.165 5.648-10.475 5.792-8.307 11.018-17.007 17.356-24.929 1.599-2 4.143-2.975 5.553-5.179.312-.487.792-1.135 1.454-.727.777.48.479 1.28.138 1.935-1.287 2.458-2.515 4.946-3.925 7.332-5.153 8.714-9.921 17.633-14.747 26.529-4.085 7.536-7.566 15.341-11.513 22.935-.676 1.303-1.555 2.117-3.089 2.045ZM140.679 331.542c-1.214-10.715-.901-21.845-.923-32.974 0-.968-.058-1.942.044-2.903.109-.982-.371-2.495 1.214-2.567 1.17-.059 1.235 1.265 1.584 2.145 2.776 6.904 3.569 14.272 5.189 21.452 1.411 6.241 2.283 12.577 3.889 18.767.458 1.761.24 3.019-1.236 4.481-1.642 1.637-2.594 3.979-3.786 6.045-.785 1.361-1.788 2.415-3.453 2.081-1.606-.32-1.875-1.768-1.933-3.128-.182-4.343-1.345-8.627-.589-13.399Z">
</path>
<path fill="#0067D1"
     d="M114.208 298.306c-1.206 10.678-2.166 20.884-1.839 31.199.415 13.159 3.903 25.423 9.405 37.294 3.111 6.7 6.411 13.276 9.98 19.735 1.519 2.743 2.711 5.674 4.012 8.533.487 1.069 1.286 2.43-.182 3.157-1.439.713-2.093-.633-2.675-1.731-2.667-5.019-5.385-10.017-8.009-15.065-6.353-12.235-12.044-24.703-14.486-38.444-2.478-13.952-1.243-27.715 1.701-41.419.24-1.077.342-2.372 2.093-3.259ZM188.438 117.528c3.583.953 5.35 3.404 4.964 6.99-.123 1.171-.428 2.328-.654 3.485a3078.7 3078.7 0 0 1-4.433 8.241c-5.488 10.155-10.983 20.31-16.477 30.465-.64.356-1.287.712-1.926 1.069 2.485-6.234 5.044-12.454 7.449-18.717 2.283-5.957 4.507-11.937 6.593-17.967 1.962-5.674.269-8.103-5.626-8.242-.763-.014-1.199-.298-1.366-.778-.291-.836.661-.785 1.075-1.055 3.133-2.116 6.447-3.775 10.401-3.491Z">
</path>
<path fill="#007EFF" fill-opacity="0.33"
     d="M126.826 196.081c2.493-1.826.022-2.96-.807-3.848-3.387-3.637-7.472-6.663-12.043-8.322-4.165-1.513-5.706-4.364-5.837-7.987-.08-2.16-.785-4.124-.857-6.212 5.465-1.142 8.351 3.506 12.385 5.55.843.43 1.482 1.273 2.333 1.673 7.631 3.608 10.117 9.988 9.71 17.931-.073 1.397.305 3.317-1.403 3.725-1.642.378-2.827-.953-3.481-2.51Z">
</path>
<path fill="#0067D1"
     d="M165.107 172.317c2.449.014 4.303-1.506 6.287-2.575 2.486-1.346 3.023.312 2.747 1.898-.349 1.964-.879 3.783-2.631 5.543-4.106 4.125-9.398 6.3-13.889 9.704-.204.153-.691-.073-1.047-.117-.472-1.331-.821-2.72-1.439-3.979-.908-1.825-.523-3.186 1.061-4.349 2.297-1.681 4.579-3.383 6.869-5.078.574 0 .995-.24 1.199-.8.276-.08.559-.16.843-.247Z">
</path>
<path fill="#007EFF" fill-opacity="0.33"
     d="M189.456 432.631c-3.365.204-5.822-2.262-8.417-4.066-2.006-1.397-1.693-5.558-.043-7.653 2.056-2.611 4.244-3.295 7.108-1.054 1.788 1.396 4.019 2.175 5.618 3.92 1.199 1.317 3.307 2.415 2.042 4.459-1.359 2.175-2.761 4.743-6.308 4.394ZM238.305 314.92c-1.94.08-3.663-.196-4.724-2.051-1.054-1.848.509-3.07.887-4.605 1.453-5.957 6.141-8.256 10.975-10.518 1.272-.596 3.299-1.047 2.696.997-1.461 4.968-1.766 10.46-5.705 14.512-1.214 1.251-2.53 1.76-4.129 1.665ZM128.905 250.769c-2.079-4.045-2.079-7.754-2.937-11.239a2611.073 2611.073 0 0 1-5.945-24.63c-.262-1.099-1.156-2.59.218-3.295 1.417-.728 1.89 1.084 2.762 1.789 3.292 2.67 4.005 6.641 4.586 10.402 1.272 8.235 2.195 16.534 1.97 24.907-.022.429-.269.858-.654 2.066ZM91.576 79.294C85.957 98.825 81.989 118.8 75.89 138.2c-.698 2.212 0 4.903-2.13 6.642-.785-1.171-.276-2.364.037-3.506 4.535-16.644 7.944-33.585 13.257-50.032 1.322-4.081 1.918-8.41 4.52-12.01ZM128.475 294.225c-.101 11.151-3.125 21.859-5.16 33.134-1.773-4.409 1.948-28.944 5.16-33.134ZM110.851 48.866c1.62-3.331 4.709-5.354 7.115-7.994 3.133-3.448 6.222-6.932 9.332-10.402.96 7.027-4.753 10.315-8.656 14.228-1.839 1.855-4.804 3.492-7.791 4.168ZM104.258 51.07c-3.089 4.59-6.221 9.253-7.806 14.541-1.323 4.43-3.045 8.664-4.688 12.948.647-9.492 4.797-17.69 9.551-25.648.61-1.04 1.635-1.746 2.943-1.84ZM65.49 193.943c3.205-2.189 7.21-2.146 10.611-3.84 2.559-1.281 5.175-2.466 7.85-3.492 2.398-.924 2.37-2.19.93-3.906 1.323-.073 2.442.254 2.77 1.709.24 1.033-.16 2.051-1.018 2.539-6.578 3.739-13.126 7.601-21.143 6.99ZM210.438 165.217c3.693-4.11 7.763-7.631 13.686-8.671-3.554 1.92-4.44 2.742-5.523 4.99a4188.565 4188.565 0 0 1-8.163 3.681ZM159.308 16.897c-10.03-2.83-19.457.261-28.935 2.931 1.897-3.244 5.546-2.48 8.358-3.404 5.502-1.811 11.266-2.539 17.073-1.208 1.287.291 2.61.546 3.504 1.68ZM73.674 146.202c.756 2.444-.16 4.699-.785 6.991-1.686 6.132-2.035 12.068 2.587 17.247-1.81.647-2.667-.459-3.343-1.841-1.62-3.295-2.53-6.808-1.875-10.431.749-4.081 1.04-8.336 3.416-11.966Z">
</path>
<path fill="#0067D1"
     d="M126.44 260.735c3.148-5.842 3.889-12.854 9.078-17.699.524-.487.822-.851.422-1.418-.436-.626-1.112-.96-1.824-.473-.524.364-.843 1.091-.16 1.462 1.599.873.93 1.928.436 3.019a15062.46 15062.46 0 0 1-7.029 15.443 70.728 70.728 0 0 0-.923-.334Z">
</path>
<path fill="#007EFF" fill-opacity="0.33"
     d="M276.274 245.989c-2.261-1.338-1.737-3.877-2.239-5.826-1.236-4.852-3.409-9.544-3.045-14.73 2.304 6.714 4.433 13.471 5.284 20.556ZM124.631 24.2c-3.656 4.35-7.312 8.692-10.968 13.042 1.999-5.74 5.211-10.46 10.968-13.043ZM53.773 189.36c-.8.495-1.591.997-2.39 1.492-2.414 1.498-4.013 3.309-3.199 6.488.53 2.059.073 4.03-1.533 5.594-.778-2.8-.466-5.703-.335-8.503.145-3.252 3.365-5.143 7.457-5.071ZM250.087 243.67c.334 1.607.669 3.215 1.134 5.463 2.725-3.179 1.497-6.845 2.645-9.821 1.483 3.121.335 6.176-.269 9.224-.189.968-.755 1.891-1.918 1.855-1.265-.036-1.519-1.113-1.563-2.08-.058-1.542-.77-3.092-.029-4.641Z">
</path>
<path fill="#0067D1" d="M120.081 266.517c-.981-3.869-.661-7.688.56-11.456.785 3.84.458 7.652-.56 11.456Z">
</path>
<path fill="#007EFF" fill-opacity="0.33"
     d="M40.865 223.694c-.516 5.332-2.682 10.228-4.114 15.313-1.133-5.383 1.883-10.003 2.799-15.014.036-.175.857-.204 1.315-.299ZM35.632 250.115a46.405 46.405 0 0 1 5.204-13.378c-.247 5.041-1.744 9.588-5.204 13.378ZM44.238 210.324c-.676 4.066-1.33 8.133-3.068 11.923-.32-4.321-1.3-8.817 3.068-11.923ZM110.124 42.435c-1.912 2.917-3.445 6.082-5.873 8.642.843-3.63 2.028-7.041 5.873-8.642ZM35.908 242.178c.495 2.939-1.933 5.681-.581 8.663-1.999.837-2.333-.473-2.355-1.949-.03-2.655.8-4.983 2.936-6.714ZM159.86 47.485c-1.345-.495-2.675-.997-3.54-2.24 1.999-1.18.749-2.998.887-4.54 1.89 1.855 3.307 3.892 2.587 6.75l.066.03ZM167.339 24.804c1.453.582 2.58 1.476 3.554 3.477-2.777-.488-5.001-.524-6.985-1.717 1.272-.342 2.595-.575 3.431-1.76ZM128.708 29.051c1.621-2.27 3.096-4.692 5.924-5.695-1.207 2.698-2.973 4.815-5.924 5.695ZM130.409 19.805c-1.933 1.47-3.867 2.947-5.807 4.416.828-2.931 2.602-4.612 5.807-4.416ZM144.749 19.682c3.91-1.055 7.821-1.04 11.724 0h-11.724ZM157.926 19.915c2.072.32 4.012.931 5.546 2.459-2.137-.16-4.281-.313-5.546-2.459ZM204.269 170.869c.995-1.455 2.107-2.779 3.779-3.514-.494 1.994-1.664 3.267-3.779 3.514ZM113.685 37.22c-.509 1.776-1.781 3.027-3.009 4.3-.065-2.183.632-3.827 3.009-4.3ZM164.381 18.322c-1.825-.043-3.555-.407-5.103-1.44 1.81.087 3.896-.815 5.103 1.44ZM62.626 185.206c-1.345 1.31-2.93 2.102-4.826 2.212.756-2.612 2.725-2.554 4.826-2.212ZM45.698 205.887c.008 1.527-.436 2.895-1.395 4.095-1.475-2.029-.945-3.368 1.395-4.095ZM153.689 28.52l-.763 4.983c-1.185-1.876-1.243-3.586.763-4.983ZM61.71 196.023c.894-1.273 1.94-2.284 3.678-2.073-.386 2.182-1.847 2.459-3.678 2.073ZM103.51 182.472c1.177-.022 2.151.378 2.82 1.389-1.665 1.018-2.355.051-2.82-1.389ZM204.624 244.011l-.697-1.309c.225-.902.741-.895 1.163-.233.341.546.756 1.353-.466 1.542ZM261.192 326.646c.611-1.164 1.505-1.957 2.835-2.19-.327 1.528-1.352 2.153-2.835 2.19ZM162.956 26.2c-1.926.102-3.852.197-5.786.299 1.861-1.477 3.802-1.31 5.786-.298ZM283.586 286.572c.174-1.491-.065-3.128 1.483-4.117.072 1.579-.298 2.997-1.483 4.117ZM68.767 182.654c-.93 1.433-2.362 1.578-3.873 1.52.77-1.833 2.34-1.622 3.873-1.52ZM267.792 322.31c.654-.938 1.57-1.433 2.682-1.6-.385 1.382-1.439 1.644-2.682 1.6ZM280.686 293.876c0-1.244.479-2.27 1.366-3.128.16 1.317-.24 2.379-1.366 3.128ZM75.513 170.469c1.177.16 2.071.72 2.594 1.818-1.373.131-2.42-.225-2.594-1.818ZM147.627 40.807l-3.103-.066c1.054-.99 2.086-.705 3.103.066ZM264.311 324.282c.588-.909 1.417-1.404 2.507-1.44-.509 1.055-1.374 1.491-2.507 1.44ZM71.944 181.373c-.822.916-1.861 1.287-3.075 1.244.625-1.404 1.78-1.499 3.075-1.244Z">
</path>
<path fill="#007EFF" fill-opacity="0.33"
     d="M167.208 19.079c-1.047.13-2.014-.044-2.828-.757 1.062-.181 2.043-.072 2.828.757ZM36.686 239.275c.182.641.022 1.186-.465 1.637-.8-.815-.45-1.302.465-1.637ZM46.374 203.777c.182.742-.007 1.368-.588 1.863-.575-.859-.698-1.586.588-1.863ZM184.877 107.329c.712.677.886 1.55.93 2.481-.836-.633-1.054-1.499-.93-2.481ZM282.83 288.741c-.03-.815.072-1.579.748-2.146.095.836-.138 1.556-.748 2.146ZM106.613 54.657c.102-.706.429-1.266 1.098-1.579-.037.757-.378 1.302-1.098 1.579ZM151.916 42.363c-.589 0-1.025-.24-1.279-.778l1.279.778ZM270.452 320.725c.269-.64.792-.873 1.454-.895-.327.553-.822.844-1.454.895ZM155.702 38.639c.596.218.872.676.93 1.28-.312-.43-.617-.858-.93-1.28ZM220.396 161.064c.48-.08.96-.168 1.44-.248-.415.488-.887.619-1.44.248ZM154.234 43.774c-.588-.022-1.017-.276-1.264-.822.421.27.843.546 1.264.822ZM165.216 23.218c.633.014 1.083.284 1.294.902l-1.294-.902ZM270.634 222.604c-.058-.488-.124-.975-.182-1.462.523.429.582.916.182 1.462ZM109.84 50.212c.043-.618.371-1.01.93-1.236-.305.414-.618.829-.93 1.236ZM41.396 234.984c-.094-.815.116-1.484.887-1.891-.008.771-.27 1.418-.887 1.891ZM282.241 290.224c-.08-.604.029-1.12.582-1.477-.197.495-.386.989-.582 1.477ZM153.02 33.794l.633 1.848c-.516-.51-.705-1.135-.633-1.848ZM136.049 22.57c.349-.56.814-.85 1.49-.603-.502.203-.996.4-1.49.604Z">
</path>
<path fill="#007EFF" fill-opacity="0.33"
     d="M163.712 22.512c.647-.021 1.199.16 1.563.735-.524-.247-1.047-.487-1.563-.735ZM153.638 35.62c.574.313.785.837.821 1.455-.268-.487-.545-.968-.821-1.455ZM203.498 171.611c.073-.488.363-.735.843-.786-.283.262-.559.524-.843.786ZM134.952 23.196c.378-.218.763-.429 1.141-.647-.378.218-.756.429-1.141.647ZM107.688 53.122l.676-1.004c-.232.335-.457.67-.676 1.004ZM83.02 181.584c-.632-.051-1.068-.371-1.286-.968.422.328.85.648 1.287.968ZM184.215 105.729c.509.298.698.749.604 1.323a203.73 203.73 0 0 1-.604-1.323ZM40.865 236.533c-.108-.589.051-1.076.56-1.426-.189.473-.37.946-.56 1.426ZM81.705 180.66c-.61 0-1.083-.24-1.352-.814.45.269.901.545 1.352.814ZM127.247 30.55c.262-.27.531-.539.792-.808-.261.262-.523.531-.792.808ZM155.717 44.88c-.211-.16-.429-.313-.64-.473.211.153.422.313.64.473ZM167.993 19.398c-.225-.094-.451-.189-.676-.276.225.095.451.19.676.276ZM272.713 319.321c.065-.415.298-.582.705-.473-.233.16-.465.32-.705.473ZM157.025 26.527c-.436.175-.865.35-1.301.524.436-.174.872-.35 1.301-.524ZM75.665 179.94c-.313.553-.807.677-1.388.582.458-.196.923-.385 1.388-.582ZM55.242 188.546c-.262.553-.712.771-1.308.742.428-.255.864-.502 1.308-.742ZM77.897 179.278c-.37.517-.88.662-1.483.524l1.483-.524ZM259.601 328.036c.247-.233.501-.458.748-.691-.247.233-.501.465-.748.691ZM256.65 330.93c.254-.254.516-.509.77-.756-.254.254-.516.509-.77.756ZM149.117 41.206c-.29-.08-.581-.16-.872-.232.298.072.582.152.872.232ZM164.257 172.571c-.204.56-.625.793-1.199.8.399-.269.799-.531 1.199-.8Z">
</path>
<path fill="#fff"
     d="M171.838 166.708a70379.06 70379.06 0 0 0 16.477-30.464c1.483-2.743 2.951-5.492 4.433-8.242 1.679 5.259 3.751 10.351 3.758 16.09 0 3.827-1.345 6.482-4.23 8.62-5.698 4.219-11.389 8.446-17.146 12.585-.944.684-2.187.945-3.292 1.411Z">
</path>
<path fill="#0067D1" d="m174.977 167.916.102.262-.262-.036.16-.226Z"></path>
<path fill="#007EFF" fill-opacity="0.33" d="m159.787 47.455.255.007-.182.015c0 .007-.073-.022-.073-.022Z">
</path>
</svg>