<svg xmlns="http://www.w3.org/2000/svg" width="56" height="56" fill="none" viewBox="0 0 56 56"
    class="shrink-0 max-sm:h-[36px] max-sm:w-[36px] sm:h-[56px] sm:w-[56px]">
    <g clip-path="url(#clip0_849_2822)">
        <rect width="56" height="56" fill="url(#paint0_linear_849_2822)" rx="28"></rect>
        <path fill="#2C94FF"
            d="M14.633 19.817c1.446 1.347 2.169 2.02 2.4 2.086.333.095.296.096.62-.024.227-.083.884-.797 2.199-2.226a12.137 12.137 0 0 1 2.795-2.23C25.257 15.808 28.294 15 31.755 15c5.278 0 9.364 1.391 12.259 4.174 2.837 2.738 4.256 6.687 4.256 11.849V43.2c0 4.48 0 6.72-.872 8.432a8 8 0 0 1-3.496 3.496C42.19 56 39.95 56 35.47 56H.8c-4.48 0-6.72 0-8.432-.872a8 8 0 0 1-3.496-3.496C-12 49.92-12 47.68-12 43.2V31.696c0-4.847 1.334-8.662 4.001-11.445 2.667-2.783 6.555-4.174 11.662-4.174 3.519 0 6.498.74 8.939 2.222.757.456 1.434.962 2.031 1.518Z"></path>
        <path fill="#fff"
            d="M14.7 40.942a4.256 4.256 0 0 0 4.257-4.256v-1.533c0-1.347-.34-2.334-1.022-2.963-.681-.673-1.73-1.01-3.15-1.01-1.475 0-2.553.337-3.235 1.01-.737.629-1.106 1.616-1.106 2.963v1.533a4.256 4.256 0 0 0 4.256 4.256Zm25.879-6.8c0-1.346-.312-2.333-.937-2.962-.68-.673-1.759-1.01-3.234-1.01-2.895 0-4.342 1.325-4.342 3.973v2.543a4.256 4.256 0 0 0 8.513 0v-2.543ZM22.943 41.93c-.405.28-.51.846-.144 1.176a3.897 3.897 0 0 0 5.437-.213c.339-.357.19-.912-.235-1.161s-.965-.083-1.366.203a2.111 2.111 0 0 1-2.315.09c-.422-.253-.973-.376-1.377-.095Z"></path>
        <rect width="5.33" height="3.28" x="20.284" y="37.96" fill="#2C94FF" rx="1.64"
            transform="rotate(-180 20.284 37.96)"></rect>
        <rect width="5.33" height="3.28" x="42.014" y="37.96" fill="#2C94FF" rx="1.64"
            transform="rotate(-180 42.014 37.96)"></rect>
    </g>
    <rect width="55" height="55" x="0.5" y="0.5" stroke="#DEE6F2" rx="27.5"></rect>
    <defs>
        <linearGradient id="paint0_linear_849_2822" x1="28" x2="28" y1="0" y2="56"
            gradientUnits="userSpaceOnUse">
            <stop stop-color="#FF86B9"></stop>
            <stop offset="1" stop-color="#FF86B9" stop-opacity="0"></stop>
        </linearGradient>
        <clipPath id="clip0_849_2822">
            <rect width="56" height="56" fill="#fff" rx="28"></rect>
        </clipPath>
    </defs>
</svg>