<svg xmlns="http://www.w3.org/2000/svg" width="98" height="98" fill="#0067D1" viewBox="0 0 98 98">
    <path
        d="M47.49 41.977c-10.373 8.657-16.824 14.006-17.233 15.762-1.674 7.962-2.735 11.678-1.674 13.066 2.001 2.654 11.311.899 13.312 0 2-.898 16.333-14.332 18.17-15.966 3.594-3.389 4.37-4.083 4.615-5.063a11.965 11.965 0 0 0 5.267-7.309 8.983 8.983 0 0 0-8.942-9.8 8.575 8.575 0 0 0-5.472 2.328 1.117 1.117 0 0 0 1.144 1.919c2.123-1.021 2.409-1.184 4.083-.94 1.674.245 5.43 3.757 5.227 5.676a8.534 8.534 0 0 1-2.614 5.472c-2.123-2.205-7.39-7.432-8.738-9.024a1.307 1.307 0 0 0-1.797 0c-1.674 1.388.899 2.613 8.167 11.229a194.396 194.396 0 0 1-16.333 14.006 14.128 14.128 0 0 0-7.146-8.167c7.595-7.595 13.107-12.25 13.556-12.944a1.103 1.103 0 0 0-1.265-1.756c-.49-.163-.817.368-2.328 1.511Zm-5.146 23.07a22.86 22.86 0 0 1-2.327 1.838 23.272 23.272 0 0 1-7.677 1.184c.327-2.654 1.347-9.391 1.51-9.595a13.27 13.27 0 0 0 1.593-1.593 53.088 53.088 0 0 0 6.901 8.167Z"></path>
    <path
        d="M86.73 22.459c0-5.88-3.552-6.86-7.758-10.413-4.206-3.552-7.187-7.105-11.025-10.045a1.266 1.266 0 0 0-1.552 2c3.634 2.9 7.146 6.942 10.78 10.128 3.634 3.185 6.615 4.083 6.656 8.37 0 2.736-.613 5.921-.653 7.759a247.127 247.127 0 0 1-1.756 36.75 80.949 80.949 0 0 1-2.94 12.985 10.536 10.536 0 0 1-2.573 2.899 15.925 15.925 0 0 1-7.554 1.225c-2.817 0-28.338-.286-37.24-.98-7.105-.49-14.047-1.266-21.764-2.042 7.922-20.376 6.452-61.74 8.534-73.99C19.682 5.595 49 2.41 50.755 2.37a18.375 18.375 0 0 1 6.616.653 1.103 1.103 0 1 0 .694-2.083A21.356 21.356 0 0 0 50.675 0C47.652 0 22.09 2.695 18.252 3.757c-2.124.572-2.859 1.429-3.226 2.49-2.369 6.289-1.92 59.985-10.617 75.42a2.083 2.083 0 0 0 1.633 3.144 372.767 372.767 0 0 0 41.446 2.94c9.106 0 26.664 1.47 30.87-2.083a12.782 12.782 0 0 0 4.941-8.942c4.083-18.416 2.858-31.523 2.9-46.427.04-1.715.612-5.105.53-7.84Z"></path>
    <path
        d="M62.475 26.256a35.115 35.115 0 0 0 16.905-2.082c4.45-2.328 1.225-4.982 0-3.267-.292.361-.693.62-1.143.735-1.797.694-14.047 1.593-14.823.327-.776-1.266.327-7.759.572-10.454.449-4.859.572-4.9-.204-5.186-1.47-.612-2.042 2.614-2.532 4.696-.776 3.144-5.39 12.944 1.225 15.231ZM93.917 36.75c0-2.94-2.736-2.818-2.818-.286-.081 2.532-.49 4.328-.53 5.717a233.527 233.527 0 0 1-1.552 35.402 78.648 78.648 0 0 1-2.777 12.25 9.595 9.595 0 0 1-2.45 2.777 14.821 14.821 0 0 1-7.268 1.225c-2.695 0-27.277 0-35.893-.735-5.839-.368-11.637-.98-17.844-1.552-4.492-.694-6.41 2.859-2.777 3.839a323.722 323.722 0 0 0 36.465 2.286c8.779 0 25.643 1.266 29.685-2.164a12.25 12.25 0 0 0 4.737-8.657c3.716-17.762 2.573-30.38 2.573-44.712 0-1.307.449-3.267.449-5.39Z"></path>
</svg>