<svg xmlns="http://www.w3.org/2000/svg" width="106" height="106" fill="#0067D1" viewBox="0 0 106 106"
    >
    <path
        d="M14.973 61.833a1.457 1.457 0 0 0 0 2.915c19.212.221 36.084-2.738 55.429-2.473a33.92 33.92 0 0 1 14.972 1.81c3.401 1.9-.397 4.417-4.196 5.036-5.785 1.148-40.677 1.369-43.636 1.501-12.411.575-22.437 3.755-32.33 1.723-3.578-.707-2.65-5.3.839-6.14 4.902-1.192 5.3-.264 5.653-1.59a1.5 1.5 0 0 0-1.722-1.722 41.75 41.75 0 0 0-4.417.663 6.007 6.007 0 0 0-1.148 11.88 41.74 41.74 0 0 0 9.716 1.016c-.353 1.016-4.416 15.415-5.697 21.156-1.458 8.039 9.76 9.408 12.72 2.297a88.73 88.73 0 0 0 3.4-10.468c8.31.976 16.683 1.301 25.043.972 13.471-.662 10.38 0 14.001-.31 4.417-.308.928-3.312 6.007 9.806 2.959 7.067 14.177 5.742 12.72-2.34a200.529 200.529 0 0 0-6.537-23.012 30.427 30.427 0 0 0 8.833-1.325c4.064-1.457 8.48-5.741 6.89-9.584-4.725-11.748-47.965-2.164-76.54-1.81Zm1.899 36.173c-.84 1.899-3.887 2.164-3.578.309l3.754-22.083 7.553-.53a146.99 146.99 0 0 1-7.73 22.348v-.044Zm48.583-11.219c-2.385 1.105-4.417-1.59-21.42-1.104-7.686.221-7.73.354-18.595 1.016.883-3.577 1.723-7.287 2.43-11.218 14.795-1.414 22.083 0 35.333-.574 2.429 13.647 3.047 11.483 2.12 11.925l.132-.045Zm12.41 11.528c.31 1.811-2.737 1.59-3.577-.353a145.342 145.342 0 0 1-8.038-23.144c2.96-.265 4.858-.22 7.553-.265-.442.53-.398-2.473 3.93 23.806l.133-.044Z"
        clip-rule="evenodd"></path>
    <path
        d="M6.67 61.833a1.296 1.296 0 1 0 2.561-.397 107.283 107.283 0 0 1 0-15.989 93.72 93.72 0 0 1 .84-18.417c0-.795 1.236-2.783.618-3.313a28.31 28.31 0 0 1 10.07-1.634 360.033 360.033 0 0 1 46.595-3.091 1.457 1.457 0 0 0 0-2.915s-22.834-.53-25.175-.486a12.324 12.324 0 0 1 2.739-9.098 15.989 15.989 0 0 1 2.561 7.464 1.457 1.457 0 0 0 2.871 0 20.406 20.406 0 0 0-.486-7.067C46.905-3.445 37.1 1.9 38.646 15.68c-6.187.13-12.363.571-18.506 1.324-4.416.574-9.496.354-12.852 3.313-1.679 1.501-1.325 3.975-1.679 5.609a87.008 87.008 0 0 0 .221 19.477c-.099 5.49.182 10.98.84 16.43ZM96.504 9.451a66.247 66.247 0 0 0-7.64 4.947l-16.872 13.25a3.003 3.003 0 0 0-.972 1.723 8.834 8.834 0 0 0-8.303-1.325c-7.42 2.164-7.994 7.906-9.452 10.865-2.43 5.035-5.874 2.473-8.436 4.416-1.192.884-2.429 2.65 0 5.654 13.25 14.884 36.305 2.738 31.756-10.6a1.281 1.281 0 0 0 1.325 0c7.773-4.417 21.598-11.793 26.765-19.169 4.108-5.962-3.092-12.278-8.17-9.76ZM71.064 46.95a15.989 15.989 0 0 1-21.244-.22h.663c6.934-2.12 6.934-8.127 8.391-11.396 1.458-3.268 7.994-6.271 10.689-3.356 4.505 5.344 6.58 10.246 1.501 14.972Zm5.168-10.158a23.055 23.055 0 0 0-4.064-5.874c.619 0-.441.618 8.304-5.389 17.666-12.057 18.24-12.764 20.051-10.776 3.622 3.798-23.982 20.979-24.291 22.039Z"
        clip-rule="evenodd"></path>
    <path
        d="M36.438 29.239c5.653-2.12 8.391-.928 10.467 1.28 2.076 2.209 2.96 4.152 4.417 2.96a1.325 1.325 0 0 0 0-1.811c-1.016-1.149-1.678-2.385-2.694-3.534-6.095-7.155-19.875-2.473-23.541 4.417a7.642 7.642 0 0 0-.398 4.77c.619 3.49.486 1.855-2.782 4.417-6.758 4.902-5.918 8.833-1.546 11.13 7.2 3.93 10.468-1.149 16.474-1.237a1.458 1.458 0 0 0 1.458-1.457c0-3.357-7.509 0-11.042.397a6.67 6.67 0 0 1-4.77-1.237c-1.59-1.015-1.634-1.104 1.502-3.268 3.136-2.164 6.05-3.975 5.83-7.685a17.667 17.667 0 0 1-.354-3.798 12.543 12.543 0 0 1 6.979-5.344Z"
        clip-rule="evenodd"></path>
</svg>