<svg xmlns="http://www.w3.org/2000/svg" width="32" height="33" fill="none"
    viewBox="0 0 32 33">
    <path stroke="#888" stroke-linecap="round" stroke-linejoin="round" stroke-width="2.5"
        d="M4 23.167V10.1c0-1.493 0-2.24.29-2.81a2.66 2.66 0 0 1 1.166-1.166c.57-.29 1.317-.29 2.81-.29h15.467c1.494 0 2.24 0 2.811.29.502.256.91.664 1.165 1.165.291.57.291 1.316.291 2.807v12.808c0 .647 0 1.153-.024 1.565M4 23.167c0 1.317.017 2.008.29 2.542.257.503.663.911 1.166 1.167.57.29 1.316.29 2.807.29h15.476c1.49 0 2.236 0 2.805-.29a2.67 2.67 0 0 0 1.165-1.167c.164-.322.236-.701.267-1.24M4 23.167l6.357-7.418.002-.001c.564-.657.846-.987 1.181-1.107.294-.104.615-.101.908.007.333.124.613.457 1.168 1.124l3.561 4.273c.515.619.774.928 1.088 1.054.277.109.583.122.868.037.326-.096.614-.383 1.186-.955l.662-.662c.583-.584.875-.875 1.206-.971.29-.084.6-.067.878.05.318.131.575.453 1.091 1.095l3.82 4.776m0 0L28 24.5m-8-10.667a1.333 1.333 0 1 1 0-2.667 1.333 1.333 0 0 1 0 2.667Z">
    </path>
</svg>