<svg xmlns="http://www.w3.org/2000/svg" width="90" height="67" fill="none" viewBox="0 0 90 67">
<path fill="#0067D1"
        d="M74.472 26.707c-3.19 13.58-36.33 31.05-45.02 33.35a.86.86 0 0 1-.78-.12l-3.53-2.9s26.89-13.12 31.61-17.66c4.72-4.54 17.44-13.69 17.44-13.69l.28 1.02Z">
</path>
<path fill="#0067D1"
        d="M24.142 60.747a36.603 36.603 0 0 1-6.24-5.15 32.384 32.384 0 0 1-4.76-6.59 30.17 30.17 0 0 1-3.56-15.71c.07-1.967.308-3.924.71-5.85a28.884 28.884 0 0 1 1.72-5.61 36 36 0 0 1 12.81-15.7 34.18 34.18 0 0 1 9.2-4.4c.83-.2 1.64-.47 2.48-.61l2.53-.45 2.54-.19c.85-.08 1.7 0 2.54 0h1.13l1.12.12c.74.09 1.49.13 2.23.25 1.471.248 2.927.581 4.36 1 1.423.406 2.822.894 4.19 1.46.69.28 1.34.63 2 .94.687.29 1.355.624 2 1a31 31 0 0 1 8.84 7.25 22.6 22.6 0 0 1 4.8 10.41c0 1.22-.1 1.75-.36 1.77-.26.02-.7-.47-1.46-1.22l-6-6.91a30.52 30.52 0 0 0-16.74-10 33 33 0 0 0-9.89-.83c-1.65.139-3.286.417-4.89.83a33.053 33.053 0 0 0-4.75 1.75 27.4 27.4 0 0 0-9.55 7.76 32.093 32.093 0 0 0-5.69 11.29 26.93 26.93 0 0 0-.37 13.72 25.43 25.43 0 0 0 6.8 12 30.91 30.91 0 0 0 7 5.24 28.919 28.919 0 0 0 8.22 3.06 26.88 26.88 0 0 0 13.04-.36 35.829 35.829 0 0 0 11.74-6.26 30.465 30.465 0 0 0 6.5-7.8 34.847 34.847 0 0 0 3.61-9.36l.25-1.07c.07-.36.11-.72.17-1.08.09-.72.26-1.44.31-2.17.37-2.73.27-4.49.49-5.75.091-.547.225-1.085.4-1.61.21-.46.39-.82.57-1.18.18-.36.29-.75.42-1 .24-.37.62-.05 1.41 1a8.198 8.198 0 0 1 1.33 3.5c.1.555.16 1.116.18 1.68a34.528 34.528 0 0 1-1 10.33 36.416 36.416 0 0 1-4.23 9.81 38.553 38.553 0 0 1-3.3 4.35c-.59.7-1.218 1.367-1.88 2l-2.07 1.82-.51.46-.56.4-1.13.83c-.76.51-1.48 1.1-2.28 1.53l-2.42 1.27c-.4.21-.8.44-1.21.63l-1.27.51-1.87.76c-.63.271-1.279.498-1.94.68-.68.19-1.36.4-2 .56l-2.07.37c-2.75.393-5.541.426-8.3.1a38.58 38.58 0 0 1-15.34-5.48v-.1Z">
</path>
<path fill="#0067D1"
        d="M65.642 36.027a112.936 112.936 0 0 1-17.94 11.45c-2.29 1.17-4.56 2.44-6.85 3.44-4.08 1.9-8.223 3.673-12.43 5.32a106.02 106.02 0 0 1-13 4.08 52.814 52.814 0 0 1-6 1.2c-1.05.137-2.111.184-3.17.14a8.512 8.512 0 0 1-3.33-.74 4.9 4.9 0 0 1-1.92-1.63 5.44 5.44 0 0 1-.86-2.37 7.26 7.26 0 0 1 .1-2.37c.17-.724.425-1.426.76-2.09a12.73 12.73 0 0 1 5.89-5.78c.82-.37 1.31-.26 1.38 0 .07.26-.16.81-.49 1.48-.33.67-.79 1.48-1.3 2.44-.26.46-.5 1-.79 1.47l-.95 1.54a5.45 5.45 0 0 0-.94 2.44 2.82 2.82 0 0 0 .11 1 1 1 0 0 0 .36.53 4.39 4.39 0 0 0 2.34.68c1.14.05 2.281-.007 3.41-.17 1.19-.15 2.4-.38 3.61-.65s2.41-.69 3.61-1.07c2.4-.78 4.8-1.64 7.2-2.54a153.876 153.876 0 0 0 17.22-7.74c3.12-1.55 6.18-3.11 9.13-4.88a111.78 111.78 0 0 0 18.47-13.81c2.36-2.22 4.66-4.48 6.88-6.86 1.09-1.18 2.15-2.41 3.26-3.63 1.11-1.22 2.15-2.4 3.09-3.64a16.905 16.905 0 0 0 1.87-3c.12-.26.25-.51.34-.77l.15-.38a2.92 2.92 0 0 0 .09-.28 3.46 3.46 0 0 0 .15-.92.9.9 0 0 0-.41-.74 1.56 1.56 0 0 0-.83-.21 6.37 6.37 0 0 0-1 .13 6.859 6.859 0 0 0-1.53.46 12.07 12.07 0 0 0-2.55 1.46 28.284 28.284 0 0 1-3.63 1.66 4.644 4.644 0 0 1-1.24.12 8.073 8.073 0 0 1-1.15-.29c-.33-.11-.7-.15-.93-.26-.4-.18-.36-.64-.09-1.57a6.28 6.28 0 0 1 2.39-3 15.65 15.65 0 0 1 7-3 12.09 12.09 0 0 1 2.26-.37 8 8 0 0 1 3.14.38 5.22 5.22 0 0 1 2.45 1.75 4.83 4.83 0 0 1 .94 2.87 10.63 10.63 0 0 1-.67 3.17 5.11 5.11 0 0 1-.23.61l-.21.49c-.15.33-.31.63-.47.95a22.4 22.4 0 0 1-2.19 3.39c-1.56 2-3.26 3.78-4.75 5.45a124.722 124.722 0 0 1-15.67 14.73l-.08-.07ZM33.452 27.847c-.418.258-.86.476-1.32.65-.446.127-.9.22-1.36.28a7.392 7.392 0 0 1-2.51-.21l-.87-.22a5.938 5.938 0 0 1-.86-.38 5.09 5.09 0 0 1-2.19-2.52 4.561 4.561 0 0 1-.31-1.61c0-.27 0-.53.09-.78l.2-.74a6.371 6.371 0 0 1 1.31-2.2 4.07 4.07 0 0 1 2.71-1.47c.32 0 .33.25.2.63a3.22 3.22 0 0 1-.68 1.15 3 3 0 0 0-.71.84 3.182 3.182 0 0 0-.37.95 3.62 3.62 0 0 0-.1.91c.02.286.02.573 0 .86 0 .73.7 1.21 1.47 1.5a3.94 3.94 0 0 0 2.8.11 2.58 2.58 0 0 0 1.19-1.07 3.21 3.21 0 0 0 .29-2.61 3.78 3.78 0 0 0-1.23-1.68 2.563 2.563 0 0 1-.38-.26 1.26 1.26 0 0 1-.35-1.36c0-.14.05-.29.08-.43.12-.45.57-.68 1.32-.62 1.168.2 2.228.801 3 1.7.42.477.758 1.022 1 1.61.08.31.15.63.2.95.05.32 0 .66.05 1a6.41 6.41 0 0 1-2.62 5.09l-.05-.07Z">
</path>
</svg>