<svg xmlns="http://www.w3.org/2000/svg" width="963" height="159" fill="none" viewBox="0 0 963 159"
    class="h-fit w-full max-md:hidden">
    <path fill="#848484"
        d="M.268 133.355h4.728a18.88 18.88 0 0 0 .18-2.292v-.912h.648v.768c0 .864-.06 1.676-.18 2.436h5.088v.648H5.92c.84 2.824 2.516 4.988 5.028 6.492l-.396.528c-2.52-1.536-4.22-3.748-5.1-6.636-.68 3.096-2.352 5.332-5.016 6.708l-.408-.54c2.632-1.296 4.252-3.48 4.86-6.552H.268v-.648Zm19.176 2.964c-.36.128-.668.22-.924.276.2.584.312 1.228.336 1.932 0 .92-.124 1.568-.372 1.944-.272.392-.904.588-1.896.588h-.42l-.216-.564h.552c.736-.016 1.2-.128 1.392-.336.224-.288.336-.832.336-1.632a6.39 6.39 0 0 0-.072-.804c-1.32 1.08-3.128 1.972-5.424 2.676l-.324-.564c2.44-.72 4.308-1.636 5.604-2.748a5.11 5.11 0 0 0-.408-1.056c-1.152.928-2.728 1.68-4.728 2.256l-.312-.564c2.072-.568 3.656-1.292 4.752-2.172a5.617 5.617 0 0 0-.588-.744l-.384.192c-.888.408-1.968.788-3.24 1.14l-.348-.54a18.995 18.995 0 0 0 3.132-.996 13.456 13.456 0 0 0 1.512-.78h-3.516v-.612h7.236v.612H18.34c-.384.264-.756.504-1.116.72.456.464.816.976 1.08 1.536a11.22 11.22 0 0 0 3.312-1.5l.444.432a11.34 11.34 0 0 1-2.088 1.116c.576 1.584 1.512 2.844 2.808 3.78l-.456.54c-1.36-1.08-2.32-2.456-2.88-4.128Zm-1.896-6.264c.16.376.304.78.432 1.212h4.524v1.968h-.648v-1.356h-8.724v1.356h-.648v-1.968h4.86c-.12-.336-.272-.704-.456-1.104l.66-.108Zm6.648.852H34.84v.636h-1.632v8.328c0 .744-.368 1.116-1.104 1.116h-1.98l-.144-.624c.88.032 1.512.048 1.896.048.448 0 .672-.236.672-.708v-8.16h-8.352v-.636Zm5.94 2.676v4.248h-3.864v1.092h-.624v-5.34h4.488Zm-3.864 3.648h3.24v-3.06h-3.24v3.06Zm13.632-5.76c1.08 1.208 1.936 2.304 2.568 3.288l-.54.384c-.632-1.024-1.492-2.132-2.58-3.324l.552-.348Zm4.248 5.652c-.768 1.536-2.044 2.828-3.828 3.876l-.444-.54c2.016-1.152 3.36-2.632 4.032-4.44.504-1.536.756-3.46.756-5.772h.672c0 2.248-.24 4.152-.72 5.712-.08.24-.144.416-.192.528a27.441 27.441 0 0 1 2.544 3.888l-.492.492c-.616-1.224-1.392-2.472-2.328-3.744Zm-7.248 1.968a.584.584 0 0 0 .288-.528v-7.908h.672v8.088c1-.392 1.972-.876 2.916-1.452l.192.648a23.738 23.738 0 0 1-3.864 1.764l-.204-.612Zm11.736-7.044h1.956v-.78H48.16v-.528h2.436v-.612h.6v.612H53.5v.528h-2.304v.78h1.968v1.98h-1.968v.276c.752.336 1.484.712 2.196 1.128l-.324.492c-.728-.504-1.352-.9-1.872-1.188v1.32h-.6v-1.488a11.162 11.162 0 0 1-2.292 1.572l-.288-.516c.864-.336 1.724-.86 2.58-1.572v-.024H48.64v-1.98Zm3.972 1.512v-1.032h-1.416v1.032h1.416Zm-2.016 0v-1.032H49.18v1.032h1.416Zm4.464-1.812c-.088.192-.192.404-.312.636a5.72 5.72 0 0 0 1.464 1.836l.132-.132c.496-.584.816-1.364.96-2.34H55.06Zm.696 2.856a6.104 6.104 0 0 1-1.344-1.668 6.915 6.915 0 0 1-.612.792l-.384-.492c.76-.864 1.276-1.916 1.548-3.156l.6.072c-.08.344-.176.684-.288 1.02h3.432v.576h-.816c-.168 1.136-.528 2.04-1.08 2.712l-.12.12a7.905 7.905 0 0 0 2.148.996l-.348.528c-.88-.288-1.632-.66-2.256-1.116-.584.424-1.356.776-2.316 1.056l-.228-.54c.856-.24 1.544-.54 2.064-.9Zm-2.664 2.544h-4.308v-.576h9.456v.576h-4.5v1.224h3.828v.576H53.74v1.224h5.064v.6H48.196v-.6h1.98v-2.364h.624v2.364h2.292v-3.024Zm11.568-6.492h5.652v5.412h-2.496v1.644h2.736v.624h-2.736v1.728h3.12v.636h-6.888v-.636h3.12v-1.728h-2.76v-.624h2.76v-1.644H64.66v-5.412Zm5.016 4.824v-1.836h-1.86v1.836h1.86Zm-2.508 0v-1.836h-1.872v1.836h1.872Zm-1.872-2.412h1.872v-1.824h-1.872v1.824Zm2.52-1.824v1.824h1.86v-1.824h-1.86Zm-7.5 3.408h1.368v-3.048h-1.548v-.624h3.732v.624h-1.536v3.048h1.392v.624h-1.392v2.94c.52-.184 1.04-.388 1.56-.612v.624c-1.144.504-2.4.924-3.768 1.26l-.156-.612a17.67 17.67 0 0 0 1.716-.444v-3.156h-1.368v-.624Zm11.808.528h10.74v.648h-10.74v-.648Zm12.072-4.344h10.596v.636H89.5v2.004a50.127 50.127 0 0 1 4.608 2.7l-.384.576c-1.656-1.12-3.064-1.988-4.224-2.604v6.96h-.636v-9.636h-4.668v-.636Zm15.708.636c1.08 1.208 1.936 2.304 2.568 3.288l-.54.384c-.632-1.024-1.492-2.132-2.58-3.324l.552-.348Zm4.248 5.652c-.768 1.536-2.044 2.828-3.828 3.876l-.444-.54c2.016-1.152 3.36-2.632 4.032-4.44.504-1.536.756-3.46.756-5.772h.672c0 2.248-.24 4.152-.72 5.712-.08.24-.144.416-.192.528a27.441 27.441 0 0 1 2.544 3.888l-.492.492c-.616-1.224-1.392-2.472-2.328-3.744Zm-7.248 1.968a.584.584 0 0 0 .288-.528v-7.908h.672v8.088c1-.392 1.972-.876 2.916-1.452l.192.648a23.738 23.738 0 0 1-3.864 1.764l-.204-.612Zm19.404-8.82a8.024 8.024 0 0 1-.852 1.428h3.384v.648h-10.692v-.648h3.42a7.632 7.632 0 0 0-.828-1.488l.672-.108c.28.424.56.956.84 1.596h2.496c.336-.496.644-1.048.924-1.656l.636.228Zm-4.968 10.728-.18-.636.912.024c.36 0 .54-.204.54-.612v-1.356h-2.928v2.676h-.636v-7.608h4.2v6.42c0 .728-.32 1.092-.96 1.092h-.948Zm-1.656-3.18h2.928v-1.548h-2.928v1.548Zm0-2.136h2.928v-1.584h-2.928v1.584Zm5.688 5.28-.144-.612c.528.024 1.024.036 1.488.036.376 0 .564-.2.564-.6v-6.684h.648v6.852c0 .672-.328 1.008-.984 1.008h-1.572Zm-.612-6.96h.648v5.196h-.648v-5.196Zm9.492-1.728v8.064h-.624v-.732h-2.424v1.068h-.624v-8.4h1.08c.248-.68.428-1.396.54-2.148l.66.084a10.29 10.29 0 0 1-.576 2.064h1.968Zm-3.048 6.732h2.424v-2.844h-2.424v2.844Zm0-3.432h2.424v-2.676h-2.424v2.676Zm5.088-.588c.92 1.016 1.616 1.896 2.088 2.64l-.516.372c-.48-.776-1.18-1.668-2.1-2.676l.528-.336Zm4.176-2.7c0 3.848-.056 6.244-.168 7.188-.12.96-.676 1.44-1.668 1.44l-1.176-.024-.156-.6c.48.024.9.036 1.26.036.648 0 1.02-.356 1.116-1.068.088-.656.144-2.764.168-6.324h-3.54a10.03 10.03 0 0 1-1.212 2.1l-.384-.504c.864-1.2 1.452-2.672 1.764-4.416l.636.072a15.005 15.005 0 0 1-.552 2.1h3.912Zm8.676 4.8h-2.46v-.624h5.592v.624h-2.484v2.94h3.036v.648h-6.696v-.648h3.012v-2.94Zm.684-3.396c-.896.816-2.02 1.488-3.372 2.016l-.42-.528c2.32-.888 3.924-2.156 4.812-3.804h-4.236v-.636h5.028v.516a7.501 7.501 0 0 1-1.392 2.028c1.064.68 1.96 1.36 2.688 2.04l-.456.468c-.648-.648-1.532-1.348-2.652-2.1Zm-3.84 5.472c-1.128.584-2.396 1.048-3.804 1.392l-.084-.636c1.472-.336 2.768-.788 3.888-1.356v.6Zm-1.152-8.76c-.632 1.592-1.268 2.852-1.908 3.78a69.345 69.345 0 0 0 1.956-.252c.32-.616.564-1.072.732-1.368l.6.216c-1.208 2.184-2.188 3.688-2.94 4.512.928-.168 1.84-.408 2.736-.72v.6c-1.192.4-2.368.68-3.528.84l-.18-.6c.112-.048.216-.112.312-.192.552-.56 1.192-1.46 1.92-2.7-.424.064-1.164.164-2.22.3l-.156-.6a.935.935 0 0 0 .276-.228c.68-1.08 1.272-2.356 1.776-3.828l.624.24Zm-124.2 17.36v.648H1.78v3.672c-.048 2.512-.476 4.504-1.284 5.976l-.504-.444c.728-1.336 1.104-3.18 1.128-5.532v-4.32h9.516Zm-.588 3.564c-.024 3.16-.172 5.048-.444 5.664-.288.624-.792.936-1.512.936-.392 0-.864-.012-1.416-.036l-.18-.6c.576.008 1.056.02 1.44.036.632-.024 1.024-.324 1.176-.9.168-.576.264-2.08.288-4.512H6.412c-.144 1.352-.444 2.484-.9 3.396-.608 1.16-1.616 2.076-3.024 2.748l-.36-.576c1.352-.64 2.32-1.532 2.904-2.676.368-.84.612-1.804.732-2.892H2.848v-.588h2.964c.016-.224.032-.576.048-1.056v-1.164h.636v1.164c0 .368-.012.72-.036 1.056h3.588Zm12.276-3.312v9.588h-.648v-.996h-3.144v1.104h-.636v-9.696h4.428Zm-3.792 7.98h3.144v-7.368h-3.144v7.368Zm-6.144-5.496h2.172v-1.932a21.97 21.97 0 0 1-1.968.24l-.216-.6c1.736-.12 3.232-.428 4.488-.924l.312.552a14.73 14.73 0 0 1-1.992.6v2.064h2.124v.612h-2.124v.684c.744.68 1.46 1.416 2.148 2.208l-.384.552c-.68-.912-1.268-1.632-1.764-2.16v5.628h-.624v-5.76a11.393 11.393 0 0 1-2.208 3.42l-.276-.684c1.176-1.152 2.004-2.448 2.484-3.888h-2.172v-.612Zm16.812-.96a14.039 14.039 0 0 1-1.944 3.084l-.456-.54c1.12-1.312 2.008-2.984 2.664-5.016l.648.156c-.152.472-.36 1.032-.624 1.68h5.376v.636h-4.188v2.184h3.636v.648h-3.636v2.22h3.732v.636h-3.732v2.856h-.648v-8.544H29.2Zm-3.612 1.512c-.448.592-.92 1.144-1.416 1.656l-.204-.684a13.403 13.403 0 0 0 2.904-4.896l.6.276a13.43 13.43 0 0 1-1.236 2.676v8.004h-.648v-7.032Zm12.66-3.348h6.48v3.732h-6.48v-3.732Zm5.82 3.108v-2.484h-5.16v2.484h5.16Zm-3.336 2.04v5.04h-.636v-.636h-2.772v.636h-.636v-5.04h4.044Zm-3.408 3.792h2.772v-3.18h-2.772v3.18Zm8.988-3.792v5.04h-.648v-.636h-2.892v.636h-.636v-5.04h4.176Zm-3.54 3.792h2.892v-3.18h-2.892v3.18Zm5.592-1.536v-.612h4.848v-.72h.648v.72h4.776v.612h-3.84c.832.88 2.156 1.572 3.972 2.076l-.276.576c-2.04-.672-3.484-1.556-4.332-2.652h-.3v2.988h-.648v-2.988h-.324c-.736 1.048-2.172 1.952-4.308 2.712l-.348-.564c1.984-.624 3.332-1.34 4.044-2.148h-3.912Zm1.224-5.22c-.376.44-.772.844-1.188 1.212l-.336-.516a9.396 9.396 0 0 0 2.472-3.468l.6.156c-.12.32-.272.656-.456 1.008h2.808a10.997 10.997 0 0 0-.516-1.092l.648-.12c.176.384.34.788.492 1.212h3.96v.576h-3.9v.96h3.48v.528h-3.48v.936h3.48v.528h-3.48v1.02h4.116v.564h-8.7v-3.504Zm3.948 2.94v-1.02H50.2v1.02h3.336Zm0-1.548v-.936H50.2v.936h3.336Zm0-1.464v-.96h-3.192l-.144.228v.732h3.336Zm10.368-1.344c1.08 1.208 1.936 2.304 2.568 3.288l-.54.384c-.632-1.024-1.492-2.132-2.58-3.324l.552-.348Zm4.248 5.652c-.768 1.536-2.044 2.828-3.828 3.876l-.444-.54c2.016-1.152 3.36-2.632 4.032-4.44.504-1.536.756-3.46.756-5.772h.672c0 2.248-.24 4.152-.72 5.712-.08.24-.144.416-.192.528a27.441 27.441 0 0 1 2.544 3.888l-.492.492c-.616-1.224-1.392-2.472-2.328-3.744Zm-7.248 1.968a.584.584 0 0 0 .288-.528v-7.908h.672v8.088c1-.392 1.972-.876 2.916-1.452l.192.648a23.738 23.738 0 0 1-3.864 1.764l-.204-.612Zm20.292-3.156v5.136h-.624v-.576h-6.12v.576h-.624v-5.136h7.368Zm-6.744 3.984h2.736v-1.428h-2.736v1.428Zm3.36 0h2.76v-1.428h-2.76v1.428Zm-3.36-1.98h2.736v-1.428h-2.736v1.428Zm3.36-1.428v1.428h2.76v-1.428h-2.76Zm-1.152-6.372a9 9 0 0 1-.636.9h4.992v.504c-.76.936-1.716 1.748-2.868 2.436 1.344.6 2.944 1.02 4.8 1.26l-.3.588c-2-.304-3.704-.808-5.112-1.512-1.464.744-3.2 1.284-5.208 1.62l-.288-.564c1.848-.272 3.476-.736 4.884-1.392-.832-.48-1.536-1.024-2.112-1.632-.552.496-1.14.936-1.764 1.32l-.42-.504c1.416-.84 2.544-1.896 3.384-3.168l.648.144Zm-1.452 1.824c.624.664 1.396 1.236 2.316 1.716a10.677 10.677 0 0 0 2.688-2.052h-4.68c-.152.152-.26.264-.324.336Zm13.992-1.812h.648v1.884h3.816v6.588h-.636v-.804h-3.18v3.228H89.2v-3.228h-3.228v.888h-.636v-6.672H89.2v-1.884Zm-3.228 7.044H89.2v-1.992h-3.228v1.992Zm3.876 0h3.18v-1.992h-3.18v1.992Zm-3.876-2.58H89.2v-1.968h-3.228v1.968Zm3.876 0h3.18v-1.968h-3.18v1.968Zm13.116-4.488h.636v.852h3.036v.552H103.6v.948h2.592v.54H103.6v.972h3.348v.564h-7.296v-.564h3.312v-.972h-2.508v-.54h2.508v-.948h-2.988v-.552h2.988v-.852Zm-1.728 7.452v1.032h4.128v-1.032h-4.128Zm4.128-.516v-1.044h-4.128v1.044h4.128Zm-4.128 2.076v1.932h-.612v-5.604h5.364v4.668c0 .584-.308.876-.924.876h-1.008l-.168-.588.984.036c.328 0 .492-.152.492-.456v-.864h-4.128Zm-3.888-8.856c.84.632 1.54 1.252 2.1 1.86l-.444.456c-.544-.608-1.248-1.232-2.112-1.872l.456-.444Zm-1.32 3.588h2.424v5.472c.36-.32.788-.74 1.284-1.26l.168.696a16.153 16.153 0 0 1-2.076 1.836l-.252-.588c.16-.144.24-.3.24-.468v-5.052h-1.788v-.636Zm22.296-2.856v9.588h-.648v-.996h-3.144v1.104h-.636v-9.696h4.428Zm-3.792 7.98h3.144v-7.368h-3.144v7.368Zm-6.144-5.496h2.172v-1.932a21.97 21.97 0 0 1-1.968.24l-.216-.6c1.736-.12 3.232-.428 4.488-.924l.312.552a14.73 14.73 0 0 1-1.992.6v2.064h2.124v.612h-2.124v.684c.744.68 1.46 1.416 2.148 2.208l-.384.552c-.68-.912-1.268-1.632-1.764-2.16v5.628h-.624v-5.76a11.393 11.393 0 0 1-2.208 3.42l-.276-.684c1.176-1.152 2.004-2.448 2.484-3.888h-2.172v-.612Zm11.808-2.82h10.62v.624h-4.884a9.764 9.764 0 0 1-.504 1.74h4.68v8.064h-.636v-.648h-7.908v.648h-.636v-8.064h3.852c.232-.56.396-1.14.492-1.74h-5.076v-.624Zm1.368 9.156h1.86v-6.18h-1.86v6.18Zm2.472 0h2.928v-1.716h-2.928v1.716Zm3.54 0h1.896v-6.18h-1.896v6.18Zm-3.54-2.28h2.928v-1.656h-2.928v1.656Zm0-2.232h2.928v-1.668h-2.928v1.668Zm13.212.372h-1.2v-.612h3.036v.612h-1.2v3.468c.544-.128 1.1-.272 1.668-.432v.624a29.32 29.32 0 0 1-3.396.768l-.156-.624 1.248-.216v-3.588Zm4.44 5.16c-.384 0-.732-.308-1.044-.924-.352-.704-.6-1.68-.744-2.928-.136-.992-.228-2.324-.276-3.996h-3.852v-.648h3.84a75.907 75.907 0 0 1-.024-2.268h.648c0 1.048.008 1.804.024 2.268h2.448v.648h-2.436c.056 2.216.196 3.904.42 5.064.28 1.344.612 2.036.996 2.076.296-.048.58-.812.852-2.292l.504.42c-.376 1.72-.828 2.58-1.356 2.58Zm-.42-10.776c.568.648.98 1.168 1.236 1.56l-.468.324c-.296-.48-.704-1.008-1.224-1.584l.456-.3Zm-7.92.18c.792.632 1.452 1.268 1.98 1.908l-.456.456c-.52-.632-1.184-1.272-1.992-1.92l.468-.444Zm-1.32 3.612h2.388v5.448a15.47 15.47 0 0 0 1.296-1.308l.168.684a15.814 15.814 0 0 1-2.064 1.908l-.252-.588c.152-.136.228-.272.228-.408v-5.1h-1.764v-.636Z"></path>
    <path fill="#525252"
        d="M47.16 91.007c-.373.666-.78 1.28-1.22 1.84H51v1.84H32.98v-1.84h5.2a15.426 15.426 0 0 0-1.18-1.98l2-.32c.4.653.807 1.42 1.22 2.3h3.62a16.966 16.966 0 0 0 1.48-2.48l1.84.64Zm-8.74 17.84-.5-1.86 1.44.06c.453 0 .68-.314.68-.94v-1.34h-3.92v4.24h-1.86v-13.08h7.62v10.6c0 1.546-.633 2.32-1.9 2.32h-1.56Zm-2.3-5.76h3.92v-1.86h-3.92v1.86Zm0-3.54h3.92v-1.86h-3.92v1.86Zm8.96 9.24-.4-1.82c.84.08 1.653.12 2.44.12.48 0 .72-.274.72-.82v-10.76h1.9v11.24c0 1.36-.653 2.04-1.96 2.04h-2.7Zm-1.36-11.78h1.84v8.54h-1.84v-8.54Zm10.56-6.4h1.84v2.06h3.46v-2.02h1.84v2.02h1.04v1.76h-1.04v8.02h1.14v1.76h-9.58v-1.76h1.3v-8.02H53.2v-1.76h1.08v-2.06Zm1.84 11.84h3.46v-1.56h-3.46v1.56Zm3.46-8.02h-3.46v1.58h3.46v-1.58Zm-3.46 4.8h3.46v-1.56h-3.46v1.56Zm3.56 5.22c.813 1.026 1.467 1.953 1.96 2.78 1.133-1.774 1.707-3.947 1.72-6.52v-9.56h7.08v15.68c0 1.306-.653 1.96-1.96 1.96H66.4l-.52-1.86c.96.053 1.627.08 2 .08.44 0 .66-.287.66-.86v-3.6h-3.4c-.28 2.613-1.08 4.8-2.4 6.56l-1.36-1.26-1.14.8c-.467-.947-1.14-2.034-2.02-3.26l1.46-.94Zm-2.82.78a16.085 16.085 0 0 1-2.54 3.7l-1.5-1.08c.96-.947 1.8-2.067 2.52-3.36l1.52.74Zm8.4-7.5v3.08h3.28v-3.08h-3.28Zm3.28-1.72v-3.06h-3.28v3.06h3.28Zm5.98-4.96c1.32 1.813 2.313 3.373 2.98 4.68l-1.58 1.08c-.747-1.427-1.753-3.014-3.02-4.76l1.62-1Zm3.04 9.46a87.905 87.905 0 0 1-2.84 8.36l-1.8-.78a81.354 81.354 0 0 0 2.92-8.26l1.72.68Zm3.62-.88v2.28h3.68v-2.28h-3.68Zm0 4.02v2.48h3.68v-2.48h-3.68Zm0 4.24v1.1h-1.86v-11.14c-.627.92-1.16 1.653-1.6 2.2l-.62-1.96c1.68-2.347 2.853-4.88 3.52-7.6l1.82.36a27.858 27.858 0 0 1-.98 2.92h3.7a28.45 28.45 0 0 0-1.06-2.92l1.82-.52c.493 1.413.84 2.56 1.04 3.44h3.74v1.8h-4v2.3h3.58v1.76H86.7v2.28h3.62v1.74H86.7v2.48h4.42v1.76h-9.94Zm3.68-12.32h-3.68v2.3h3.68v-2.3Zm23.64 4.46v8.94h-1.8v-.76h-9.36v.76h-1.8v-8.86c-.64.133-1.28.253-1.92.36l-.82-1.66c2.813-.374 5.3-1.014 7.46-1.92a15.957 15.957 0 0 1-2.72-2.16c-.8.733-1.687 1.406-2.66 2.02l-1.22-1.48c2.12-1.214 3.933-2.88 5.44-5l1.88.42-.76 1.1h7.86v1.44c-1.147 1.386-2.54 2.606-4.18 3.66 2.133.813 4.567 1.4 7.3 1.76l-.82 1.68c-3.173-.467-5.94-1.274-8.3-2.42-1.867.906-3.927 1.613-6.18 2.12h12.6Zm-9.84-6.38c.973.933 2.1 1.733 3.38 2.4 1.413-.774 2.627-1.64 3.64-2.6h-6.82l-.2.2Zm-1.32 12.96h3.76v-1.76h-3.76v1.76Zm5.56 0h3.8v-1.76h-3.8v1.76Zm-5.56-3.28h3.76v-1.72h-3.76v1.72Zm5.56-1.72v1.72h3.8v-1.72h-3.8Z"></path>
    <path fill="#E4E4E4"
        d="M72 70.907c19.33 0 35-15.67 35-35s-15.67-35-35-35-35 15.67-35 35 15.67 35 35 35Z"></path>
    <path fill="#545454"
        d="M70.333 48.282V36.865l-10-5.791V42.49l10 5.792Zm3.334 0 10-5.792V31.074l-10 5.791v11.417Zm-3.334 3.833-11.666-6.708a3.32 3.32 0 0 1-1.23-1.208A3.232 3.232 0 0 1 57 42.532v-13.25a3.242 3.242 0 0 1 1.667-2.875l11.666-6.708A3.277 3.277 0 0 1 72 19.24c.583 0 1.139.153 1.667.459l11.666 6.708c.528.305.938.708 1.23 1.208.293.5.438 1.056.437 1.667v13.25c0 .611-.146 1.167-.438 1.667-.293.5-.702.902-1.229 1.208l-11.666 6.708a3.274 3.274 0 0 1-1.667.459 3.274 3.274 0 0 1-1.667-.459Zm8.334-22 3.208-1.833L72 22.574l-3.25 1.875 9.917 5.666ZM72 33.99l3.25-1.875-9.875-5.708-3.25 1.875L72 33.99Z"></path>
    <path fill="#525252"
        d="M213.22 104.347a44.468 44.468 0 0 0-1.58-2.4c-.68 1.8-1.48 3.36-2.4 4.68l-1.22-1.48c.92-1.4 1.707-3.06 2.36-4.98a54.765 54.765 0 0 0-2.64-3.34l1.16-1.14c.56.586 1.253 1.406 2.08 2.46.32-1.334.573-2.674.76-4.02l1.74.3c-.307 2.066-.693 3.9-1.16 5.5.68.96 1.4 2.02 2.16 3.18l-1.26 1.24Zm5.76.96a62.619 62.619 0 0 0-1.72-2.88c-.747 1.813-1.613 3.373-2.6 4.68l-1.2-1.46c1.027-1.454 1.893-3.14 2.6-5.06-.84-1.24-1.7-2.42-2.58-3.54l1.18-1.12a28.335 28.335 0 0 1 2.04 2.6c.36-1.347.66-2.794.9-4.34l1.76.3c-.36 2.173-.82 4.153-1.38 5.94a139.137 139.137 0 0 1 2.28 3.62l-1.28 1.26Zm-.82 3.54-.5-1.84 1.88.08c.493 0 .74-.234.74-.7v-13.36h-12.56v15.94h-1.88v-17.76h16.32v15.6c0 1.36-.667 2.04-2 2.04h-2Zm13.92-18.34h1.96v6.02h7.4v1.84h-7.4v8.04h8.94v1.84h-17.92v-1.84h7.02v-15.9Zm19.72 9.7a45.19 45.19 0 0 1-2.14.98v5.72c0 1.333-.64 2-1.92 2h-1.88l-.44-1.82c.587.08 1.133.12 1.64.12.493 0 .74-.254.74-.76v-4.52c-.88.32-1.76.62-2.64.9l-.48-1.88c1.16-.267 2.2-.56 3.12-.88v-4.22h-2.74v-1.82h2.74v-3.46h1.86v3.46h2.08v1.82h-2.08v3.5a47.987 47.987 0 0 0 2.14-1.02v1.88Zm2.62-.12v8.88h-1.8v-17.76h9.22c0 2.306-.127 3.873-.38 4.7-.253.76-1.053 1.14-2.4 1.14h-1.5l-.52-1.64 1.16.02c.467 0 .82-.02 1.06-.06.213-.067.38-.2.5-.4.133-.28.22-.96.26-2.04h-5.6v5.42h7.56v1.64c-.32 2.066-.96 3.82-1.92 5.26.933.853 2.027 1.613 3.28 2.28l-1.28 1.48c-1.213-.774-2.24-1.567-3.08-2.38-.907.973-2.013 1.773-3.32 2.4l-.92-1.66c1.16-.56 2.14-1.28 2.94-2.16-1.267-1.56-2.06-3.267-2.38-5.12h-.88Zm2.58 0c.253 1.346.833 2.593 1.74 3.74.64-1.054 1.127-2.3 1.46-3.74H257Zm14.34 7.76v1.06h-1.9v-6.86a59.468 59.468 0 0 1-3.58.96l-1-1.84c3.373-.654 6.16-1.487 8.36-2.5-.84-.68-1.947-1.414-3.32-2.2l1.64-1.02c1.373.84 2.48 1.62 3.32 2.34 1.8-1.094 3.147-2.367 4.04-3.82h-6.92c-1.373 1.253-3.087 2.373-5.14 3.36l-1.28-1.64c3.373-1.44 5.66-3.187 6.86-5.24l2.08.24c-.307.56-.613 1.06-.92 1.5h7.5v1.68c-1.307 2.546-3.647 4.66-7.02 6.34h7.66v8.7h-1.92v-1.06h-8.46Zm8.46-1.84v-4.04h-8.46v4.04h8.46Z"></path>
    <path fill="#0067D1"
        d="M244 70.907c19.33 0 35-15.67 35-35s-15.67-35-35-35-35 15.67-35 35 15.67 35 35 35Z"></path>
    <path stroke="#fff" stroke-linecap="round" stroke-linejoin="round" stroke-width="3"
        d="M249.357 24.122h3.214a2.143 2.143 0 0 1 2.143 2.142v21.429a2.143 2.143 0 0 1-2.143 2.143h-17.143a2.143 2.143 0 0 1-2.143-2.143V26.264a2.143 2.143 0 0 1 2.143-2.142h3.214"></path>
    <path stroke="#fff" stroke-linecap="round" stroke-linejoin="round" stroke-width="3"
        d="M247.214 21.979h-6.429c-1.183 0-2.142.959-2.142 2.142v1.072c0 1.183.959 2.143 2.142 2.143h6.429c1.183 0 2.143-.96 2.143-2.143V24.12c0-1.183-.96-2.142-2.143-2.142ZM238.643 39.121l4.285 3.215 5.357-8.572"></path>
    <path fill="#525252"
        d="M378.24 98.207h1.88v10.78h-1.88v-10.78Zm11.74 10.7-.46-1.72 1.8.06c.44 0 .66-.294.66-.88v-8.72h-7.42v-1.74h9.3v10.98c0 1.346-.72 2.02-2.16 2.02h-1.72Zm-7.72-9.86h7.54v7.8h-7.54v-7.8Zm5.78 6.22v-1.6h-3.98v1.6h3.98Zm-3.98-3.12h3.98v-1.56h-3.98v1.56Zm-3.4-7.06c1.04.92 1.84 1.74 2.4 2.46l-1.4.96c-.56-.707-1.36-1.56-2.4-2.56l1.4-.86Zm-.54-1.62c-.48.84-1.02 1.6-1.62 2.28l-1.6-1.04c1.173-1.294 2.027-2.714 2.56-4.26l1.84.4c-.013.053-.14.373-.38.96h4.96v1.66h-2.64c.4.56.74 1.126 1.02 1.7l-1.68.62c-.387-.827-.827-1.6-1.32-2.32h-1.14Zm8.5 0c-.347.693-.76 1.353-1.24 1.98l-1.6-1.04c.987-1.227 1.68-2.54 2.08-3.94l1.82.4-.32.94h5.6v1.66h-3c.36.52.68 1.033.96 1.54l-1.68.62c-.36-.747-.78-1.467-1.26-2.16h-1.36Zm26.04-2.1v1.86h-14.38v5.64c-.08 4.2-.78 7.56-2.1 10.08l-1.48-1.32c1.053-2.134 1.6-5.054 1.64-8.76v-7.5h16.32Zm-.68 5.94c-.04 5.466-.32 8.74-.84 9.82-.533 1.08-1.467 1.62-2.8 1.62-.347 0-1.133-.027-2.36-.08l-.5-1.78c.96.04 1.767.08 2.42.12.933-.04 1.507-.487 1.72-1.34.253-.894.4-3.114.44-6.66h-4.2c-.24 2.133-.74 3.933-1.5 5.4-1.053 1.986-2.727 3.493-5.02 4.52l-1.06-1.66c2.253-1.134 3.78-2.534 4.58-4.2.507-1.147.873-2.5 1.1-4.06h-4.5v-1.7h4.66l.06-1.3v-1.98h1.9v1.98l-.06 1.3h5.96Zm13.2-3.6h-2.82v-1.82h10.18c0 6.773-.107 11.013-.32 12.72-.24 2.693-1.333 4.04-3.28 4.04-.32 0-1.1-.034-2.34-.1l-.46-1.74c1.067.066 1.893.1 2.48.1 1.013 0 1.6-1.054 1.76-3.16.107-.88.18-4.227.22-10.04h-3.54v1.54c-.08 6.293-1.813 10.873-5.2 13.74l-1.46-1.28c3.133-2.6 4.727-6.754 4.78-12.46v-1.54Zm-7.7 7.68a55.382 55.382 0 0 1-2.22 2.14l-.56-1.92c2.44-2.2 4.08-4.34 4.92-6.42h-4.46v-1.72h2.48c-.32-.867-.68-1.707-1.08-2.52l1.84-.48c.493 1.146.867 2.146 1.12 3h1.96v1.54c-.48 1.4-1.207 2.786-2.18 4.16v.04l.82.58c.6-.467 1.207-1.147 1.82-2.04l1.14 1.14c-.573.773-1.173 1.386-1.8 1.84.6.52 1.073.973 1.42 1.36l-1.02 1.6c-.84-1.094-1.633-1.994-2.38-2.7v7.96h-1.82v-7.56Zm20.78-7.82c-.48.88-1.02 1.68-1.62 2.4l-1.64-1c1.213-1.44 2.08-2.954 2.6-4.54l1.82.4c-.04.133-.1.306-.18.52a5.551 5.551 0 0 0-.2.52h4.94v1.7h-2.26c.293.386.58.82.86 1.3l-1.76.66a15.154 15.154 0 0 0-1.14-1.96h-1.42Zm8.66 0c-.387.733-.84 1.433-1.36 2.1l-1.6-1.02c1.04-1.28 1.78-2.654 2.22-4.12l1.84.38-.34.96h5.4v1.7h-2.7c.36.453.66.893.9 1.32l-1.74.66c-.36-.68-.76-1.34-1.2-1.98h-1.42Zm-7.74 2.28H443v5.22c-.04 3.613-1.147 6.246-3.32 7.9l-1.4-1.22c1.893-1.414 2.86-3.64 2.9-6.68v-5.22Zm-3.36 1.74h1.82v6.66h-1.82v-6.66Zm10.66.16h-4.56v-1.74h10.96v1.74h-4.6v1.5h3.86v5.72c0 1.32-.613 1.98-1.84 1.98h-1.06l-.46-1.68.96.06c.44 0 .66-.254.66-.76v-3.66h-2.12v8.12h-1.8v-8.12h-2.04v6.22h-1.7v-7.88h3.74v-1.5Z"></path>
    <path fill="#0067D1"
        d="M416 70.907c19.33 0 35-15.67 35-35s-15.67-35-35-35-35 15.67-35 35 15.67 35 35 35Z"></path>
    <path fill="#fff"
        d="m428.881 28.807-8.094-8.093a1.158 1.158 0 0 0-.818-.338h-13.875a2.31 2.31 0 0 0-2.313 2.312v25.437a2.313 2.313 0 0 0 2.313 2.313h20.812a2.312 2.312 0 0 0 2.313-2.313v-18.5a1.16 1.16 0 0 0-.338-.818Zm-7.756-4.484 4.147 4.146h-4.147v-4.146Zm5.781 23.802h-20.812V22.688h12.719v6.938a1.155 1.155 0 0 0 1.156 1.156h6.937v17.343Zm-6.582-7.06a5.206 5.206 0 0 0-1.159-6.847 5.212 5.212 0 0 0-8.453 3.781 5.213 5.213 0 0 0 4.332 5.428 5.214 5.214 0 0 0 3.646-.727l1.617 1.619a1.157 1.157 0 0 0 1.636-1.637l-1.619-1.617Zm-7.293-2.768a2.893 2.893 0 0 1 5.726-.564 2.897 2.897 0 0 1-1.229 2.968 2.89 2.89 0 0 1-4.497-2.404Z"></path>
    <path fill="#525252"
        d="M899.74 93.88v15.88h-1.86v-1.24h-3.08v1.24h-1.86V93.88h6.8Zm-4.94 12.8h3.08V95.72h-3.08v10.96Zm-9.32-15.02h1.92v3.36h4.02c0 6.8-.1 11-.3 12.6-.2 1.52-1.2 2.28-2.98 2.28-.24 0-.76-.034-1.56-.1l-.48-1.74c.76.066 1.34.1 1.74.1.84 0 1.34-.467 1.5-1.4.1-.867.18-4.16.22-9.88h-2.16v.54c-.07 5.84-1.36 10.106-3.86 12.8l-1.54-1.36c2.28-2.36 3.44-6.174 3.48-11.44v-.54h-3.02v-1.86h3.02v-3.36Zm24.82 4.72c-.88-1.614-1.96-2.874-3.22-3.78l1.58-1c1.68 1.173 3.16 3.42 4.46 6.74 1.89 4.666 4.36 7.98 7.4 9.94l-1.18 1.5c-3.14-1.88-5.76-5.487-7.88-10.82l-.14-.38c-1.36 4.84-4.06 8.58-8.1 11.22l-1.14-1.62c4.16-2.734 6.9-6.667 8.22-11.8Zm12.5-2.66h6.52c1.4 0 2.49.333 3.28 1 .76.64 1.14 1.506 1.14 2.6 0 .8-.2 1.48-.6 2.04-.42.533-.97.926-1.66 1.18.94.186 1.66.566 2.14 1.14.48.573.72 1.346.72 2.32 0 1.426-.5 2.48-1.48 3.16-.84.56-2.02.84-3.54.84h-6.52V93.72Zm2.18 1.8v4.26h3.76c.98 0 1.7-.174 2.16-.52.44-.36.66-.92.66-1.68 0-.72-.22-1.24-.66-1.56-.43-.334-1.14-.5-2.12-.5h-3.8Zm0 6.04v4.64h4.04c.89 0 1.61-.147 2.16-.44.65-.387.98-.987.98-1.8 0-.84-.26-1.454-.76-1.84-.5-.374-1.27-.56-2.32-.56h-4.1Zm10.25-7.84h2.62l4.12 6.54 4.12-6.54h2.62l-5.66 8.58v5.7h-2.16v-5.7l-5.66-8.58Zm14.97 0h6.32c1.46 0 2.61.326 3.44.98.88.72 1.32 1.753 1.32 3.1 0 .746-.2 1.413-.6 2-.46.64-1.08 1.06-1.86 1.26v.04c1.26.28 1.98 1.12 2.14 2.52l.24 2.28c.08.88.36 1.58.84 2.1h-2.36c-.34-.427-.54-1.054-.62-1.88l-.18-1.78c-.08-.774-.34-1.347-.76-1.72-.43-.347-1.06-.52-1.88-.52h-3.86v5.9h-2.18V93.72Zm2.18 1.86v4.66h3.86c.94 0 1.66-.207 2.16-.62.46-.4.7-.98.7-1.74 0-.787-.23-1.367-.68-1.74-.47-.374-1.2-.56-2.2-.56h-3.84Z"></path>
    <path fill="#0067D1"
        d="M922.02 72c19.33 0 35-15.67 35-35s-15.67-35-35-35-35 15.67-35 35 15.67 35 35 35Z"></path>
    <path stroke="#fff" stroke-linecap="round" stroke-linejoin="round" stroke-width="2.8"
        d="M934.66 38.647c.24-1.798.09-3.626-.44-5.361a12.736 12.736 0 0 0-2.62-4.7 12.693 12.693 0 0 0-4.32-3.203 12.757 12.757 0 0 0-5.26-1.133c-3.38 0-6.62 1.343-9.02 3.734A12.75 12.75 0 0 0 909.27 37a12.75 12.75 0 0 0 3.73 9.015 12.78 12.78 0 0 0 9.02 3.735m-4.25-15.584h.01m8.49 0h.01"></path>
    <path stroke="#fff" stroke-linecap="round" stroke-linejoin="round" stroke-width="2.8"
        d="M918.48 41.25a5.081 5.081 0 0 0 3.54 1.416c1.33 0 2.61-.51 3.54-1.416m.71 5.666 2.83 2.834 5.67-5.667"></path>
    <path fill="#0067D1" fill-opacity="0.1" stroke="#0067D1" stroke-dasharray="10 10"
        stroke-linecap="round" stroke-linejoin="round" stroke-width="3"
        d="M553 17c0-6.627 5.373-12 12-12h203c6.627 0 12 5.373 12 12v43c0 6.627-5.373 12-12 12H565c-6.627 0-12-5.373-12-12V17Z"></path>
    <path fill="#333"
        d="M631.408 42.298c-1.572.756-3.342 1.344-5.31 1.764l-.216-1.692c2.112-.432 3.954-1.008 5.526-1.728v1.656Zm-1.494-13.5c-.768 2.208-1.554 4.002-2.358 5.382.612-.096 1.2-.204 1.764-.324l.9-1.998 1.584.576c-1.44 2.916-2.604 4.998-3.492 6.246a24.355 24.355 0 0 0 3.15-1.062v1.53c-1.812.672-3.504 1.116-5.076 1.332l-.432-1.512c.288-.12.54-.276.756-.468.492-.6 1.122-1.656 1.89-3.168-1.74.312-2.562.462-2.466.45l-.414-1.476c.264-.108.492-.306.684-.594.732-1.632 1.38-3.474 1.944-5.526l1.566.612Zm11.79 1.26v3.618h-1.512v1.08h-6.642v-1.08h-1.512v-3.618h3.816a13.127 13.127 0 0 0-.792-1.656l1.746-.288c.252.576.504 1.224.756 1.944h4.14Zm-8.046 3.132h6.39v-1.566h-6.39v1.566Zm1.134 6.282c-.468 1.836-1.146 3.432-2.034 4.788l-1.422-.918a13.277 13.277 0 0 0 1.872-4.194l1.584.324Zm5.544-.486a33.283 33.283 0 0 1 1.908 4.464l-1.512.666c-.588-1.8-1.206-3.348-1.854-4.644l1.458-.486Zm-5.724 5.706-.342-1.62a9.427 9.427 0 0 0 1.368.126c.396 0 .594-.294.594-.882v-4.338h-4.05v-1.62h9.36v1.62h-3.672v4.752c0 1.308-.552 1.962-1.656 1.962h-1.602Zm18.018-16.488c2.28 2.568 4.884 4.584 7.812 6.048l-.918 1.638a26.481 26.481 0 0 1-2.79-1.728v1.278h-9.468v-1.314a27.926 27.926 0 0 1-2.862 1.8l-.9-1.656c3.144-1.62 5.766-3.642 7.866-6.066h1.26Zm3.618 5.598a24.751 24.751 0 0 1-4.248-4.05 23.382 23.382 0 0 1-4.284 4.05h8.532Zm1.62 3.564v7.47h-1.656v-.972h-8.424v.972h-1.656v-7.47h11.736Zm-10.08 4.878h8.424v-3.276h-8.424v3.276Zm15.912-12.33h4.68v-1.71h1.692v1.71h3.996v.882a26.787 26.787 0 0 0 1.89-2.214l1.26.954a23.597 23.597 0 0 1-3.168 3.51h3.906v1.62h-5.886a34.779 34.779 0 0 1-2.268 1.494h7.164v1.53h-8.946l-.504 1.494h8.586c-.12 2.604-.402 4.164-.846 4.68-.444.48-1.308.72-2.592.72-.744 0-1.494-.042-2.25-.126l-.558-1.494c1.068.084 1.884.126 2.448.126.876 0 1.434-.132 1.674-.396.18-.288.324-.96.432-2.016h-8.91l.774-2.736a37.511 37.511 0 0 1-3.96 1.44l-.684-1.53c2.784-.816 5.28-1.878 7.488-3.186h-6.75v-1.62h6.012V31.48h-4.68v-1.566Zm7.812 3.132a28.99 28.99 0 0 0 1.854-1.566h-3.294v1.566h1.44Zm12.384 11.808h-1.638v-8.316c-.54 1.596-1.194 3.024-1.962 4.284l-.702-1.764c1.188-1.68 2.052-3.612 2.592-5.796h-2.268v-1.638h2.34v-3.366h1.638v3.366h1.98v1.638h-1.98v.972a42.18 42.18 0 0 1 2.502 3.078l-.954 1.458a79.017 79.017 0 0 0-1.548-2.628v8.712Zm2.322-14.778h4.266c-.24-.6-.498-1.122-.774-1.566l1.746-.288c.24.516.474 1.134.702 1.854h3.924v1.566h-4.932c-.876 1.524-1.65 2.64-2.322 3.348a62.764 62.764 0 0 0 2.916-.198c.444-.648.84-1.302 1.188-1.962l1.386.738c-1.8 3.576-4.434 6.012-7.902 7.308l-.936-1.422c1.992-.696 3.684-1.77 5.076-3.222-.84.048-2.058.108-3.654.18l-.342-1.386c.132-.036.24-.084.324-.144.636-.408 1.47-1.488 2.502-3.24h-3.168v-1.566Zm5.832 11.322c-1.68 1.488-3.642 2.628-5.886 3.42l-.936-1.458c4.164-1.368 7.29-3.99 9.378-7.866l1.422.738c-.84 1.572-1.812 2.946-2.916 4.122 1.284 1.128 2.34 2.202 3.168 3.222l-1.26 1.26c-.756-1.092-1.746-2.238-2.97-3.438Z"></path>
    <path fill="#979797"
        d="m186.5 37.604-10.06-5.668.121 11.546 9.939-5.878Zm-57.99 1.605 49.001-.511-.021-2-49 .511.02 2ZM358.5 37.604l-10-5.773v11.547l10-5.774Zm-58 1h49v-2h-49v2ZM531 39.773 521 34v11.547l10-5.774Zm-58 1h49v-2h-49v2ZM860 40.773 850 35v11.547l10-5.774Zm-58 1h49v-2h-49v2Z"></path>
</svg>