<svg xmlns="http://www.w3.org/2000/svg" width="275" height="196" fill="none" viewBox="0 0 208 196">
    <path fill="#E95478"
        d="M171.023 168.878c38.646-19.186 33.626-59.806 27.958-80.746-11.781-43.52-60.758-65.05-85.519-67.87C-5.09 6.763-15.272 133.817 31.527 137.733c26.94 2.254 46.425 6.188 60.406 11.109 25.313 8.911 55.053 31.969 79.09 20.036Z"></path>
    <mask id="mask0_324_4944" width="196" height="195" x="12" y="0" maskUnits="userSpaceOnUse"
        style="mask-type: alpha;">
        <circle cx="109.875" cy="97.337" r="97.337" fill="#D9D9D9"></circle>
    </mask>
    <g mask="url(#mask0_324_4944)">
        <path fill="#fff"
            d="M163.237 177.697c-.447.32-.958.639-1.404.958-.511.319-.958.638-1.468.893-.447.256-.83.511-1.277.766-.064.064-.128.064-.191.128-1.469.894-3 1.723-4.532 2.489a14.15 14.15 0 0 1-1.405.702s-.063.064-.127.064l-1.532.766c-1.021.511-2.106.958-3.128 1.404-.51.256-1.085.447-1.595.639-.511.191-1.085.447-1.596.638-.511.192-1.085.447-1.596.638h-.064c-.51.192-1.085.383-1.595.575-1.149.383-2.362.766-3.511 1.149-.383.127-.83.255-1.213.383a38.049 38.049 0 0 1-3.638.957c-.447.128-.893.192-1.404.319-1.149.256-2.362.511-3.51.766-.256.064-.447.064-.703.128-.383.064-.829.127-1.212.191-.575.064-1.085.192-1.66.256-.255.063-.51.063-.766.127a5.604 5.604 0 0 1-1.085.128c-1.021.128-2.106.255-3.127.383-.32.064-.703.064-1.022.128h-.064c-.446.063-.893.063-1.34.127-.447.064-.893.064-1.34.064-.256 0-.575.064-.83.064-.511 0-.957.064-1.404.064-.639 0-1.213.063-1.851.063h-3.192c-26.935-.382-51.126-11.808-68.423-29.935 0 0 0-.064-.064-.064-1.915-1.723-.256-10.914 7.468-16.723 9.702-7.34 32.935-11.936 32.935-11.936s9-1.468 42.382 5.49c19.531 4.085 34.403 10.021 42.701 26.105 1.723 3.319 3.446 8.426-2.617 11.106Z"></path>
        <path fill="#000"
            d="M123.344 139.784c12.255 2.489 25.34 5.17 35.425 13.276 3.383 2.744 5.617 6.766 7.468 10.659.893 1.915 1.787 3.894 2.489 6 .383 1.404.957 3 .638 4.659-.064.447-.447 1.022-.766 1.341-1.468 1.468-3.064 2.361-4.659 3.51-9.383 6.511-20.17 11.106-31.34 13.532-24.893 5.425-51.828 1.213-73.721-11.872-7.277-4.404-13.979-9.766-19.723-16.085-.638-.766-.638-2.042-.638-2.872.063-1.915.574-3.766 1.212-5.489 1.532-3.958 3.51-7.915 6.894-10.66 2.425-1.659 5.042-3.063 7.723-4.212 8.425-3.575 17.297-6.064 26.425-7.085.766-.064.893 1.021.127 1.149-8.744 1.787-17.425 4.468-25.53 8.106-2.937 1.468-6.065 2.745-8.426 5.042-2.234 2.426-3.83 5.426-5.106 8.489-.83 1.851-1.405 4.788-1.15 6.256 4.022 4.787 8.745 8.999 13.851 12.638 27.957 19.531 70.403 20.808 100.147 4.531 2.68-1.468 5.297-3.127 7.787-4.851 1.212-.829 2.489-1.531 3.446-2.489.064-.064 0 0 0 .064s-.063.128-.063.128c.063-.766-.192-1.788-.511-2.809-1.149-3.702-3-7.595-4.979-10.978-3.127-5.043-8.425-8.234-13.786-10.787-3.703-1.724-7.596-3.064-11.553-4.34-3.958-1.277-7.979-2.362-12-3.32-1.021-.255-.702-1.723.319-1.531Z"></path>
        <path fill="#000"
            d="M70.558 136.975c2.234 3.957 10.723 19.85 12.064 33.893l7.915 2.68s-6-26.552-16.723-38.871c0 0-1.277-.574-2.873.511-.51.447-.766 1.149-.383 1.787ZM138.471 171.059s.383-17.68-7.276-29.297c-.191-.319.064-.766.447-.702.51.128 1.276.319 2.489.893 2.043.958 8.681 11.107 9.255 27.766 0-.064-4.276 1.34-4.915 1.34Z"></path>
        <path fill="#000"
            d="M160.301 154.464c-3.319-3.511-13.34-8.745-15.064-8.617.064.128.064.319.128.511 2.681 9.638.511 22.723-9.255 24.893-10.149 2.234-18.638 2.553-39 .51-14.935-1.468-28.977-14.872-36.126-28.148a30.504 30.504 0 0 0-2.425-3.893c-.51-.383-1.468-.319-2.17.255-1.788 1.468-4.15 1.34-4.15 2.745 0 0-13.53 4.212-18.254 33.892-2.68 16.787-6.447 38.552-6.574 45.957h145.336c-1.021-9.958 0-54.318-12.446-68.105Z"></path>
        <path fill="#000"
            d="M159.088 155.613c-1.915-1.915-4.404-3.383-6.766-4.787-2.17-1.277-4.851-2.681-7.085-3.319l1.468-2.043.064.383c1.787 7.468 1.404 16.34-3.766 22.468-1.787 2.042-4.404 3.51-7.085 3.957-4.978 1.021-10.148 1.596-15.255 1.596-8.936-.064-17.744-.766-26.552-1.979-6.255-1.341-12.064-4.468-17.106-8.362-7.085-5.489-12.51-12.701-17.553-20.042a17.062 17.062 0 0 0-2.425-2.808l.319.383c.128.128.191.064.128.064 0 0-.128 0-.192.064-.064 0-.064 0-.128.127-1.02.894-2.68 1.341-3.702 1.915.064 0 .192-.383.192-.447l-1.15 1.532-.19.064-.256.128c-8.744 4.723-12.957 15.957-15.255 25.148-2.234 10.468-3.574 21.255-5.361 31.786-1.022 7.021-2.298 14.234-2.617 21.191l-1.66-1.659h145.592l-1.596 1.787c-1.34-17.681-.638-53.552-12.063-67.147Zm2.425-2.234c12.319 14.361 11.553 50.424 12.894 69.062.063.893-.575 1.723-1.469 1.787-.063.128-145.464-.064-145.527 0-.894 0-1.66-.702-1.66-1.596.128-3.766.638-7.404 1.085-10.978 1.468-10.723 3.255-21.383 4.979-32.042 1.085-7.149 2.553-14.489 5.425-21.255 2.872-6.702 7.149-13.723 14.042-16.978.128-.064.256-.128.447-.191l-1.149 1.531c-.064-2.234 2.362-2.808 3.894-3.446 1.02-.575 1.85-1.404 3.127-1.404.639-.064 1.787.191 2.298.957.894 1.787 1.66 3.574 2.425 5.361 1.277 2.873 2.936 5.554 4.851 8.043 6.894 8.744 16.213 16.404 27.319 18.638 3.702.638 7.532.766 11.234 1.085 10.021.702 20.105.829 29.871-1.596 2.298-.511 4.277-1.723 5.745-3.511 4.34-5.489 4.34-13.531 2.425-20.042l-.128-.51c-.319-.958.447-2.043 1.468-2.043 1.851.064 3.256.958 4.915 1.66 4.085 2.042 8.106 4.213 11.489 7.468Z"></path>
        <path fill="#fff"
            d="M140.004 178.144c-10.468 4.468-44.871 5.489-62.36-3.957-11.043-5.936-18.191-19.021-21.638-24.063-2.553-3.83-3.83-7.404-3.83-7.404 0-1.405 2.426-1.277 4.15-2.745.701-.574 1.659-.638 2.17-.255.893 1.276 1.723 2.553 2.425 3.893 7.149 13.213 18.446 26.489 36.126 28.148 20.362 1.915 28.851 1.724 38.999-.51 9.766-2.17 11.936-15.255 9.255-24.893-.063-.128-.063-.319-.127-.511 1.723-.128 5.042.192 6.255 3.255.064 0 4.979 22.085-11.425 29.042Z"></path>
        <path fill="#000"
            d="M140.386 179.037c-4.213 1.724-8.617 2.362-13.021 2.873-4.404.51-8.808.702-13.212.702-11.042-.128-22.276-1.149-32.68-5.106-11.872-4.277-19.532-15.064-25.914-25.276-1.915-2.809-3.702-5.681-4.787-8.936-.32-.83.191-1.979.893-2.49.958-.765 2.043-.765 3-1.148.638-.192 1.021-.575 1.596-.894 1.021-.447 2.17-.83 3.446-.255 7.34 16.021 19.404 31.339 38.297 32.68 12.511 1.149 25.276 2.425 37.659-.447 4.978-.83 8.234-5.298 9.383-10.021 1.276-4.787.893-9.957-.447-14.681-.128-.446.191-.893.638-.893 2.745-.256 6.128.957 7.085 3.829 1.085 5.745 1.085 11.617-.575 17.17-1.659 5.681-5.872 10.659-11.361 12.893Zm-.766-1.787c5.106-2.042 8.872-6.383 10.596-11.553 1.723-5.233 1.914-11.042.829-16.467-.766-2.107-3.446-3-5.744-2.681l.638-.894c2.17 8.17 1.723 19.915-6.383 24.83a12.874 12.874 0 0 1-3.702 1.34 102.77 102.77 0 0 1-7.531 1.276c-10.149 1.086-20.362.256-30.446-.574-17.298-.894-30.638-14.489-38.042-29.169-.51-1.149-1.085-2.234-1.66-3.383l.128.127c-.957-.574-1.978.766-2.872 1.085-.83.447-1.723.639-2.425 1.086a.577.577 0 0 0-.192.446v-.191c1.468 4.021 4.149 7.659 6.447 11.234 5.808 8.935 12.83 17.935 23.17 21.637 14.424 5.745 42.381 7.149 57.189 1.851Z"></path>
        <path fill="#fff"
            d="M129.343 156.762c-1.34 6.574-10.021 10.531-24.637 4.595-15.191-6.127-21.766-20.744-23.425-25.084 9-16.851 2.744-28.531 2.744-28.531 20.744-1.787 38.872 22.467 38.872 22.467l2.808 12c.255 1.021.766 1.915 1.532 2.553 1.34 2.362 2.936 7.787 2.106 12Z"></path>
        <path fill="#000"
            d="M80.962 136.464c1.212-1.851 1.978-4.021 2.49-6.127.957-4.404 1.276-8.872 1.34-13.34v-1.66c-.192-1.659-.767-3.383-1.405-4.914-.83-2.043 2.17-3.32 3.128-1.277.127.255.127.702.127.957.192 8.681.575 19.851-4.914 27.063-.383.383-1.15-.191-.766-.702ZM123.599 130.082c.957.574 1.276 1.34 1.404 2.106.383 1.532.255 3.191.638 4.787.32 1.532 1.277 3 1.532 4.596.319 1.659 1.277 5.17 1.66 6.893a.697.697 0 0 1-.575.894c-.255.063-.446 0-.638-.128-.83-.702-1.213-1.404-1.723-2.298-.83-1.532-1.404-2.936-1.915-4.659-.447-1.532-.255-3.192-.638-4.787-.32-1.532-1.213-3-1.532-4.596-.192-.766-.256-1.596.319-2.553.383-.383 1.021-.511 1.468-.255Z"></path>
        <path fill="#000"
            d="M128.195 146.932c-12.191-.638-22.148-4.468-31.85-21.765 8.17 7.212 17.808 9.957 27.956 11.233l1.341 5.873c.255 1.021 1.787 4.021 2.553 4.659Z"></path>
        <path fill="#000"
            d="M127.684 144.571c2.171 4.085 3.447 9.191 2.107 13.723-1.021 3.191-3.958 5.553-7.149 6.446-7.404 1.979-15.957-1.149-22.531-4.659-8.106-4.532-14.106-12.128-17.936-20.425-.255-.639.638-1.149 1.021-.511 1.34 2.681 2.873 5.298 4.596 7.659a39.087 39.087 0 0 0 5.936 6.639c6.51 5.872 15.319 9.51 24.127 9.51 9.064-.255 12.51-5.042 10.404-13.851-.319-1.404-.83-2.872-1.532-4.085-.383-.51.574-1.085.957-.446Z"></path>
        <path fill="#fff"
            d="M152.385 67.913c1.149 5.362.256 8.936-.255 23.744-.511 14.553-4.723 35.106-9.893 40.276-3.958 3.893-16.659 6.957-27.957 4.085-5.744-1.468-10.595-4.787-14.553-7.149-4.978-3-9.319-12.255-12.893-18.191-2.809-4.659-2.553.957-6.191-3.064-5.043-5.489-11.106-16.531-8.106-36.063 4.85-31.658 29.935-35.36 48.509-31.85 18.701 3.51 28.276 14.106 31.339 28.212Z"></path>
        <path fill="#000"
            d="M83.835 113.231c-1.468-2.426-3.383-4.596-5.107-6.893-2.553-3.511-4.468-7.532-5.744-11.681-5.553-17.744-2.17-40.978 14.616-51.445 15.255-9.702 44.872-6.192 57.254 7.084 4.66 4.788 7.66 11.043 8.936 17.553.064.383.255 1.085.319 1.468.064.32.256.702.192 1.085-.128 1.404-.383 2.809-.511 4.213-.957 8.49-.702 17.17-1.787 25.659-.958 8.936-2.234 17.872-4.915 26.488a14.29 14.29 0 0 1-4.532 6.702c-4.723 3.958-10.914 5.298-16.85 5.553-11.872.575-23.936-3.638-30.83-13.659-.255-.383.256-.83.575-.447 5.745 6.192 13.532 10.149 21.829 11.043 9.192 1.085 23.042.255 27.064-9.574 4.659-13.915 7.084-28.66 7.34-43.276 0-3.574-.192-7.149-.192-10.787 0-.447.064-1.468.064-1.915 0-.064 0 0 0 0 0 .064 0 .064 0 0-.511-1.276-.702-2.68-1.085-3.957-1.404-5.298-3.957-10.34-7.596-14.361-12.063-13.532-38.935-16.915-53.998-6.766C76.94 53.233 73.75 68.424 72.92 81.828c-.702 10.02 2.234 19.85 9.83 26.743l3 3.128c1.276 1.404-.894 3.064-1.915 1.532Z"></path>
        <path fill="#fff"
            d="M91.367 92.934s-1.979-9.575-11.298-8.426c-8.042 1.022-10.85 20.298 7.404 25.659"></path>
        <path fill="#000"
            d="M86.643 101.806c-1.468-.83-2.49-2.234-2.553-3.957.063-1.277.255-2.745-.064-4.022-.192-1.212-1.468-1.531-2.426-1.468-1.021.192-1.66 1.468-1.85 2.49 0 .063-.065.255-.065.319-.063.319-.574.319-.702 0-.83-2.49 1.022-5.234 3.702-4.915 3.766.255 4.277 4.213 3.575 7.213-.383 1.276.127 2.425.83 3.51l.127.192c.32.383-.191.893-.574.638ZM137.706 86.168c.957 4.532 2.744 8.744 4.978 12.702 1.979 4.851-3.127 9.446-7.659 9.255-.511 0-.574-.702-.128-.83 2.873-.894 5.49-2.809 5.936-5.745.192-.893-.063-1.66-.51-2.425-2.107-3.957-3.383-8.49-3.064-12.957 0-.32.447-.32.447 0Z"></path>
        <path fill="#000"
            d="M91.047 92.998c-1.468-3.766-4.66-7.34-8.936-7.277-.383-.064-1.02.064-1.404.064-1.085.064-1.979.447-2.808 1.213-4.085 4.085-3.383 11.297-.064 15.829 1.149 1.596 2.617 3 4.276 4.149 1.66 1.149 3.51 2.042 5.49 2.808.446.128.255.83-.192.766-4.276-.893-8.361-3-11.17-6.51-4.34-5.234-5.234-13.979-.064-19.085 1.15-1.021 2.745-1.787 4.34-1.787.511 0 1.277-.128 1.788 0 2.68.128 5.234 1.468 6.893 3.574 1.468 1.788 2.298 3.958 2.553 6.128 0 .383-.574.51-.702.128ZM131.386 114.252c.064 1.021-.702 2.809-2.106 4.085-7.213-4.404-10.468-2.106-10.468-2.106-2.553-3.894-1.979-9.191 4.213-5.17 4.276 2.808 6.957 3.255 8.361 3.191Z"></path>
        <path fill="#fff"
            d="M129.216 118.401c-1.532 1.34-3.83 2.17-6.957.894-1.468-.575-2.617-1.724-3.511-3 .064 0 3.255-2.298 10.468 2.106Z"></path>
        <path stroke="#000" stroke-linecap="round" stroke-linejoin="round" stroke-miterlimit="10"
            stroke-width="0.518"
            d="M132.599 114.061s-2.681 1.468-9.574-2.936c-8.234-5.298-6.575 5.808-.766 8.17 6.063 2.489 9.191-2.936 9.127-4.979"></path>
        <path stroke="#000" stroke-linecap="round" stroke-linejoin="round" stroke-miterlimit="10"
            stroke-width="0.518" d="M118.812 116.295s3.256-2.298 10.468 2.106"></path>
        <path fill="#000"
            d="M113.898 92.678c-1.532-.063-2.681-1.34-2.553-2.872l.063-1.787c.064-1.532 1.341-2.68 2.873-2.553 1.532.064 2.681 1.34 2.553 2.872l-.064 1.787c-.064 1.468-1.34 2.617-2.872 2.553ZM140.769 93.636c-1.404-.064-2.489-1.277-2.426-2.68l.064-1.66c.064-1.405 1.277-2.49 2.681-2.426 1.404.064 2.489 1.277 2.426 2.68l-.064 1.66c-.064 1.405-1.277 2.49-2.681 2.426Z"></path>
        <path fill="#000"
            d="M119.642 89.232c-2.106-1.404-4.404-2.362-6.957-1.851-.83.127-1.66.383-2.17.957-.192.256-.639.192-.639-.191.064-1.277 1.149-2.107 2.171-2.617 1.978-1.022 4.723-.83 6.51.51.638.383 2.809 2.745 1.66 3.256-.256.127-.383.063-.575-.064ZM137.897 89.55c0-2.68 3.319-3.638 5.362-2.68 1.148.51 1.978 1.532 2.297 2.745.128.383-.446.702-.702.383-1.085-1.277-2.936-1.915-4.404-1.15-.447.256-.511.447-.638.703 0 1.276-1.851 1.212-1.915 0ZM122.706 78.7c1.34.447 2.681-.766 2.426-2.234-.128-.766-.447-1.532-1.086-2.106-1.914-1.724-9.829-3.255-14.616-1.022-4.213 2.043 7.149 3.32 13.276 5.362ZM141.791 79.721c-1.085.383-2.234-.766-2.043-2.106.064-.702.319-1.404.83-1.915 1.532-1.532 6.766-2.745 10.085-.383 2.872 1.979-3.894 2.553-8.872 4.404Z"></path>
        <path fill="#000"
            d="M160.368 124.273c-7.404-18.893-6.446-24.829-4.659-40.722 3.574-31.276-7.723-38.871-13.659-41.871-25.276-12.83-54.254-6.574-65.169 11.042-6.83 10.979-7.085 19.787-10.914 32.425-6.575 21.638-22.404 31.212-17.49 53.36 6.767 21.829 50.042 31.467 49.212 8.745-.51-13.723-10.787-15.574-10.978-34.531a33 33 0 0 1 .191-3.639c-17.616-5.553-14.808-24.446-6.83-25.467 5.554-.702 8.49 2.425 9.958 5.042.128.383.32.703.51 1.086 1.277 2.17 16.341-1.915 27.83-9 6.702-4.15 17.169-11.298 20.042-19.149.127-.319 2.17 9.51 11.744 22.276-.447 7.596 1.468 26.553-8.234 42.191-7.021 11.425-15.829 12.446-15.829 12.446 0 7.596 13.467 7.213 19.084 8.489 7.021 1.532 13.979 5.745 13.979 5.745s8.042-11.042 1.212-28.468Z"></path>
        <path fill="#000"
            d="M141.408 100.912s.766 4.341 5.808 6.511c1.277.51 2.617-.319 2.617-1.724-.064 0-8.106-4.276-8.425-4.787ZM101.962 100.912s2.362 5.362 9.446 6.638c7.085 1.341 13.532-3.766 16.532-12.319 0 0-2.426 7.915-12.127 9.383-9.575 1.596-13.851-3.702-13.851-3.702Z"></path>
        <path stroke="#000" stroke-linecap="round" stroke-linejoin="round" stroke-miterlimit="10"
            stroke-width="0.518"
            d="M129.344 88.976c-.191 9.128-7.531 16.468-16.404 16.468-8.872 0-15.957-7.34-15.957-16.468.064-9.19 7.404-16.723 16.404-16.723s16.213 7.532 15.957 16.723ZM138.089 86.87c1.021-8.234 6.383-14.68 12.702-14.68 6.829 0 12.063 7.531 11.68 16.723-.383 9.127-6.127 16.467-12.829 16.467-2.49 0-4.724-.957-6.575-2.68M97.175 87.19H88.11M129.408 87.19s7.596-2.937 8.553 0"></path>
    </g>
</svg>