<svg xmlns="http://www.w3.org/2000/svg" width="160" height="153" fill="none" viewBox="0 0 160 153"
    class="z-10 mx-auto shrink-0 -mb-6 h-[80px] sm:-mb-8 sm:h-[100px] lg:-mb-20 lg:h-[150px]">
    <path fill="#000"
        d="M96.689 149.141c-1.154-3.078-.48-18.273 0-25.485l12.502-.962c-.161 3.847-.193 12.117.961 14.425s3.046 1.924 3.847 1.443c15.003-6.924 16.83 5.77 15.868 12.983-3.847.481-31.735 1.442-33.178-2.404Z"></path>
    <path fill="#000" fill-rule="evenodd"
        d="M107.747 58.26c-2.693 9.617-10.098 20.356-13.464 24.523l10.579 25.005c4.808-6.251 26.928-25.005 40.872-30.294 10.2-3.869 9.386-8.568 7.334-10.938-1.345-.173-3.989-.08-7.006.62-3.202.742-6.739 2.15-9.518 4.558a.65.65 0 0 1-.852-.982c2.992-2.593 6.748-4.07 10.076-4.843 2.707-.627 5.19-.801 6.814-.702.133-2.122-1.391-3.977-2.57-4.92-1.466-.154-4.089-.066-6.955.544-3.165.673-6.523 1.961-8.902 4.158a.65.65 0 0 1-.882-.956c2.621-2.42 6.236-3.776 9.514-4.473 2.398-.51 4.672-.679 6.325-.631-.205-5.12-6.226-5.501-11.144-4.49a148.932 148.932 0 0 0-5.131 3.623c-2.239 1.654-4.458 3.413-5.362 4.468a.65.65 0 0 1-.987-.846c1.019-1.189 3.368-3.036 5.577-4.668a150.67 150.67 0 0 1 5.067-3.58c2.897-2.668 5.452-6.617 1.87-9.602-3.899-3.249-10.589 1.507-14.794 5.574-.566 1.785-2.521 6.595-3.658 9.39v.002l-.002.003v.002c-.237.581-.437 1.075-.583 1.436.317 1.5.629 3.854.598 6.322-.033 2.563-.436 5.347-1.679 7.419a.65.65 0 0 1-1.115-.669c1.065-1.775 1.462-4.28 1.494-6.766.031-2.47-.299-4.823-.61-6.222l-.043-.196.074-.187c.156-.389.395-.978.684-1.688l.002-.004v-.001c1.162-2.86 3.119-7.675 3.624-9.316a.66.66 0 0 1 .161-.268c1.098-4.911-1.183-8.602-4.829-8.197-4.328.481-7.213 5.77-10.579 17.792ZM57.218 58.26c2.693 9.617 10.098 20.356 13.464 24.523l-10.58 25.005c-4.808-6.251-26.927-25.005-40.871-30.294-10.2-3.868-9.386-8.568-7.334-10.938 1.344-.173 3.989-.08 7.007.62 3.202.742 6.739 2.15 9.518 4.558a.65.65 0 1 0 .851-.982c-2.99-2.593-6.747-4.07-10.076-4.843-2.707-.627-5.19-.801-6.814-.702-.133-2.121 1.39-3.976 2.57-4.92 1.465-.154 4.088-.065 6.955.544 3.166.674 6.523 1.961 8.903 4.158a.65.65 0 1 0 .882-.955c-2.621-2.42-6.236-3.777-9.514-4.474-2.399-.51-4.673-.679-6.326-.631.204-5.12 6.227-5.501 11.145-4.49a148.814 148.814 0 0 1 5.13 3.623c2.24 1.654 4.458 3.413 5.363 4.468a.65.65 0 0 0 .987-.846c-1.02-1.189-3.369-3.036-5.577-4.668a151.144 151.144 0 0 0-5.07-3.58c-2.896-2.67-5.45-6.618-1.869-9.602 3.9-3.25 10.591 1.508 14.797 5.576.566 1.785 2.52 6.593 3.657 9.389v.001l.001.003.001.002.583 1.436c-.317 1.5-.63 3.854-.598 6.322.032 2.563.436 5.347 1.68 7.419a.65.65 0 1 0 1.114-.669c-1.065-1.775-1.463-4.28-1.494-6.766-.032-2.47.299-4.823.61-6.222l.043-.196-.075-.187c-.155-.389-.395-.978-.683-1.688l-.002-.004v-.001c-1.162-2.86-3.12-7.675-3.624-9.316a.646.646 0 0 0-.163-.27c-1.096-4.91 1.184-8.6 4.83-8.195 4.328.481 7.213 5.77 10.579 17.792Z"
        clip-rule="evenodd"></path>
    <path fill="#fff" stroke="#000" stroke-linecap="round" stroke-width="3"
        d="M104.863 83.264H62.068c-2.308 4.232-2.885 29.011-2.885 40.872 7.693 2.693 36.865 1.122 50.489 0l-4.809-40.872Z"></path>
    <path fill="#000"
        d="M55.816 139.042c3.463-1.538 3.687-10.899 3.366-15.387 1.539 1.539 7.694 1.924 10.58 1.924.358 1.432.743 16.026.924 24.632a1.95 1.95 0 0 1-1.77 1.997c-10.191.894-26.197.271-33.295-.183-.77-1.154-1.282-4.007-1.443-5.289-.384-13.079 10.098-11.059 15.868-7.694 1.443.842 2.308 1.539 5.77 0Z"></path>
    <path fill="#fff" stroke="#000" stroke-width="3"
        d="M98.13 50.566c0 8.764-6.357 15.868-15.386 15.868-9.03 0-15.388-7.104-15.388-15.868 0-8.763 6.358-15.868 15.388-15.868 9.029 0 15.387 7.105 15.387 15.868Z"></path>
    <path stroke="#000" stroke-width="2"
        d="M85.59 52.49c0 1.624-.35 2.726-.81 3.392-.439.638-.985.897-1.556.897-.57 0-1.116-.259-1.556-.898-.459-.665-.81-1.767-.81-3.391 0-1.625.351-2.727.81-3.392.44-.639.985-.898 1.556-.898.571 0 1.117.259 1.557.898.458.665.81 1.767.81 3.392Z"></path>
    <circle cx="76.493" cy="44.796" r="1.443" fill="#000"></circle>
    <circle cx="88.995" cy="44.796" r="1.443" fill="#000"></circle>
    <path stroke="#175DDC" stroke-width="3"
        d="M145.736 29.409c4.969 0 12.502-4.328 8.175-13.464-.921-1.944-4.328-1.69-4.328 1.442 0 4.328 10.579 2.405 8.655-8.174M92.361 20.272C91.72 16.746 92.073 8.155 98.612 2M31.774 3.923c0 4.328 1.25 12.983 6.252 12.983 6.25 0 5.406-5.902 1.923-6.25-4.809-.482-6.251 15.867 7.213 11.54M1 11.617c2.725.16 9.713 1.924 15.868 7.694"></path>
    <path fill="#175DDC"
        d="m64.472 16.907-7.694-7.213 3.847-4.328 7.694 8.175-3.847 3.366ZM127.463 18.83l-5.289 7.213 3.847 3.847 5.77-6.251-4.328-4.809Z"></path>
    <ellipse cx="16.868" cy="27.004" fill="#175DDC" rx="3.366" ry="2.885"></ellipse>
    <ellipse cx="135.638" cy="10.175" fill="#175DDC" rx="2.885" ry="3.366"></ellipse>
</svg>