<svg xmlns="http://www.w3.org/2000/svg" width="135" height="153" fill="none" viewBox="0 0 135 153"
    class="z-10 mx-auto shrink-0 -mb-6 h-[80px] sm:-mb-8 sm:h-[100px] lg:-mb-20 lg:h-[150px]">
    <path fill="#000"
        d="M69.422 15.605C71.107 2.692 95.81-1.48 109.844.446c9.544 1.31 27.847 8.31 24.703 25.825-3.93 21.896-20.773 17.966-24.703 17.966-3.93 0-14.035-9.544-24.14-10.106-10.106-.561-10.667 1.684-18.527-5.614L85.703 17.85c-12.126 6.737-16.28 1.684-16.28-2.245Z"></path>
    <path stroke="#fff"
        d="M111.528 6.06c-7.86-.373-24.028 1.46-25.825 11.79-.561 2.62.112 7.636 7.299 6.738"></path>
    <path stroke="#fff"
        d="M118.266 10.552c-7.86.374-23.804 3.593-24.702 13.474-.187 2.62 1.572 7.523 10.105 6.175"></path>
    <path stroke="#fff"
        d="M125.564 16.166c-6.55-.936-20.099.561-21.895 14.035.187 2.995 2.582 8.31 10.667 5.615 10.105-3.369 16.281-14.036 2.246-11.229"></path>
    <path fill="#175DDC" stroke="#000" stroke-linejoin="round"
        d="M61.624 27.576a.5.5 0 0 0 .308.462c1.921.8 5.287 1.747 9.196 2.023 3.91.276 8.398-.116 12.54-2.031a.5.5 0 0 0 .29-.454v-4.673a.5.5 0 0 0-.756-.43c-2.477 1.473-10.255 3.655-20.914-.042a.5.5 0 0 0-.664.472v4.673Z"></path>
    <path fill="#175DDC" stroke="#000"
        d="M72.79 24.526c2.97 0 5.673-.253 7.647-.668.982-.207 1.81-.46 2.405-.756.297-.148.561-.318.758-.52.198-.205.358-.474.358-.802 0-.327-.16-.597-.358-.8a2.782 2.782 0 0 0-.758-.521c-.594-.296-1.423-.549-2.405-.756-1.974-.415-4.677-.668-7.646-.668-2.97 0-5.672.253-7.646.668-.982.207-1.81.46-2.405.756-.297.147-.561.318-.758.52-.198.204-.358.474-.358.801 0 .328.16.597.358.801.197.203.46.373.758.521.594.296 1.423.549 2.405.756 1.974.415 4.677.668 7.646.668Z"></path>
    <path fill="#000" d="M70.546 18.974c1.684 1.497 6.288 3.705 11.228.561l-11.228-.561Z"></path>
    <path fill="#fff"
        d="M24.356 90.036c8.551-44.89 64.152-40.074 83.587-26.83 7.843-9.907 18.403-7.912 22.703-5.676 5.366 8.668-3.956 19.09-9.287 23.218 3.715 12.796 1.891 27.347.516 33.022-1.548 1.548-2.064 10.32-2.064 19.607v12.383c-2.58 1.032-10.836 1.548-12.384.248-3.176-2.668-5.159-7.396-5.159-11.351-3.303 1.651-7.74 2.504-9.804 2.848v11.867c-6.191 2.477-14.619 1.032-18.059 0v-10.835c-13.208 2.064-22.358-.86-25.282-2.58-.826 2.889-.344 6.02 0 7.223-6.604 4.128-16.167 1.72-20.123 0 3.715-8.668 3.612-17.37 3.096-20.638-9.494-11.558-9.804-21.671-7.74-32.506Z"></path>
    <path stroke="#000" stroke-linejoin="round" stroke-width="3"
        d="M102.268 134.657c-3.303 1.651-7.74 2.504-9.804 2.848v11.867c-6.191 2.477-14.619 1.032-18.059 0v-10.835c-13.208 2.064-22.358-.86-25.282-2.58-.826 2.889-.344 6.02 0 7.223-6.604 4.128-16.167 1.72-20.123 0 3.715-8.668 3.612-17.37 3.096-20.638-9.494-11.558-9.804-21.671-7.74-32.506 8.551-44.89 64.152-40.074 83.587-26.83 7.843-9.907 18.403-7.912 22.703-5.676 5.366 8.668-3.956 19.09-9.287 23.218 3.715 12.796 1.891 27.347.516 33.022-1.548 1.548-2.064 10.32-2.064 19.607v12.383c-2.58 1.032-10.836 1.548-12.384.248-3.176-2.668-5.159-7.396-5.159-11.351Zm0 0c1.375-.771 4.231-2.415 4.643-2.828"></path>
    <path fill="#fff" stroke="#000" stroke-linejoin="round" stroke-width="3"
        d="M126.002 105.515c0 6.269-4.566 10.835-10.835 10.835-6.269 0-10.319-4.566-10.319-10.835 0-6.27 4.566-11.351 10.835-11.351 6.269 0 10.319 5.082 10.319 11.351Z"></path>
    <path stroke="#000" stroke-linecap="round" stroke-linejoin="round" stroke-width="2"
        d="M112.587 102.419v4.644M118.778 102.419v4.128"></path>
    <rect width="3.096" height="3.096" x="96.076" y="84.876" fill="#000" rx="1.548"></rect>
    <rect width="3.096" height="3.096" x="113.619" y="84.876" fill="#000" rx="1.548"></rect>
    <path stroke="#000" stroke-linecap="round" stroke-linejoin="round" stroke-width="3"
        d="M107.428 120.478c2.064.344 6.707.826 8.771 0"></path>
    <path stroke="#000" stroke-linejoin="round" stroke-width="2.3"
        d="M112.587 69.913c1.548-2.236 7.327-7.74 18.059-11.867"></path>
    <path stroke="#000" stroke-linecap="round" stroke-linejoin="round" stroke-width="2.3"
        d="M65.118 81.78c-1.032-5.675-1.34-18.677 9.804-21.154 2.924 0 9.7 2.89 13.415 10.32"></path>
    <path stroke="#000" stroke-linecap="round" stroke-linejoin="round" stroke-width="2.3"
        d="M65.117 81.78c.688-4.987 3.922-15.17 11.352-15.995 1.547.172 6.088 1.445 11.867 5.16"></path>
    <path stroke="#000" stroke-linejoin="round" stroke-width="3"
        d="M58.41 139.053c-.172 1.892.31 5.675 3.612 5.675h12.383"></path>
    <path fill="#175DDC"
        d="M19.658 32.353a18.845 18.845 0 0 0 9.464-10.768c.104-.284 1.781 9.252 7.432 11.09 0 0-6.838 3.278-8.457 9.768.006.09-.387-5.155-8.439-10.09ZM22.457 63.017c5.324-2.732 9.388-7.535 11.305-13.36.122-.349 2.119 11.457 8.906 13.729 0 0-8.165 4.058-10.105 12.088-.029.106-.497-6.38-10.106-12.457ZM0 51.314a15.013 15.013 0 0 0 7.522-8.568c.078-.232 1.413 7.342 5.923 8.8 0 0-5.432 2.58-6.716 7.742-.032.084-.342-4.077-6.729-7.974Z"></path>
</svg>