<svg xmlns="http://www.w3.org/2000/svg" width="244" height="122" fill="none" viewBox="0 0 244 122">
    <path fill="#0067D1"
            d="M17.936 1.296c8.79 3.499 17.11 8.192 24.96 14.08A163.637 163.637 0 0 0 31.632 31.12a44.606 44.606 0 0 0 6.784-.768c-.341 3.84-.512 7.637-.512 11.392 4.267-2.048 7.083-4.139 8.448-6.272 1.707-2.901 2.56-6.101 2.56-9.6v-5.504c0-5.803-.64-11.648-1.92-17.536a316.115 316.115 0 0 0 25.472 1.024h6.016c8.107 0 16.256-.341 24.448-1.024a226.578 226.578 0 0 0-1.024 21.504v2.048c0 3.328 2.176 4.992 6.528 4.992 3.584 0 6.741-.683 9.472-2.048-1.877 6.741-2.859 13.27-2.944 19.584-7.168.597-13.525.896-19.072.896-10.325 0-15.488-4.65-15.488-13.952v-11.52h-9.984v11.008c0 4.352-1.067 8.448-3.2 12.288a30.977 30.977 0 0 1-4.736 5.76h38.912c3.499 0 6.997-.341 10.496-1.024a108.137 108.137 0 0 0-.512 10.496v11.52c-2.475 5.973-5.717 11.392-9.728 16.256 4.608.939 9.685 1.664 15.232 2.176-5.376 9.216-9.173 17.749-11.392 25.6a110.736 110.736 0 0 1-25.088-10.24c-7.424 4.181-16.085 7.723-25.984 10.624-3.157-5.973-6.57-11.307-10.24-16l-24.704 16c-3.925-5.803-8.619-10.624-14.08-14.464 7.339-4.779 11.008-9.6 11.008-14.464V52.88c-5.29 0-10.624.17-16 .512a130.048 130.048 0 0 0 0-23.04 49.566 49.566 0 0 0 9.984 1.024h17.792c-7.339-5.29-14.933-9.643-22.784-13.056 4.693-5.12 8.875-10.795 12.544-17.024Zm32.512 94.72a78.91 78.91 0 0 0 9.344-2.56c-4.608-4.096-9.045-8.619-13.312-13.568 3.84-2.133 7.296-4.48 10.368-7.04h-.896c-2.645 0-5.973.17-9.984.512.341-4.267.512-7.765.512-10.496 0-2.987-.17-6.485-.512-10.496 2.219.427 4.31.725 6.272.896-5.12-3.925-9.899-7.253-14.336-9.984v40.192l4.48-3.072c2.048 6.315 4.736 11.52 8.064 15.616Zm18.048-23.168c3.584 3.755 7.339 6.87 11.264 9.344a73.222 73.222 0 0 0 9.216-9.344h-20.48ZM143.376.912c9.899 3.755 19.243 8.747 28.032 14.976a139.16 139.16 0 0 0-11.136 15.488c3.157-.085 6.229-.256 9.216-.512a118.9 118.9 0 0 0-.512 11.008v43.264l8.96-6.272c2.389 7.51 5.717 13.525 9.984 18.048l-36.992 24.96c-4.011-6.059-8.832-11.051-14.464-14.976 6.997-5.035 10.496-10.027 10.496-14.976V52.368c-5.888 0-11.733.17-17.536.512a118.9 118.9 0 0 0 .512-11.008c0-3.67-.171-7.339-.512-11.008 3.328.341 6.656.512 9.984.512h16.896c-8.021-5.803-16.299-10.624-24.832-14.464 4.437-4.864 8.405-10.197 11.904-16Zm30.592 34.432c3.328.341 6.485.512 9.472.512h13.44V16.912c0-4.864-.128-10.07-.384-15.616 5.461.939 13.952 1.408 25.472 1.408 1.621 0 2.432.384 2.432 1.152 0 .683-.469 1.493-1.408 2.432-1.365 1.024-2.048 2.56-2.048 4.608v24.96H234c3.157 0 6.315-.17 9.472-.512a145.03 145.03 0 0 0-.512 12.032c0 4.01.171 8.32.512 12.928-2.816-.597-5.973-.896-9.472-.896h-13.056v49.408c0 2.816.341 6.144 1.024 9.984-4.864-.256-9.216-.384-13.056-.384-4.181 0-8.32.128-12.416.384.256-3.328.384-6.656.384-9.984V59.408h-13.44c-2.816 0-5.973.299-9.472.896.341-4.864.512-9.173.512-12.928 0-4.01-.171-8.021-.512-12.032Z">
    </path>
</svg>